M48
; DRILL file {KiCad 7.0.5-0} date 2024 March 26, Tuesday 18:43:33
; FORMAT={-:-/ absolute / inch / decimal}
; #@! TF.CreationDate,2024-03-26T18:43:33-04:00
; #@! TF.GenerationSoftware,Kicad,Pcbnew,7.0.5-0
; #@! TF.FileFunction,Plated,1,2,PTH
FMAT,2
INCH
; #@! TA.AperFunction,Plated,PTH,ViaDrill
T1C0.0157
; #@! TA.AperFunction,Plated,PTH,ComponentDrill
T2C0.0197
; #@! TA.AperFunction,Plated,PTH,ComponentDrill
T3C0.0217
; #@! TA.AperFunction,Plated,PTH,ComponentDrill
T4C0.0374
; #@! TA.AperFunction,Plated,PTH,ComponentDrill
T5C0.0394
; #@! TA.AperFunction,Plated,PTH,ComponentDrill
T6C0.0472
; #@! TA.AperFunction,Plated,PTH,ComponentDrill
T7C0.0591
; #@! TA.AperFunction,Plated,PTH,ComponentDrill
T8C0.0906
%
G90
G05
T1
X2.7662Y-5.534
X2.9134Y-1.5142
X3.2346Y-5.774
X3.2677Y-1.6732
X3.2677Y-3.7992
X3.2677Y-4.5472
X3.3189Y-3.7992
X3.3858Y-4.3504
X3.3858Y-4.7638
X3.5179Y-4.3504
X3.5179Y-4.4825
X3.5679Y-4.4833
X3.6179Y-4.4841
X3.6491Y-4.8228
X3.6614Y-4.3504
X3.6614Y-4.6063
X3.7179Y-3.664
X3.7205Y-4.3504
X3.7679Y-3.6614
X3.8189Y-3.878
X3.8189Y-4.4882
X3.8501Y-4.5276
X3.8679Y-4.4882
X3.878Y-3.6614
X3.8976Y-4.5669
X3.969Y-4.6063
X3.969Y-4.6655
X3.9764Y-4.4685
X3.9886Y-3.9051
X4.0717Y-3.8551
X4.0945Y-4.4685
X4.1929Y-3.5827
X4.7835Y-3.622
X4.9016Y-5.1083
X4.9016Y-5.2854
X4.9213Y-3.8386
X4.9882Y-3.2165
X5.1969Y-3.8386
X5.2165Y-2.7953
X5.2165Y-4.3307
X5.2362Y-2.5591
X5.2776Y-3.3622
X5.3937Y-3.7008
X5.6299Y-2.3819
X5.6299Y-2.5787
X5.6299Y-3.937
X5.6868Y-2.9085
X5.7087Y-3.7008
X5.7702Y-2.6181
X5.7874Y-3.3858
X5.8489Y-2.4582
X5.9646Y-1.4567
X6.0584Y-2.436
X6.2795Y-1.1811
X6.2992Y-2.1457
T4
X6.1079Y-3.5827
X6.1079Y-3.6811
X6.1079Y-3.7598
X6.1079Y-3.8583
T5
X2.0276Y-5.3937
X2.0276Y-5.9646
X2.0346Y-1.4354
X2.126Y-5.3937
X2.2244Y-5.3937
X2.2244Y-5.9646
X3.0394Y-5.374
X3.0394Y-5.474
X3.0394Y-5.574
X3.0394Y-5.674
X3.0394Y-5.774
X3.0512Y-1.2764
X3.0512Y-1.3764
X3.0512Y-1.4764
X3.0512Y-1.5764
X3.0512Y-1.6764
X3.2378Y-4.9213
X3.2402Y-3.5039
X3.248Y-5.1598
X3.248Y-5.2598
X3.248Y-5.3598
X3.248Y-5.4598
X3.3378Y-4.9213
X3.3402Y-3.5039
X3.4378Y-4.9213
X3.4402Y-3.5039
X3.4417Y-5.7283
X3.5378Y-4.9213
X3.5402Y-3.5039
X3.5417Y-5.7283
X3.6378Y-4.9213
X3.6402Y-3.5039
X3.6417Y-5.1378
X3.6417Y-5.7283
X3.6496Y-2.2047
X3.7378Y-4.9213
X3.7402Y-3.5039
X3.7496Y-2.2047
X3.8319Y-3.0512
X3.8378Y-4.9213
X3.8402Y-3.5039
X3.8496Y-2.2047
X3.9319Y-3.0512
X3.9339Y-5.7283
X3.9378Y-4.9213
X3.9402Y-3.5039
X3.9496Y-2.2047
X4.0319Y-3.0512
X4.0339Y-5.7283
X4.0378Y-4.9213
X4.0402Y-3.5039
X4.1319Y-3.0512
X4.1339Y-5.1969
X4.1339Y-5.7283
X4.1378Y-4.9213
X4.1402Y-3.5039
X4.2319Y-3.0512
X4.2323Y-5.0787
X4.2378Y-4.9213
X4.2402Y-3.5039
X4.3319Y-3.0512
X4.3378Y-4.9213
X4.3402Y-3.5039
X4.385Y-5.7283
X4.4319Y-3.0512
X4.4402Y-3.5039
X4.485Y-5.7283
X4.5319Y-3.0512
X4.5402Y-3.5039
X4.585Y-5.7283
X4.6319Y-3.0512
X4.6402Y-3.5039
X4.685Y-5.7283
X4.7264Y-1.0182
X4.7264Y-1.7072
X4.7402Y-3.5039
X4.7441Y-3.3465
X4.785Y-5.7283
X5.036Y-5.7283
X5.136Y-5.7283
X5.2165Y-2.1435
X5.2165Y-2.2435
X5.2165Y-2.3435
X5.236Y-5.7283
X5.336Y-5.7283
X5.436Y-5.7283
X6.2815Y-1.0182
X6.2815Y-1.7072
X6.4764Y-1.9457
X6.4764Y-2.0457
X6.4764Y-2.1457
X6.4764Y-2.2457
X6.4764Y-3.1191
X6.4764Y-3.2191
T6
X6.4594Y-1.3741
X6.4594Y-1.5241
T8
X6.2146Y-3.4618
X6.2146Y-3.9791
T2
G00X6.5226Y-4.8228
M15
G01X6.5482Y-4.8228
M16
G05
G00X6.5226Y-5.0984
M15
G01X6.5482Y-5.0984
M16
G05
T3
G00X6.4291Y-4.8681
M15
G01X6.4291Y-4.8563
M16
G05
G00X6.4291Y-5.065
M15
G01X6.4291Y-5.0531
M16
G05
T7
G00X1.9055Y-5.6634
M15
G01X1.9055Y-5.7146
M16
G05
G00X2.3465Y-5.6634
M15
G01X2.3465Y-5.7146
M16
G05
T0
M30
