%TF.GenerationSoftware,KiCad,Pcbnew,7.0.5-0*%
%TF.CreationDate,2024-03-26T18:43:31-04:00*%
%TF.ProjectId,PanneauSolaire,50616e6e-6561-4755-936f-6c616972652e,rev?*%
%TF.SameCoordinates,Original*%
%TF.FileFunction,Paste,Top*%
%TF.FilePolarity,Positive*%
%FSLAX46Y46*%
G04 Gerber Fmt 4.6, Leading zero omitted, Abs format (unit mm)*
G04 Created by KiCad (PCBNEW 7.0.5-0) date 2024-03-26 18:43:31*
%MOMM*%
%LPD*%
G01*
G04 APERTURE LIST*
G04 Aperture macros list*
%AMRoundRect*
0 Rectangle with rounded corners*
0 $1 Rounding radius*
0 $2 $3 $4 $5 $6 $7 $8 $9 X,Y pos of 4 corners*
0 Add a 4 corners polygon primitive as box body*
4,1,4,$2,$3,$4,$5,$6,$7,$8,$9,$2,$3,0*
0 Add four circle primitives for the rounded corners*
1,1,$1+$1,$2,$3*
1,1,$1+$1,$4,$5*
1,1,$1+$1,$6,$7*
1,1,$1+$1,$8,$9*
0 Add four rect primitives between the rounded corners*
20,1,$1+$1,$2,$3,$4,$5,0*
20,1,$1+$1,$4,$5,$6,$7,0*
20,1,$1+$1,$6,$7,$8,$9,0*
20,1,$1+$1,$8,$9,$2,$3,0*%
%AMOutline4P*
0 Free polygon, 4 corners , with rotation*
0 The origin of the aperture is its center*
0 number of corners: always 4*
0 $1 to $8 corner X, Y*
0 $9 Rotation angle, in degrees counterclockwise*
0 create outline with 4 corners*
4,1,4,$1,$2,$3,$4,$5,$6,$7,$8,$1,$2,$9*%
G04 Aperture macros list end*
%ADD10R,1.050000X0.650000*%
%ADD11RoundRect,0.250000X0.400000X0.625000X-0.400000X0.625000X-0.400000X-0.625000X0.400000X-0.625000X0*%
%ADD12R,1.050000X1.050000*%
%ADD13R,0.900000X1.500000*%
%ADD14R,1.500000X0.900000*%
%ADD15RoundRect,0.250000X-0.625000X0.400000X-0.625000X-0.400000X0.625000X-0.400000X0.625000X0.400000X0*%
%ADD16R,0.650000X1.560000*%
%ADD17RoundRect,0.250000X-0.412500X-0.650000X0.412500X-0.650000X0.412500X0.650000X-0.412500X0.650000X0*%
%ADD18RoundRect,0.250000X-0.450000X0.325000X-0.450000X-0.325000X0.450000X-0.325000X0.450000X0.325000X0*%
%ADD19RoundRect,0.250000X0.650000X-0.412500X0.650000X0.412500X-0.650000X0.412500X-0.650000X-0.412500X0*%
%ADD20RoundRect,0.250000X-0.650000X0.412500X-0.650000X-0.412500X0.650000X-0.412500X0.650000X0.412500X0*%
%ADD21RoundRect,0.625000X-0.625000X2.375000X-0.625000X-2.375000X0.625000X-2.375000X0.625000X2.375000X0*%
%ADD22RoundRect,0.625000X-0.625000X3.625000X-0.625000X-3.625000X0.625000X-3.625000X0.625000X3.625000X0*%
%ADD23RoundRect,0.250000X0.412500X0.650000X-0.412500X0.650000X-0.412500X-0.650000X0.412500X-0.650000X0*%
%ADD24RoundRect,0.250000X-0.400000X-0.625000X0.400000X-0.625000X0.400000X0.625000X-0.400000X0.625000X0*%
%ADD25R,0.800000X1.800000*%
%ADD26RoundRect,0.250000X0.625000X-0.400000X0.625000X0.400000X-0.625000X0.400000X-0.625000X-0.400000X0*%
%ADD27R,1.200000X0.700000*%
%ADD28R,1.200000X0.760000*%
%ADD29R,1.200000X0.800000*%
%ADD30R,1.350000X1.800000*%
%ADD31R,1.500000X1.800000*%
%ADD32RoundRect,0.250000X0.250000X-0.250000X0.250000X0.250000X-0.250000X0.250000X-0.250000X-0.250000X0*%
%ADD33RoundRect,0.250000X-0.255000X-0.255000X0.255000X-0.255000X0.255000X0.255000X-0.255000X0.255000X0*%
%ADD34RoundRect,0.062500X-0.350000X-0.062500X0.350000X-0.062500X0.350000X0.062500X-0.350000X0.062500X0*%
%ADD35RoundRect,0.062500X-0.062500X-0.350000X0.062500X-0.350000X0.062500X0.350000X-0.062500X0.350000X0*%
%ADD36R,0.900000X0.900000*%
%ADD37R,1.105000X0.350000*%
%ADD38R,0.350000X1.105000*%
%ADD39R,1.560000X0.650000*%
%ADD40Outline4P,-1.800000X-1.150000X1.800000X-0.550000X1.800000X0.550000X-1.800000X1.150000X270.000000*%
%ADD41Outline4P,-1.800000X-1.150000X1.800000X-0.550000X1.800000X0.550000X-1.800000X1.150000X90.000000*%
%ADD42RoundRect,0.250000X0.900000X-1.500000X0.900000X1.500000X-0.900000X1.500000X-0.900000X-1.500000X0*%
%ADD43RoundRect,0.250000X-0.325000X-0.450000X0.325000X-0.450000X0.325000X0.450000X-0.325000X0.450000X0*%
%ADD44R,1.750000X0.450000*%
%ADD45R,0.650000X1.050000*%
%ADD46O,1.550000X0.890000*%
%ADD47O,0.950000X1.250000*%
%ADD48R,1.350000X0.400000*%
%ADD49R,1.550000X1.200000*%
%ADD50R,1.550000X1.500000*%
G04 APERTURE END LIST*
D10*
%TO.C,SW3*%
X101425000Y-92425000D03*
X105575000Y-92425000D03*
X105575000Y-94575000D03*
X101425000Y-94575000D03*
%TD*%
D11*
%TO.C,R39*%
X116550000Y-93500000D03*
X113450000Y-93500000D03*
%TD*%
D12*
%TO.C,U4*%
X90600000Y-102795000D03*
X89075000Y-102795000D03*
X87550000Y-102795000D03*
X90600000Y-104320000D03*
X89075000Y-104320000D03*
X87550000Y-104320000D03*
X90600000Y-105845000D03*
X89075000Y-105845000D03*
X87550000Y-105845000D03*
D13*
X81735000Y-94890000D03*
X83005000Y-94890000D03*
X84275000Y-94890000D03*
X85545000Y-94890000D03*
X86815000Y-94890000D03*
X88085000Y-94890000D03*
X89355000Y-94890000D03*
X90625000Y-94890000D03*
X91895000Y-94890000D03*
X93165000Y-94890000D03*
X94435000Y-94890000D03*
X95705000Y-94890000D03*
X96975000Y-94890000D03*
X98245000Y-94890000D03*
D14*
X99495000Y-97920000D03*
X99495000Y-99190000D03*
X99495000Y-100460000D03*
X99495000Y-101730000D03*
X99495000Y-103000000D03*
X99495000Y-104270000D03*
X99495000Y-105540000D03*
X99495000Y-106810000D03*
X99495000Y-108080000D03*
X99495000Y-109350000D03*
D13*
X98245000Y-112390000D03*
X96975000Y-112390000D03*
X95705000Y-112390000D03*
X94435000Y-112390000D03*
X93165000Y-112390000D03*
X91895000Y-112390000D03*
X90625000Y-112390000D03*
X89355000Y-112390000D03*
X88085000Y-112390000D03*
X86815000Y-112390000D03*
X85545000Y-112390000D03*
X84275000Y-112390000D03*
X83005000Y-112390000D03*
X81735000Y-112390000D03*
%TD*%
D15*
%TO.C,R10*%
X142500000Y-92400000D03*
X142500000Y-95500000D03*
%TD*%
D16*
%TO.C,U2*%
X146950000Y-88150000D03*
X146000000Y-88150000D03*
X145050000Y-88150000D03*
X145050000Y-90850000D03*
X146950000Y-90850000D03*
%TD*%
D17*
%TO.C,C7*%
X143037500Y-108000000D03*
X146162500Y-108000000D03*
%TD*%
D11*
%TO.C,R29*%
X110000000Y-112500000D03*
X106900000Y-112500000D03*
%TD*%
D18*
%TO.C,D2*%
X151562500Y-72000000D03*
X151562500Y-74050000D03*
%TD*%
D19*
%TO.C,C17*%
X159550000Y-35425000D03*
X159550000Y-32300000D03*
%TD*%
%TO.C,C6*%
X149500000Y-95562500D03*
X149500000Y-92437500D03*
%TD*%
D20*
%TO.C,C24*%
X65500000Y-38397500D03*
X65500000Y-41522500D03*
%TD*%
D15*
%TO.C,R9*%
X142500000Y-86400000D03*
X142500000Y-89500000D03*
%TD*%
D20*
%TO.C,C5*%
X139500000Y-97937500D03*
X139500000Y-101062500D03*
%TD*%
%TO.C,C23*%
X71500000Y-38397500D03*
X71500000Y-41522500D03*
%TD*%
D18*
%TO.C,D1*%
X146562500Y-71975000D03*
X146562500Y-74025000D03*
%TD*%
D21*
%TO.C,L1*%
X128600000Y-26350000D03*
D22*
X128600000Y-39250000D03*
D21*
X144500000Y-33500000D03*
%TD*%
D20*
%TO.C,C22*%
X55500000Y-34897500D03*
X55500000Y-38022500D03*
%TD*%
D23*
%TO.C,C11*%
X126675000Y-89000000D03*
X123550000Y-89000000D03*
%TD*%
D24*
%TO.C,R30*%
X102400000Y-115000000D03*
X105500000Y-115000000D03*
%TD*%
D25*
%TO.C,Q2*%
X109250000Y-106500000D03*
X107350000Y-106500000D03*
X108300000Y-109800000D03*
%TD*%
%TO.C,Q1*%
X109100000Y-97000000D03*
X111000000Y-97000000D03*
X110050000Y-93700000D03*
%TD*%
D19*
%TO.C,C12*%
X132000000Y-106187500D03*
X132000000Y-103062500D03*
%TD*%
D17*
%TO.C,C1*%
X149757500Y-54500000D03*
X152882500Y-54500000D03*
%TD*%
D24*
%TO.C,R31*%
X135512500Y-65000000D03*
X138612500Y-65000000D03*
%TD*%
D11*
%TO.C,R38*%
X150062500Y-51000000D03*
X146962500Y-51000000D03*
%TD*%
%TO.C,R34*%
X138612500Y-68000000D03*
X135512500Y-68000000D03*
%TD*%
D24*
%TO.C,R3*%
X157400000Y-62450000D03*
X160500000Y-62450000D03*
%TD*%
D26*
%TO.C,R6*%
X151562500Y-68050000D03*
X151562500Y-64950000D03*
%TD*%
D27*
%TO.C,J2*%
X161967500Y-110500000D03*
D28*
X161967500Y-108480000D03*
D29*
X161967500Y-107250000D03*
D27*
X161967500Y-109500000D03*
D28*
X161967500Y-111520000D03*
D29*
X161967500Y-112750000D03*
D30*
X162022500Y-115125000D03*
D31*
X165602500Y-115125000D03*
D30*
X162022500Y-104875000D03*
D31*
X165602500Y-104875000D03*
%TD*%
D19*
%TO.C,C14*%
X72200000Y-140562500D03*
X72200000Y-137437500D03*
%TD*%
D26*
%TO.C,R13*%
X135500000Y-109425000D03*
X135500000Y-106325000D03*
%TD*%
D11*
%TO.C,R32*%
X138612500Y-62000000D03*
X135512500Y-62000000D03*
%TD*%
D32*
%TO.C,D4*%
X139500000Y-95250000D03*
X139500000Y-92750000D03*
%TD*%
D33*
%TO.C,U1*%
X149875000Y-58875000D03*
X149875000Y-60125000D03*
X151125000Y-58875000D03*
X151125000Y-60125000D03*
D34*
X148562500Y-58500000D03*
X148562500Y-59000000D03*
X148562500Y-59500000D03*
X148562500Y-60000000D03*
X148562500Y-60500000D03*
D35*
X149500000Y-61437500D03*
X150000000Y-61437500D03*
X150500000Y-61437500D03*
X151000000Y-61437500D03*
X151500000Y-61437500D03*
D34*
X152437500Y-60500000D03*
X152437500Y-60000000D03*
X152437500Y-59500000D03*
X152437500Y-59000000D03*
X152437500Y-58500000D03*
D35*
X151500000Y-57562500D03*
X151000000Y-57562500D03*
X150500000Y-57562500D03*
X150000000Y-57562500D03*
X149500000Y-57562500D03*
%TD*%
D11*
%TO.C,R37*%
X155562500Y-51000000D03*
X152462500Y-51000000D03*
%TD*%
D26*
%TO.C,R7*%
X149062500Y-68050000D03*
X149062500Y-64950000D03*
%TD*%
D11*
%TO.C,R35*%
X138550000Y-74000000D03*
X135450000Y-74000000D03*
%TD*%
D20*
%TO.C,C2*%
X145062500Y-57487500D03*
X145062500Y-60612500D03*
%TD*%
D19*
%TO.C,C19*%
X147300000Y-42762500D03*
X147300000Y-39637500D03*
%TD*%
D24*
%TO.C,R33*%
X135512500Y-71000000D03*
X138612500Y-71000000D03*
%TD*%
D36*
%TO.C,U8*%
X60475000Y-36435000D03*
X60475000Y-37485000D03*
X61525000Y-36435000D03*
X61525000Y-37485000D03*
D37*
X59197500Y-35985000D03*
X59197500Y-36635000D03*
X59197500Y-37285000D03*
X59197500Y-37935000D03*
D38*
X60025000Y-38762500D03*
X60675000Y-38762500D03*
X61325000Y-38762500D03*
X61975000Y-38762500D03*
D37*
X62802500Y-37935000D03*
X62802500Y-37285000D03*
X62802500Y-36635000D03*
X62802500Y-35985000D03*
D38*
X61975000Y-35157500D03*
X61325000Y-35157500D03*
X60675000Y-35157500D03*
X60025000Y-35157500D03*
%TD*%
D24*
%TO.C,R27*%
X149950000Y-103000000D03*
X153050000Y-103000000D03*
%TD*%
D11*
%TO.C,R11*%
X157500000Y-111200000D03*
X154400000Y-111200000D03*
%TD*%
D24*
%TO.C,R4*%
X157400000Y-64950000D03*
X160500000Y-64950000D03*
%TD*%
D15*
%TO.C,R1*%
X141062500Y-54450000D03*
X141062500Y-57550000D03*
%TD*%
%TO.C,R19*%
X109500000Y-99750000D03*
X109500000Y-102850000D03*
%TD*%
D17*
%TO.C,C20*%
X150250000Y-46000000D03*
X153375000Y-46000000D03*
%TD*%
D19*
%TO.C,C16*%
X126700000Y-86362500D03*
X126700000Y-83237500D03*
%TD*%
D23*
%TO.C,C10*%
X126675000Y-92200000D03*
X123550000Y-92200000D03*
%TD*%
D15*
%TO.C,R2*%
X141062500Y-60500000D03*
X141062500Y-63600000D03*
%TD*%
D17*
%TO.C,C3*%
X157437500Y-60000000D03*
X160562500Y-60000000D03*
%TD*%
D39*
%TO.C,U7*%
X153262500Y-33412500D03*
X153262500Y-34362500D03*
X153262500Y-35312500D03*
X155962500Y-35312500D03*
X155962500Y-34362500D03*
X155962500Y-33412500D03*
%TD*%
D40*
%TO.C,D6*%
X148550000Y-30100000D03*
D41*
X148550000Y-35900000D03*
%TD*%
D19*
%TO.C,C21*%
X68700000Y-137562500D03*
X68700000Y-134437500D03*
%TD*%
D11*
%TO.C,R23*%
X153300000Y-39862500D03*
X150200000Y-39862500D03*
%TD*%
D23*
%TO.C,C8*%
X127162500Y-110600000D03*
X124037500Y-110600000D03*
%TD*%
D42*
%TO.C,D7*%
X117500000Y-37062500D03*
X117500000Y-31662500D03*
%TD*%
D43*
%TO.C,D5*%
X103475000Y-120000000D03*
X105525000Y-120000000D03*
%TD*%
D24*
%TO.C,R36*%
X135450000Y-77000000D03*
X138550000Y-77000000D03*
%TD*%
%TO.C,R28*%
X154450000Y-114300000D03*
X157550000Y-114300000D03*
%TD*%
%TO.C,R22*%
X150250000Y-42862500D03*
X153350000Y-42862500D03*
%TD*%
D20*
%TO.C,C15*%
X136400000Y-86437500D03*
X136400000Y-89562500D03*
%TD*%
D23*
%TO.C,C13*%
X84562500Y-119000000D03*
X81437500Y-119000000D03*
%TD*%
D44*
%TO.C,U5*%
X122000000Y-99175000D03*
X122000000Y-99825000D03*
X122000000Y-100475000D03*
X122000000Y-101125000D03*
X122000000Y-101775000D03*
X122000000Y-102425000D03*
X122000000Y-103075000D03*
X122000000Y-103725000D03*
X122000000Y-104375000D03*
X122000000Y-105025000D03*
X122000000Y-105675000D03*
X122000000Y-106325000D03*
X122000000Y-106975000D03*
X122000000Y-107625000D03*
X129200000Y-107625000D03*
X129200000Y-106975000D03*
X129200000Y-106325000D03*
X129200000Y-105675000D03*
X129200000Y-105025000D03*
X129200000Y-104375000D03*
X129200000Y-103725000D03*
X129200000Y-103075000D03*
X129200000Y-102425000D03*
X129200000Y-101775000D03*
X129200000Y-101125000D03*
X129200000Y-100475000D03*
X129200000Y-99825000D03*
X129200000Y-99175000D03*
%TD*%
D39*
%TO.C,U6*%
X132550000Y-86350000D03*
X132550000Y-85400000D03*
X132550000Y-84450000D03*
X129850000Y-84450000D03*
X129850000Y-86350000D03*
%TD*%
D11*
%TO.C,R12*%
X157500000Y-108210000D03*
X154400000Y-108210000D03*
%TD*%
D26*
%TO.C,R24*%
X72200000Y-146100000D03*
X72200000Y-143000000D03*
%TD*%
D11*
%TO.C,R26*%
X125550000Y-39000000D03*
X122450000Y-39000000D03*
%TD*%
D26*
%TO.C,R16*%
X91400000Y-118950000D03*
X91400000Y-115850000D03*
%TD*%
%TO.C,R15*%
X94500000Y-122050000D03*
X94500000Y-118950000D03*
%TD*%
D17*
%TO.C,C18*%
X153050000Y-30362500D03*
X156175000Y-30362500D03*
%TD*%
D23*
%TO.C,C9*%
X126675000Y-95550000D03*
X123550000Y-95550000D03*
%TD*%
D45*
%TO.C,SW1*%
X89075000Y-115500000D03*
X89075000Y-119650000D03*
X86925000Y-115500000D03*
X86925000Y-119650000D03*
%TD*%
D46*
%TO.C,J4*%
X166000000Y-129500000D03*
D47*
X163300000Y-128500000D03*
X163300000Y-123500000D03*
D46*
X166000000Y-122500000D03*
D48*
X163300000Y-127300000D03*
X163300000Y-126650000D03*
X163300000Y-126000000D03*
X163300000Y-125350000D03*
X163300000Y-124700000D03*
D49*
X166000000Y-128900000D03*
D50*
X166000000Y-127000000D03*
X166000000Y-125000000D03*
D49*
X166000000Y-123100000D03*
%TD*%
D18*
%TO.C,D3*%
X149062500Y-72000000D03*
X149062500Y-74050000D03*
%TD*%
D20*
%TO.C,C25*%
X68500000Y-38397500D03*
X68500000Y-41522500D03*
%TD*%
D24*
%TO.C,R17*%
X81450000Y-115500000D03*
X84550000Y-115500000D03*
%TD*%
D26*
%TO.C,R21*%
X65200000Y-146050000D03*
X65200000Y-142950000D03*
%TD*%
D15*
%TO.C,R8*%
X139500000Y-86450000D03*
X139500000Y-89550000D03*
%TD*%
D26*
%TO.C,R14*%
X135500000Y-103925000D03*
X135500000Y-100825000D03*
%TD*%
%TO.C,R20*%
X107000000Y-102850000D03*
X107000000Y-99750000D03*
%TD*%
%TO.C,R5*%
X146562500Y-68050000D03*
X146562500Y-64950000D03*
%TD*%
D39*
%TO.C,U3*%
X145150000Y-98050000D03*
X145150000Y-99000000D03*
X145150000Y-99950000D03*
X147850000Y-99950000D03*
X147850000Y-98050000D03*
%TD*%
D26*
%TO.C,R25*%
X68700000Y-146050000D03*
X68700000Y-142950000D03*
%TD*%
D24*
%TO.C,R18*%
X102400000Y-117500000D03*
X105500000Y-117500000D03*
%TD*%
D20*
%TO.C,C4*%
X149500000Y-86937500D03*
X149500000Y-90062500D03*
%TD*%
M02*
