%TF.GenerationSoftware,KiCad,Pcbnew,7.0.5-0*%
%TF.CreationDate,2024-03-26T18:43:31-04:00*%
%TF.ProjectId,PanneauSolaire,50616e6e-6561-4755-936f-6c616972652e,rev?*%
%TF.SameCoordinates,Original*%
%TF.FileFunction,Copper,L2,Bot*%
%TF.FilePolarity,Positive*%
%FSLAX46Y46*%
G04 Gerber Fmt 4.6, Leading zero omitted, Abs format (unit mm)*
G04 Created by KiCad (PCBNEW 7.0.5-0) date 2024-03-26 18:43:31*
%MOMM*%
%LPD*%
G01*
G04 APERTURE LIST*
G04 Aperture macros list*
%AMRoundRect*
0 Rectangle with rounded corners*
0 $1 Rounding radius*
0 $2 $3 $4 $5 $6 $7 $8 $9 X,Y pos of 4 corners*
0 Add a 4 corners polygon primitive as box body*
4,1,4,$2,$3,$4,$5,$6,$7,$8,$9,$2,$3,0*
0 Add four circle primitives for the rounded corners*
1,1,$1+$1,$2,$3*
1,1,$1+$1,$4,$5*
1,1,$1+$1,$6,$7*
1,1,$1+$1,$8,$9*
0 Add four rect primitives between the rounded corners*
20,1,$1+$1,$2,$3,$4,$5,0*
20,1,$1+$1,$4,$5,$6,$7,0*
20,1,$1+$1,$6,$7,$8,$9,0*
20,1,$1+$1,$8,$9,$2,$3,0*%
G04 Aperture macros list end*
%TA.AperFunction,ComponentPad*%
%ADD10R,1.700000X1.700000*%
%TD*%
%TA.AperFunction,ComponentPad*%
%ADD11O,1.700000X1.700000*%
%TD*%
%TA.AperFunction,ComponentPad*%
%ADD12R,2.000000X2.000000*%
%TD*%
%TA.AperFunction,ComponentPad*%
%ADD13C,2.000000*%
%TD*%
%TA.AperFunction,ComponentPad*%
%ADD14R,2.000000X3.200000*%
%TD*%
%TA.AperFunction,ComponentPad*%
%ADD15RoundRect,0.250000X1.550000X-0.650000X1.550000X0.650000X-1.550000X0.650000X-1.550000X-0.650000X0*%
%TD*%
%TA.AperFunction,ComponentPad*%
%ADD16O,3.600000X1.800000*%
%TD*%
%TA.AperFunction,ComponentPad*%
%ADD17R,1.500000X1.600000*%
%TD*%
%TA.AperFunction,ComponentPad*%
%ADD18C,1.600000*%
%TD*%
%TA.AperFunction,ComponentPad*%
%ADD19C,3.000000*%
%TD*%
%TA.AperFunction,ComponentPad*%
%ADD20O,1.550000X0.890000*%
%TD*%
%TA.AperFunction,ComponentPad*%
%ADD21O,0.950000X1.250000*%
%TD*%
%TA.AperFunction,ViaPad*%
%ADD22C,0.800000*%
%TD*%
%TA.AperFunction,Conductor*%
%ADD23C,0.381000*%
%TD*%
%TA.AperFunction,Conductor*%
%ADD24C,0.254000*%
%TD*%
%TA.AperFunction,Conductor*%
%ADD25C,0.508000*%
%TD*%
%TA.AperFunction,Conductor*%
%ADD26C,0.250000*%
%TD*%
G04 APERTURE END LIST*
D10*
%TO.P,J19,1,Pin_1*%
%TO.N,Net-(J19-Pin_1)*%
X164500000Y-79225000D03*
D11*
%TO.P,J19,2,Pin_2*%
%TO.N,MCP_LOAD*%
X164500000Y-81765000D03*
%TD*%
D12*
%TO.P,SW2,A,A*%
%TO.N,Net-(J17-Pin_3)*%
X56500000Y-137000000D03*
D13*
%TO.P,SW2,B,B*%
%TO.N,Net-(J17-Pin_4)*%
X51500000Y-137000000D03*
%TO.P,SW2,C,C*%
%TO.N,Net-(J17-Pin_5)*%
X54000000Y-137000000D03*
D14*
%TO.P,SW2,MP*%
%TO.N,N/C*%
X59600000Y-144500000D03*
X48400000Y-144500000D03*
D13*
%TO.P,SW2,S1,S1*%
%TO.N,Net-(J17-Pin_2)*%
X51500000Y-151500000D03*
%TO.P,SW2,S2,S2*%
%TO.N,Net-(J17-Pin_5)*%
X56500000Y-151500000D03*
%TD*%
D10*
%TO.P,TP4,1,1*%
%TO.N,Net-(J22-Pin_2)*%
X107500000Y-129000000D03*
%TD*%
%TO.P,J23,1,Pin_1*%
%TO.N,Net-(J23-Pin_1)*%
X120400000Y-89000000D03*
D11*
%TO.P,J23,2,Pin_2*%
%TO.N,3.3V*%
X117860000Y-89000000D03*
%TO.P,J23,3,Pin_3*%
%TO.N,unconnected-(J23-Pin_3-Pad3)*%
X115320000Y-89000000D03*
%TO.P,J23,4,Pin_4*%
%TO.N,GND*%
X112780000Y-89000000D03*
%TO.P,J23,5,Pin_5*%
%TO.N,AN1*%
X110240000Y-89000000D03*
%TO.P,J23,6,Pin_6*%
%TO.N,AN0*%
X107700000Y-89000000D03*
%TO.P,J23,7,Pin_7*%
%TO.N,RST*%
X105160000Y-89000000D03*
%TO.P,J23,8,Pin_8*%
%TO.N,SW*%
X102620000Y-89000000D03*
%TO.P,J23,9,Pin_9*%
%TO.N,DC*%
X100080000Y-89000000D03*
%TO.P,J23,10,Pin_10*%
%TO.N,BL*%
X97540000Y-89000000D03*
%TO.P,J23,11,Pin_11*%
%TO.N,SCK*%
X95000000Y-89000000D03*
%TO.P,J23,12,Pin_12*%
%TO.N,MOSI*%
X92460000Y-89000000D03*
%TO.P,J23,13,Pin_13*%
%TO.N,MISO*%
X89920000Y-89000000D03*
%TO.P,J23,14,Pin_14*%
%TO.N,RXD2*%
X87380000Y-89000000D03*
%TO.P,J23,15,Pin_15*%
%TO.N,TXD2*%
X84840000Y-89000000D03*
%TO.P,J23,16,Pin_16*%
%TO.N,CS*%
X82300000Y-89000000D03*
%TD*%
D10*
%TO.P,J11,1,Pin_1*%
%TO.N,3.3V*%
X138075000Y-145500000D03*
D11*
%TO.P,J11,2,Pin_2*%
%TO.N,SW*%
X135535000Y-145500000D03*
%TO.P,J11,3,Pin_3*%
%TO.N,A*%
X132995000Y-145500000D03*
%TO.P,J11,4,Pin_4*%
%TO.N,B*%
X130455000Y-145500000D03*
%TO.P,J11,5,Pin_5*%
%TO.N,GND*%
X127915000Y-145500000D03*
%TD*%
D10*
%TO.P,J15,1,Pin_1*%
%TO.N,+6V*%
X120050000Y-43362500D03*
%TD*%
%TO.P,TP5,1,1*%
%TO.N,Net-(J22-Pin_3)*%
X105000000Y-132000000D03*
%TD*%
D15*
%TO.P,J1,1,Pin_1*%
%TO.N,Net-(J1-Pin_1)*%
X164067500Y-38712500D03*
D16*
%TO.P,J1,2,Pin_2*%
%TO.N,GND*%
X164067500Y-34902500D03*
%TD*%
D10*
%TO.P,J17,1,Pin_1*%
%TO.N,Net-(J17-Pin_1)*%
X77200000Y-146660000D03*
D11*
%TO.P,J17,2,Pin_2*%
%TO.N,Net-(J17-Pin_2)*%
X77200000Y-144120000D03*
%TO.P,J17,3,Pin_3*%
%TO.N,Net-(J17-Pin_3)*%
X77200000Y-141580000D03*
%TO.P,J17,4,Pin_4*%
%TO.N,Net-(J17-Pin_4)*%
X77200000Y-139040000D03*
%TO.P,J17,5,Pin_5*%
%TO.N,Net-(J17-Pin_5)*%
X77200000Y-136500000D03*
%TD*%
D10*
%TO.P,J18,1,Pin_1*%
%TO.N,unconnected-(J18-Pin_1-Pad1)*%
X132500000Y-59525000D03*
D11*
%TO.P,J18,2,Pin_2*%
%TO.N,Net-(D1-A)*%
X132500000Y-56985000D03*
%TO.P,J18,3,Pin_3*%
%TO.N,+6V*%
X132500000Y-54445000D03*
%TD*%
D10*
%TO.P,J10,1,Pin_1*%
%TO.N,3.3V*%
X117650000Y-77500000D03*
D11*
%TO.P,J10,2,Pin_2*%
%TO.N,GND*%
X115110000Y-77500000D03*
%TO.P,J10,3,Pin_3*%
%TO.N,SCK*%
X112570000Y-77500000D03*
%TO.P,J10,4,Pin_4*%
%TO.N,MOSI*%
X110030000Y-77500000D03*
%TO.P,J10,5,Pin_5*%
%TO.N,MISO*%
X107490000Y-77500000D03*
%TO.P,J10,6,Pin_6*%
%TO.N,CS*%
X104950000Y-77500000D03*
%TO.P,J10,7,Pin_7*%
%TO.N,RST*%
X102410000Y-77500000D03*
%TO.P,J10,8,Pin_8*%
%TO.N,DC*%
X99870000Y-77500000D03*
%TO.P,J10,9,Pin_9*%
%TO.N,BL*%
X97330000Y-77500000D03*
%TD*%
D10*
%TO.P,J7,1,Pin_1*%
%TO.N,PWM1*%
X87420000Y-145500000D03*
D11*
%TO.P,J7,2,Pin_2*%
%TO.N,3.3V*%
X89960000Y-145500000D03*
%TO.P,J7,3,Pin_3*%
%TO.N,GND*%
X92500000Y-145500000D03*
%TD*%
D10*
%TO.P,J16,1,Pin_1*%
%TO.N,GND*%
X120050000Y-25862500D03*
%TD*%
%TO.P,J3,1,Pin_1*%
%TO.N,BATT*%
X164500000Y-57040000D03*
D11*
%TO.P,J3,2,Pin_2*%
%TO.N,GND*%
X164500000Y-54500000D03*
%TO.P,J3,3,Pin_3*%
X164500000Y-51960000D03*
%TO.P,J3,4,Pin_4*%
%TO.N,THERM*%
X164500000Y-49420000D03*
%TD*%
D10*
%TO.P,TP3,1,1*%
%TO.N,Net-(J23-Pin_1)*%
X120500000Y-85000000D03*
%TD*%
%TO.P,J9,1,Pin_1*%
%TO.N,3.3V*%
X121540000Y-145500000D03*
D11*
%TO.P,J9,2,Pin_2*%
%TO.N,AN0*%
X119000000Y-145500000D03*
%TO.P,J9,3,Pin_3*%
%TO.N,AN1*%
X116460000Y-145500000D03*
%TO.P,J9,4,Pin_4*%
%TO.N,AN2*%
X113920000Y-145500000D03*
%TO.P,J9,5,Pin_5*%
%TO.N,GND*%
X111380000Y-145500000D03*
%TD*%
D10*
%TO.P,J20,1,Pin_1*%
%TO.N,Net-(J20-Pin_1)*%
X77500000Y-32420000D03*
D11*
%TO.P,J20,2,Pin_2*%
%TO.N,Net-(J20-Pin_2)*%
X77500000Y-34960000D03*
%TO.P,J20,3,Pin_3*%
%TO.N,Net-(J20-Pin_3)*%
X77500000Y-37500000D03*
%TO.P,J20,4,Pin_4*%
%TO.N,Net-(J20-Pin_4)*%
X77500000Y-40040000D03*
%TO.P,J20,5,Pin_5*%
%TO.N,Net-(J20-Pin_5)*%
X77500000Y-42580000D03*
%TD*%
D17*
%TO.P,J13,1,VBUS*%
%TO.N,VBUS*%
X155140000Y-98000000D03*
D18*
%TO.P,J13,2,D-*%
%TO.N,unconnected-(J13-D--Pad2)*%
X155140000Y-95500000D03*
%TO.P,J13,3,D+*%
%TO.N,unconnected-(J13-D+-Pad3)*%
X155140000Y-93500000D03*
%TO.P,J13,4,GND*%
%TO.N,GND*%
X155140000Y-91000000D03*
D19*
%TO.P,J13,5,Shield*%
%TO.N,Net-(J13-Shield)*%
X157850000Y-101070000D03*
X157850000Y-87930000D03*
%TD*%
D10*
%TO.P,J14,1,Pin_1*%
%TO.N,GND*%
X159550000Y-25862500D03*
%TD*%
%TO.P,J21,1,Pin_1*%
%TO.N,Net-(J21-Pin_1)*%
X51680000Y-36460000D03*
%TD*%
%TO.P,J8,1,Pin_1*%
%TO.N,3.3V*%
X82500000Y-138680000D03*
D11*
%TO.P,J8,2,Pin_2*%
%TO.N,SCL*%
X82500000Y-136140000D03*
%TO.P,J8,3,Pin_3*%
%TO.N,SDA*%
X82500000Y-133600000D03*
%TO.P,J8,4,Pin_4*%
%TO.N,GND*%
X82500000Y-131060000D03*
%TD*%
D20*
%TO.P,J4,6,Shield*%
%TO.N,GND*%
X166000000Y-129500000D03*
D21*
X163300000Y-128500000D03*
X163300000Y-123500000D03*
D20*
X166000000Y-122500000D03*
%TD*%
D10*
%TO.P,J5,1,Pin_1*%
%TO.N,3.3V*%
X92700000Y-56000000D03*
D11*
%TO.P,J5,2,Pin_2*%
%TO.N,TXD2*%
X95240000Y-56000000D03*
%TO.P,J5,3,Pin_3*%
%TO.N,RXD2*%
X97780000Y-56000000D03*
%TO.P,J5,4,Pin_4*%
%TO.N,GND*%
X100320000Y-56000000D03*
%TD*%
D10*
%TO.P,J12,1,Pin_1*%
%TO.N,Net-(J1-Pin_1)*%
X159550000Y-43362500D03*
%TD*%
%TO.P,J6,1,Pin_1*%
%TO.N,PWM0*%
X99920000Y-145500000D03*
D11*
%TO.P,J6,2,Pin_2*%
%TO.N,3.3V*%
X102460000Y-145500000D03*
%TO.P,J6,3,Pin_3*%
%TO.N,GND*%
X105000000Y-145500000D03*
%TD*%
D10*
%TO.P,TP1,1,1*%
%TO.N,Net-(J22-Pin_8)*%
X92500000Y-130500000D03*
%TD*%
%TO.P,J22,1,Pin_1*%
%TO.N,BATT*%
X110180000Y-125000000D03*
D11*
%TO.P,J22,2,Pin_2*%
%TO.N,Net-(J22-Pin_2)*%
X107640000Y-125000000D03*
%TO.P,J22,3,Pin_3*%
%TO.N,Net-(J22-Pin_3)*%
X105100000Y-125000000D03*
%TO.P,J22,4,Pin_4*%
%TO.N,LED*%
X102560000Y-125000000D03*
%TO.P,J22,5,Pin_5*%
%TO.N,PWM0*%
X100020000Y-125000000D03*
%TO.P,J22,6,Pin_6*%
%TO.N,AN2*%
X97480000Y-125000000D03*
%TO.P,J22,7,Pin_7*%
%TO.N,B*%
X94940000Y-125000000D03*
%TO.P,J22,8,Pin_8*%
%TO.N,Net-(J22-Pin_8)*%
X92400000Y-125000000D03*
%TO.P,J22,9,Pin_9*%
%TO.N,A*%
X89860000Y-125000000D03*
%TO.P,J22,10,Pin_10*%
%TO.N,PWM1*%
X87320000Y-125000000D03*
%TO.P,J22,11,Pin_11*%
%TO.N,SCL*%
X84780000Y-125000000D03*
%TO.P,J22,12,Pin_12*%
%TO.N,SDA*%
X82240000Y-125000000D03*
%TD*%
D22*
%TO.N,GND*%
X97000000Y-98500000D03*
X98500000Y-93000000D03*
X153882500Y-61875000D03*
X125000000Y-97500000D03*
X101000000Y-113500000D03*
X93000000Y-117000000D03*
X151500000Y-37000000D03*
X145000000Y-94000000D03*
X143000000Y-60500000D03*
X137000000Y-94000000D03*
X132000000Y-97500000D03*
X86000000Y-121000000D03*
X159500000Y-30000000D03*
X160000000Y-54500000D03*
X143000000Y-65500000D03*
X126700000Y-81700000D03*
X134050000Y-85400000D03*
X124500000Y-134250000D03*
X86000000Y-110500000D03*
X93000000Y-110500000D03*
X133000000Y-65000000D03*
X132500000Y-71000000D03*
X121500000Y-92000000D03*
X104000000Y-113500000D03*
X124500000Y-129750000D03*
%TO.N,THERM*%
X148562500Y-62437500D03*
%TO.N,PG*%
X132500000Y-110000000D03*
X146562500Y-66500000D03*
%TO.N,3.3V*%
X83000000Y-115500000D03*
%TO.N,SW*%
X89355000Y-113855000D03*
X89355000Y-110500000D03*
%TO.N,A*%
X90625000Y-113875000D03*
%TO.N,B*%
X91895000Y-113895000D03*
%TO.N,AN0*%
X100813200Y-117000000D03*
%TO.N,AN1*%
X94500000Y-110500000D03*
X99000000Y-116000000D03*
X106500000Y-91000000D03*
%TO.N,AN2*%
X97793200Y-115000000D03*
%TO.N,PWM1*%
X92688200Y-122500000D03*
X97000000Y-114000000D03*
%TO.N,PWM0*%
X98245000Y-114000000D03*
%TO.N,LED*%
X100813200Y-118502703D03*
%TO.N,DC*%
X101310000Y-99190000D03*
%TO.N,RST*%
X103420000Y-97920000D03*
%TO.N,RXD2*%
X95705000Y-93000000D03*
%TO.N,TXD2*%
X94435000Y-93065000D03*
%TO.N,SCL*%
X84300000Y-96500000D03*
%TO.N,SDA*%
X83000000Y-96500000D03*
%TO.N,Net-(J17-Pin_3)*%
X70262500Y-140562500D03*
%TO.N,Net-(J20-Pin_5)*%
X83000000Y-42500000D03*
%TO.N,Net-(J20-Pin_2)*%
X74000000Y-38460000D03*
%TO.N,Net-(D1-A)*%
X144445000Y-73875000D03*
%TO.N,Net-(J17-Pin_1)*%
X82160000Y-146660000D03*
%TO.N,Net-(U2-OUT)*%
X143000000Y-100000000D03*
X147000000Y-86000000D03*
%TD*%
D23*
%TO.N,GND*%
X98000000Y-98500000D02*
X98500000Y-98000000D01*
X98500000Y-98000000D02*
X98500000Y-93000000D01*
X97000000Y-98500000D02*
X98000000Y-98500000D01*
%TO.N,AN1*%
X106500000Y-109500000D02*
X105500000Y-110500000D01*
X105500000Y-110500000D02*
X94500000Y-110500000D01*
X106500000Y-91000000D02*
X106500000Y-109500000D01*
D24*
%TO.N,GND*%
X134050000Y-85400000D02*
X134000000Y-85350000D01*
X134000000Y-85350000D02*
X134000000Y-82500000D01*
X132000000Y-97500000D02*
X125000000Y-97500000D01*
X134000000Y-82500000D02*
X133200000Y-81700000D01*
D25*
X104000000Y-113500000D02*
X101000000Y-113500000D01*
X125000000Y-92500000D02*
X124500000Y-92000000D01*
X93000000Y-110500000D02*
X93000000Y-117000000D01*
X124500000Y-129750000D02*
X124500000Y-134250000D01*
X124500000Y-92000000D02*
X121500000Y-92000000D01*
D23*
X86000000Y-110500000D02*
X86000000Y-121000000D01*
D24*
X133200000Y-81700000D02*
X126700000Y-81700000D01*
D25*
X125000000Y-97500000D02*
X125000000Y-92500000D01*
D24*
%TO.N,THERM*%
X148500000Y-50000000D02*
X149080000Y-49420000D01*
X149080000Y-49420000D02*
X164500000Y-49420000D01*
X148500000Y-62375000D02*
X148500000Y-50000000D01*
X148562500Y-62437500D02*
X148500000Y-62375000D01*
%TO.N,PG*%
X148000000Y-67000000D02*
X148000000Y-109500000D01*
D23*
X147500000Y-110000000D02*
X148000000Y-109500000D01*
D24*
X147500000Y-66500000D02*
X148000000Y-67000000D01*
X146562500Y-66500000D02*
X147500000Y-66500000D01*
D23*
X147500000Y-110000000D02*
X132500000Y-110000000D01*
%TO.N,SW*%
X97000000Y-151000000D02*
X134500000Y-151000000D01*
X95000000Y-143000000D02*
X96000000Y-144000000D01*
X89500000Y-143000000D02*
X95000000Y-143000000D01*
X90000000Y-108000000D02*
X89355000Y-108645000D01*
X102620000Y-107380000D02*
X102000000Y-108000000D01*
X89355000Y-108645000D02*
X89355000Y-110500000D01*
X135535000Y-149965000D02*
X135535000Y-145500000D01*
X88616300Y-114593700D02*
X88616300Y-142116300D01*
X102620000Y-89000000D02*
X102620000Y-107380000D01*
X134500000Y-151000000D02*
X135535000Y-149965000D01*
X96000000Y-144000000D02*
X96000000Y-150000000D01*
X88616300Y-142116300D02*
X89500000Y-143000000D01*
X102000000Y-108000000D02*
X90000000Y-108000000D01*
X96000000Y-150000000D02*
X97000000Y-151000000D01*
X89355000Y-113855000D02*
X88616300Y-114593700D01*
%TO.N,A*%
X90500000Y-124360000D02*
X89860000Y-125000000D01*
X90625000Y-113875000D02*
X90500000Y-114000000D01*
X90500000Y-114000000D02*
X90500000Y-124360000D01*
%TO.N,B*%
X94500000Y-123500000D02*
X94940000Y-123940000D01*
X92500000Y-123500000D02*
X94500000Y-123500000D01*
X91895000Y-113895000D02*
X91895000Y-122895000D01*
X91895000Y-122895000D02*
X92500000Y-123500000D01*
X94940000Y-123940000D02*
X94940000Y-125000000D01*
%TO.N,AN0*%
X101313200Y-117500000D02*
X108000000Y-117500000D01*
X107700000Y-117200000D02*
X108000000Y-117500000D01*
X100813200Y-117000000D02*
X101313200Y-117500000D01*
X107700000Y-89000000D02*
X107700000Y-117200000D01*
X108000000Y-117500000D02*
X118000000Y-117500000D01*
X119000000Y-118500000D02*
X119000000Y-145500000D01*
X118000000Y-117500000D02*
X119000000Y-118500000D01*
%TO.N,AN1*%
X116460000Y-143540000D02*
X116460000Y-145500000D01*
X115500000Y-142500000D02*
X116500000Y-143500000D01*
X98776300Y-116223700D02*
X98776300Y-141276300D01*
X98776300Y-141276300D02*
X100000000Y-142500000D01*
X100000000Y-142500000D02*
X115500000Y-142500000D01*
X99000000Y-116000000D02*
X98776300Y-116223700D01*
X116500000Y-143500000D02*
X116460000Y-143540000D01*
%TO.N,AN2*%
X97793200Y-124686800D02*
X97480000Y-125000000D01*
X97793200Y-115000000D02*
X97793200Y-124686800D01*
%TO.N,PWM1*%
X96000000Y-122500000D02*
X97000000Y-121500000D01*
X87420000Y-125100000D02*
X87320000Y-125000000D01*
X87420000Y-145500000D02*
X87420000Y-125100000D01*
X92688200Y-122500000D02*
X96000000Y-122500000D01*
X87320000Y-145400000D02*
X87420000Y-145500000D01*
X97000000Y-121500000D02*
X97000000Y-114000000D01*
%TO.N,PWM0*%
X100020000Y-114520000D02*
X100020000Y-125000000D01*
X100020000Y-145400000D02*
X99920000Y-145500000D01*
X99500000Y-114000000D02*
X100020000Y-114520000D01*
X98245000Y-114000000D02*
X99500000Y-114000000D01*
%TO.N,LED*%
X100813200Y-118502703D02*
X101500000Y-119189503D01*
X101500000Y-119189503D02*
X101500000Y-123940000D01*
X101500000Y-123940000D02*
X102560000Y-125000000D01*
%TO.N,DC*%
X101310000Y-90230000D02*
X101310000Y-99190000D01*
X100080000Y-89000000D02*
X101310000Y-90230000D01*
%TO.N,RST*%
X103420000Y-97920000D02*
X103500000Y-98000000D01*
X105160000Y-97340000D02*
X105160000Y-89000000D01*
X104500000Y-98000000D02*
X105160000Y-97340000D01*
X103500000Y-98000000D02*
X104500000Y-98000000D01*
D26*
%TO.N,RXD2*%
X97780000Y-73220000D02*
X97780000Y-56000000D01*
D25*
X87380000Y-90880000D02*
X87380000Y-89000000D01*
X95000000Y-91500000D02*
X88000000Y-91500000D01*
X95705000Y-92205000D02*
X95000000Y-91500000D01*
D26*
X87380000Y-74620000D02*
X88000000Y-74000000D01*
X88000000Y-74000000D02*
X97000000Y-74000000D01*
X87380000Y-89000000D02*
X87380000Y-74620000D01*
X97000000Y-74000000D02*
X97780000Y-73220000D01*
D25*
X88000000Y-91500000D02*
X87380000Y-90880000D01*
X95705000Y-93000000D02*
X95705000Y-92205000D01*
%TO.N,TXD2*%
X84840000Y-92340000D02*
X84840000Y-89000000D01*
D26*
X84840000Y-73410000D02*
X85750000Y-72500000D01*
X95240000Y-71760000D02*
X95240000Y-56000000D01*
X85750000Y-72500000D02*
X94500000Y-72500000D01*
D25*
X94435000Y-93065000D02*
X94370000Y-93000000D01*
X85500000Y-93000000D02*
X84840000Y-92340000D01*
D26*
X84840000Y-89000000D02*
X84840000Y-73410000D01*
D25*
X94370000Y-93000000D02*
X85500000Y-93000000D01*
D26*
X94500000Y-72500000D02*
X95240000Y-71760000D01*
D23*
%TO.N,SCK*%
X95000000Y-83500000D02*
X95500000Y-83000000D01*
X95500000Y-83000000D02*
X112000000Y-83000000D01*
X95000000Y-89000000D02*
X95000000Y-83500000D01*
X112000000Y-83000000D02*
X112570000Y-82430000D01*
X112570000Y-82430000D02*
X112570000Y-77500000D01*
%TO.N,MOSI*%
X92460000Y-83040000D02*
X93500000Y-82000000D01*
X109500000Y-82000000D02*
X110030000Y-81470000D01*
X92460000Y-89000000D02*
X92460000Y-83040000D01*
X110030000Y-81470000D02*
X110030000Y-77500000D01*
X93500000Y-82000000D02*
X109500000Y-82000000D01*
%TO.N,MISO*%
X107490000Y-80010000D02*
X107490000Y-77500000D01*
X106500000Y-81000000D02*
X107490000Y-80010000D01*
X89920000Y-89000000D02*
X89920000Y-82080000D01*
X91000000Y-81000000D02*
X106500000Y-81000000D01*
X89920000Y-82080000D02*
X91000000Y-81000000D01*
%TO.N,SCL*%
X84780000Y-125000000D02*
X86000000Y-126220000D01*
X86000000Y-135500000D02*
X86000000Y-126220000D01*
X84780000Y-96980000D02*
X84300000Y-96500000D01*
X84780000Y-125000000D02*
X84780000Y-96980000D01*
X86000000Y-135500000D02*
X85360000Y-136140000D01*
X85360000Y-136140000D02*
X83000000Y-136140000D01*
%TO.N,SDA*%
X83900000Y-97400000D02*
X83000000Y-96500000D01*
X82240000Y-125000000D02*
X83900000Y-123340000D01*
X85000000Y-133000000D02*
X85000000Y-127760000D01*
X84400000Y-133600000D02*
X82500000Y-133600000D01*
X83900000Y-123340000D02*
X83900000Y-97400000D01*
X85000000Y-133000000D02*
X84400000Y-133600000D01*
X82240000Y-125000000D02*
X85000000Y-127760000D01*
%TO.N,Net-(J17-Pin_3)*%
X56500000Y-137000000D02*
X56500000Y-139800000D01*
X70200000Y-140500000D02*
X70262500Y-140562500D01*
X57200000Y-140500000D02*
X70200000Y-140500000D01*
X56500000Y-139800000D02*
X57200000Y-140500000D01*
D25*
%TO.N,Net-(J17-Pin_5)*%
X54000000Y-150800000D02*
X54000000Y-137000000D01*
X56500000Y-151500000D02*
X54700000Y-151500000D01*
X54700000Y-151500000D02*
X54000000Y-150800000D01*
D23*
%TO.N,Net-(J20-Pin_2)*%
X74000000Y-38460000D02*
X74000000Y-35460000D01*
X74500000Y-34960000D02*
X77500000Y-34960000D01*
X74000000Y-35460000D02*
X74500000Y-34960000D01*
%TO.N,Net-(D1-A)*%
X129500000Y-58000000D02*
X130515000Y-56985000D01*
X144445000Y-73875000D02*
X130375000Y-73875000D01*
X130515000Y-56985000D02*
X132500000Y-56985000D01*
X129500000Y-73000000D02*
X129500000Y-58000000D01*
X130375000Y-73875000D02*
X129500000Y-73000000D01*
%TO.N,Net-(U2-OUT)*%
X147000000Y-86000000D02*
X147000000Y-99500000D01*
X147000000Y-99500000D02*
X146500000Y-100000000D01*
X146500000Y-100000000D02*
X143000000Y-100000000D01*
%TD*%
%TA.AperFunction,Conductor*%
%TO.N,GND*%
G36*
X168442539Y-22520185D02*
G01*
X168488294Y-22572989D01*
X168499500Y-22624500D01*
X168499500Y-47000000D01*
X115124000Y-47000000D01*
X115056961Y-46980315D01*
X115011206Y-46927511D01*
X115000000Y-46876000D01*
X115000000Y-44260370D01*
X118699500Y-44260370D01*
X118699501Y-44260376D01*
X118705908Y-44319983D01*
X118756202Y-44454828D01*
X118756206Y-44454835D01*
X118842452Y-44570044D01*
X118842455Y-44570047D01*
X118957664Y-44656293D01*
X118957671Y-44656297D01*
X119092517Y-44706591D01*
X119092516Y-44706591D01*
X119099444Y-44707335D01*
X119152127Y-44713000D01*
X120947872Y-44712999D01*
X121007483Y-44706591D01*
X121142331Y-44656296D01*
X121257546Y-44570046D01*
X121343796Y-44454831D01*
X121394091Y-44319983D01*
X121400500Y-44260373D01*
X121400500Y-44260370D01*
X158199500Y-44260370D01*
X158199501Y-44260376D01*
X158205908Y-44319983D01*
X158256202Y-44454828D01*
X158256206Y-44454835D01*
X158342452Y-44570044D01*
X158342455Y-44570047D01*
X158457664Y-44656293D01*
X158457671Y-44656297D01*
X158592517Y-44706591D01*
X158592516Y-44706591D01*
X158599444Y-44707335D01*
X158652127Y-44713000D01*
X160447872Y-44712999D01*
X160507483Y-44706591D01*
X160642331Y-44656296D01*
X160757546Y-44570046D01*
X160843796Y-44454831D01*
X160894091Y-44319983D01*
X160900500Y-44260373D01*
X160900499Y-42464628D01*
X160894091Y-42405017D01*
X160843796Y-42270169D01*
X160843795Y-42270168D01*
X160843793Y-42270164D01*
X160757547Y-42154955D01*
X160757544Y-42154952D01*
X160642335Y-42068706D01*
X160642328Y-42068702D01*
X160507482Y-42018408D01*
X160507483Y-42018408D01*
X160447883Y-42012001D01*
X160447881Y-42012000D01*
X160447873Y-42012000D01*
X160447864Y-42012000D01*
X158652129Y-42012000D01*
X158652123Y-42012001D01*
X158592516Y-42018408D01*
X158457671Y-42068702D01*
X158457664Y-42068706D01*
X158342455Y-42154952D01*
X158342452Y-42154955D01*
X158256206Y-42270164D01*
X158256202Y-42270171D01*
X158205908Y-42405017D01*
X158199501Y-42464616D01*
X158199501Y-42464623D01*
X158199500Y-42464635D01*
X158199500Y-44260370D01*
X121400500Y-44260370D01*
X121400499Y-42464628D01*
X121394091Y-42405017D01*
X121343796Y-42270169D01*
X121343795Y-42270168D01*
X121343793Y-42270164D01*
X121257547Y-42154955D01*
X121257544Y-42154952D01*
X121142335Y-42068706D01*
X121142328Y-42068702D01*
X121007482Y-42018408D01*
X121007483Y-42018408D01*
X120947883Y-42012001D01*
X120947881Y-42012000D01*
X120947873Y-42012000D01*
X120947864Y-42012000D01*
X119152129Y-42012000D01*
X119152123Y-42012001D01*
X119092516Y-42018408D01*
X118957671Y-42068702D01*
X118957664Y-42068706D01*
X118842455Y-42154952D01*
X118842452Y-42154955D01*
X118756206Y-42270164D01*
X118756202Y-42270171D01*
X118705908Y-42405017D01*
X118699501Y-42464616D01*
X118699501Y-42464623D01*
X118699500Y-42464635D01*
X118699500Y-44260370D01*
X115000000Y-44260370D01*
X115000000Y-39412501D01*
X161767000Y-39412501D01*
X161767001Y-39412518D01*
X161777500Y-39515296D01*
X161777501Y-39515299D01*
X161832685Y-39681831D01*
X161832686Y-39681834D01*
X161924788Y-39831156D01*
X162048844Y-39955212D01*
X162198166Y-40047314D01*
X162364703Y-40102499D01*
X162467491Y-40113000D01*
X165667508Y-40112999D01*
X165770297Y-40102499D01*
X165936834Y-40047314D01*
X166086156Y-39955212D01*
X166210212Y-39831156D01*
X166302314Y-39681834D01*
X166357499Y-39515297D01*
X166368000Y-39412509D01*
X166367999Y-38012492D01*
X166357499Y-37909703D01*
X166302314Y-37743166D01*
X166210212Y-37593844D01*
X166086156Y-37469788D01*
X165936834Y-37377686D01*
X165770297Y-37322501D01*
X165770295Y-37322500D01*
X165667510Y-37312000D01*
X162467498Y-37312000D01*
X162467481Y-37312001D01*
X162364703Y-37322500D01*
X162364700Y-37322501D01*
X162198168Y-37377685D01*
X162198163Y-37377687D01*
X162048842Y-37469789D01*
X161924789Y-37593842D01*
X161832687Y-37743163D01*
X161832685Y-37743166D01*
X161832686Y-37743166D01*
X161777501Y-37909703D01*
X161777501Y-37909704D01*
X161777500Y-37909704D01*
X161767000Y-38012483D01*
X161767000Y-39412501D01*
X115000000Y-39412501D01*
X115000000Y-34652500D01*
X161788082Y-34652500D01*
X163521618Y-34652500D01*
X163482944Y-34745869D01*
X163462323Y-34902500D01*
X163482944Y-35059131D01*
X163521618Y-35152500D01*
X161789234Y-35152500D01*
X161824025Y-35313933D01*
X161912883Y-35535062D01*
X162037833Y-35737994D01*
X162195280Y-35916889D01*
X162195286Y-35916896D01*
X162380694Y-36066602D01*
X162380704Y-36066609D01*
X162588748Y-36182831D01*
X162813447Y-36262222D01*
X162813461Y-36262226D01*
X163048332Y-36302499D01*
X163048343Y-36302500D01*
X163817500Y-36302500D01*
X163817500Y-35448381D01*
X163910869Y-35487056D01*
X164028177Y-35502500D01*
X164106823Y-35502500D01*
X164224131Y-35487056D01*
X164317500Y-35448381D01*
X164317500Y-36302500D01*
X165026972Y-36302500D01*
X165026991Y-36302499D01*
X165204950Y-36287352D01*
X165204953Y-36287351D01*
X165435578Y-36227302D01*
X165652741Y-36129139D01*
X165652744Y-36129137D01*
X165850188Y-35995687D01*
X165850190Y-35995685D01*
X166022236Y-35830793D01*
X166163950Y-35639183D01*
X166271242Y-35426384D01*
X166341024Y-35198520D01*
X166346918Y-35152500D01*
X164613382Y-35152500D01*
X164652056Y-35059131D01*
X164672677Y-34902500D01*
X164652056Y-34745869D01*
X164613382Y-34652500D01*
X166345766Y-34652500D01*
X166345765Y-34652499D01*
X166310974Y-34491066D01*
X166222116Y-34269937D01*
X166097166Y-34067005D01*
X165939719Y-33888110D01*
X165939713Y-33888103D01*
X165754305Y-33738397D01*
X165754295Y-33738390D01*
X165546251Y-33622168D01*
X165321552Y-33542777D01*
X165321538Y-33542773D01*
X165086667Y-33502500D01*
X164317500Y-33502500D01*
X164317500Y-34356618D01*
X164224131Y-34317944D01*
X164106823Y-34302500D01*
X164028177Y-34302500D01*
X163910869Y-34317944D01*
X163817500Y-34356618D01*
X163817500Y-33502500D01*
X163108008Y-33502500D01*
X162930049Y-33517647D01*
X162930046Y-33517648D01*
X162699421Y-33577697D01*
X162482258Y-33675860D01*
X162482255Y-33675862D01*
X162284811Y-33809312D01*
X162284809Y-33809314D01*
X162112763Y-33974206D01*
X161971049Y-34165816D01*
X161863757Y-34378615D01*
X161793975Y-34606479D01*
X161788082Y-34652500D01*
X115000000Y-34652500D01*
X115000000Y-26760344D01*
X118700000Y-26760344D01*
X118706401Y-26819872D01*
X118706403Y-26819879D01*
X118756645Y-26954586D01*
X118756649Y-26954593D01*
X118842809Y-27069687D01*
X118842812Y-27069690D01*
X118957906Y-27155850D01*
X118957913Y-27155854D01*
X119092620Y-27206096D01*
X119092627Y-27206098D01*
X119152155Y-27212499D01*
X119152172Y-27212500D01*
X119800000Y-27212500D01*
X119800000Y-26298001D01*
X119907685Y-26347180D01*
X120014237Y-26362500D01*
X120085763Y-26362500D01*
X120192315Y-26347180D01*
X120300000Y-26298001D01*
X120300000Y-27212500D01*
X120947828Y-27212500D01*
X120947844Y-27212499D01*
X121007372Y-27206098D01*
X121007379Y-27206096D01*
X121142086Y-27155854D01*
X121142093Y-27155850D01*
X121257187Y-27069690D01*
X121257190Y-27069687D01*
X121343350Y-26954593D01*
X121343354Y-26954586D01*
X121393596Y-26819879D01*
X121393598Y-26819872D01*
X121399999Y-26760344D01*
X158200000Y-26760344D01*
X158206401Y-26819872D01*
X158206403Y-26819879D01*
X158256645Y-26954586D01*
X158256649Y-26954593D01*
X158342809Y-27069687D01*
X158342812Y-27069690D01*
X158457906Y-27155850D01*
X158457913Y-27155854D01*
X158592620Y-27206096D01*
X158592627Y-27206098D01*
X158652155Y-27212499D01*
X158652172Y-27212500D01*
X159300000Y-27212500D01*
X159300000Y-26298001D01*
X159407685Y-26347180D01*
X159514237Y-26362500D01*
X159585763Y-26362500D01*
X159692315Y-26347180D01*
X159800000Y-26298001D01*
X159800000Y-27212500D01*
X160447828Y-27212500D01*
X160447844Y-27212499D01*
X160507372Y-27206098D01*
X160507379Y-27206096D01*
X160642086Y-27155854D01*
X160642093Y-27155850D01*
X160757187Y-27069690D01*
X160757190Y-27069687D01*
X160843350Y-26954593D01*
X160843354Y-26954586D01*
X160893596Y-26819879D01*
X160893598Y-26819872D01*
X160899999Y-26760344D01*
X160900000Y-26760327D01*
X160900000Y-26112500D01*
X159983686Y-26112500D01*
X160009493Y-26072344D01*
X160050000Y-25934389D01*
X160050000Y-25790611D01*
X160009493Y-25652656D01*
X159983686Y-25612500D01*
X160900000Y-25612500D01*
X160900000Y-24964672D01*
X160899999Y-24964655D01*
X160893598Y-24905127D01*
X160893596Y-24905120D01*
X160843354Y-24770413D01*
X160843350Y-24770406D01*
X160757190Y-24655312D01*
X160757187Y-24655309D01*
X160642093Y-24569149D01*
X160642086Y-24569145D01*
X160507379Y-24518903D01*
X160507372Y-24518901D01*
X160447844Y-24512500D01*
X159800000Y-24512500D01*
X159800000Y-25426998D01*
X159692315Y-25377820D01*
X159585763Y-25362500D01*
X159514237Y-25362500D01*
X159407685Y-25377820D01*
X159300000Y-25426998D01*
X159300000Y-24512500D01*
X158652155Y-24512500D01*
X158592627Y-24518901D01*
X158592620Y-24518903D01*
X158457913Y-24569145D01*
X158457906Y-24569149D01*
X158342812Y-24655309D01*
X158342809Y-24655312D01*
X158256649Y-24770406D01*
X158256645Y-24770413D01*
X158206403Y-24905120D01*
X158206401Y-24905127D01*
X158200000Y-24964655D01*
X158200000Y-25612500D01*
X159116314Y-25612500D01*
X159090507Y-25652656D01*
X159050000Y-25790611D01*
X159050000Y-25934389D01*
X159090507Y-26072344D01*
X159116314Y-26112500D01*
X158200000Y-26112500D01*
X158200000Y-26760344D01*
X121399999Y-26760344D01*
X121400000Y-26760327D01*
X121400000Y-26112500D01*
X120483686Y-26112500D01*
X120509493Y-26072344D01*
X120550000Y-25934389D01*
X120550000Y-25790611D01*
X120509493Y-25652656D01*
X120483686Y-25612500D01*
X121399999Y-25612500D01*
X121400000Y-24964672D01*
X121399999Y-24964655D01*
X121393598Y-24905127D01*
X121393596Y-24905120D01*
X121343354Y-24770413D01*
X121343350Y-24770406D01*
X121257190Y-24655312D01*
X121257187Y-24655309D01*
X121142093Y-24569149D01*
X121142086Y-24569145D01*
X121007379Y-24518903D01*
X121007372Y-24518901D01*
X120947844Y-24512500D01*
X120300000Y-24512500D01*
X120300000Y-25426998D01*
X120192315Y-25377820D01*
X120085763Y-25362500D01*
X120014237Y-25362500D01*
X119907685Y-25377820D01*
X119800000Y-25426998D01*
X119800000Y-24512500D01*
X119152155Y-24512500D01*
X119092627Y-24518901D01*
X119092620Y-24518903D01*
X118957913Y-24569145D01*
X118957906Y-24569149D01*
X118842812Y-24655309D01*
X118842809Y-24655312D01*
X118756649Y-24770406D01*
X118756645Y-24770413D01*
X118706403Y-24905120D01*
X118706401Y-24905127D01*
X118700000Y-24964655D01*
X118700000Y-25612500D01*
X119616314Y-25612500D01*
X119590507Y-25652656D01*
X119550000Y-25790611D01*
X119550000Y-25934389D01*
X119590507Y-26072344D01*
X119616314Y-26112500D01*
X118700000Y-26112500D01*
X118700000Y-26760344D01*
X115000000Y-26760344D01*
X115000000Y-22624500D01*
X115019685Y-22557461D01*
X115072489Y-22511706D01*
X115124000Y-22500500D01*
X168375500Y-22500500D01*
X168442539Y-22520185D01*
G37*
%TD.AperFunction*%
%TD*%
%TA.AperFunction,Conductor*%
%TO.N,3.3V*%
G36*
X129510539Y-53559685D02*
G01*
X129556294Y-53612489D01*
X129567500Y-53664000D01*
X129567500Y-56903915D01*
X129547815Y-56970954D01*
X129531181Y-56991596D01*
X129027480Y-57495296D01*
X129024754Y-57497863D01*
X128978985Y-57538411D01*
X128978977Y-57538420D01*
X128944235Y-57588753D01*
X128942015Y-57591769D01*
X128904313Y-57639894D01*
X128904311Y-57639896D01*
X128900271Y-57648873D01*
X128889253Y-57668408D01*
X128883655Y-57676519D01*
X128861968Y-57733700D01*
X128860536Y-57737158D01*
X128835442Y-57792916D01*
X128833666Y-57802606D01*
X128827645Y-57824203D01*
X128824152Y-57833414D01*
X128824152Y-57833415D01*
X128816780Y-57894124D01*
X128816217Y-57897826D01*
X128805195Y-57957969D01*
X128805195Y-57957972D01*
X128808887Y-58019006D01*
X128809000Y-58022751D01*
X128809000Y-72977247D01*
X128808887Y-72980992D01*
X128807537Y-73003319D01*
X128805195Y-73042028D01*
X128813814Y-73089064D01*
X128816217Y-73102174D01*
X128816780Y-73105876D01*
X128824152Y-73166582D01*
X128827644Y-73175792D01*
X128833666Y-73197395D01*
X128835441Y-73207081D01*
X128860540Y-73262851D01*
X128861973Y-73266310D01*
X128883653Y-73323478D01*
X128883656Y-73323482D01*
X128889250Y-73331586D01*
X128900274Y-73351134D01*
X128904308Y-73360099D01*
X128904314Y-73360108D01*
X128942018Y-73408234D01*
X128944238Y-73411251D01*
X128978980Y-73461583D01*
X129024753Y-73502135D01*
X129027464Y-73504686D01*
X129523250Y-74000471D01*
X129531181Y-74008402D01*
X129564666Y-74069725D01*
X129567500Y-74096083D01*
X129567500Y-80948500D01*
X129547815Y-81015539D01*
X129495011Y-81061294D01*
X129443500Y-81072500D01*
X127401947Y-81072500D01*
X127334908Y-81052815D01*
X127309800Y-81031476D01*
X127305871Y-81027112D01*
X127305869Y-81027111D01*
X127305867Y-81027108D01*
X127305864Y-81027106D01*
X127152734Y-80915851D01*
X127152729Y-80915848D01*
X126979807Y-80838857D01*
X126979802Y-80838855D01*
X126834001Y-80807865D01*
X126794646Y-80799500D01*
X126605354Y-80799500D01*
X126572897Y-80806398D01*
X126420197Y-80838855D01*
X126420192Y-80838857D01*
X126247270Y-80915848D01*
X126247265Y-80915851D01*
X126094129Y-81027111D01*
X125967466Y-81167785D01*
X125872821Y-81331715D01*
X125872818Y-81331722D01*
X125814327Y-81511740D01*
X125814326Y-81511744D01*
X125794540Y-81700000D01*
X125814326Y-81888256D01*
X125814327Y-81888259D01*
X125872818Y-82068277D01*
X125872821Y-82068284D01*
X125967467Y-82232216D01*
X126088126Y-82366221D01*
X126094129Y-82372888D01*
X126247265Y-82484148D01*
X126247270Y-82484151D01*
X126420192Y-82561142D01*
X126420197Y-82561144D01*
X126605354Y-82600500D01*
X126605355Y-82600500D01*
X126794644Y-82600500D01*
X126794646Y-82600500D01*
X126979803Y-82561144D01*
X127152730Y-82484151D01*
X127305871Y-82372888D01*
X127309799Y-82368525D01*
X127369286Y-82331879D01*
X127401947Y-82327500D01*
X129443500Y-82327500D01*
X129510539Y-82347185D01*
X129556294Y-82399989D01*
X129567500Y-82451500D01*
X129567500Y-96748500D01*
X129547815Y-96815539D01*
X129495011Y-96861294D01*
X129443500Y-96872500D01*
X125878500Y-96872500D01*
X125811461Y-96852815D01*
X125765706Y-96800011D01*
X125754500Y-96748500D01*
X125754500Y-92563999D01*
X125755809Y-92546029D01*
X125757832Y-92532216D01*
X125759315Y-92522094D01*
X125758710Y-92515184D01*
X125754736Y-92469756D01*
X125754500Y-92464350D01*
X125754500Y-92456066D01*
X125754500Y-92456059D01*
X125750777Y-92424202D01*
X125750598Y-92422459D01*
X125743943Y-92346388D01*
X125743941Y-92346384D01*
X125742483Y-92339319D01*
X125742537Y-92339307D01*
X125740881Y-92331837D01*
X125740827Y-92331850D01*
X125739160Y-92324822D01*
X125739160Y-92324816D01*
X125720716Y-92274141D01*
X125713062Y-92253111D01*
X125712470Y-92251408D01*
X125700687Y-92215851D01*
X125688464Y-92178964D01*
X125688461Y-92178960D01*
X125685412Y-92172419D01*
X125685461Y-92172395D01*
X125682128Y-92165509D01*
X125682079Y-92165534D01*
X125678837Y-92159078D01*
X125666059Y-92139650D01*
X125636863Y-92095259D01*
X125635985Y-92093882D01*
X125595871Y-92028846D01*
X125591393Y-92023183D01*
X125591435Y-92023149D01*
X125586597Y-92017210D01*
X125586556Y-92017246D01*
X125581912Y-92011712D01*
X125526421Y-91959359D01*
X125525127Y-91958102D01*
X125365821Y-91798796D01*
X125078765Y-91511741D01*
X125066984Y-91498109D01*
X125063604Y-91493569D01*
X125052539Y-91478706D01*
X125052537Y-91478704D01*
X125052538Y-91478704D01*
X125024932Y-91455541D01*
X125012285Y-91444928D01*
X125008310Y-91441286D01*
X125005371Y-91438347D01*
X125002443Y-91435418D01*
X124977280Y-91415522D01*
X124975882Y-91414383D01*
X124917427Y-91365333D01*
X124911394Y-91361365D01*
X124911422Y-91361321D01*
X124904961Y-91357204D01*
X124904934Y-91357250D01*
X124898790Y-91353460D01*
X124829625Y-91321208D01*
X124828002Y-91320422D01*
X124759815Y-91286177D01*
X124753031Y-91283708D01*
X124753049Y-91283658D01*
X124745807Y-91281141D01*
X124745791Y-91281191D01*
X124738939Y-91278920D01*
X124678614Y-91266464D01*
X124664192Y-91263486D01*
X124662445Y-91263099D01*
X124588181Y-91245498D01*
X124581014Y-91244661D01*
X124581020Y-91244607D01*
X124573405Y-91243829D01*
X124573401Y-91243883D01*
X124566210Y-91243253D01*
X124489903Y-91245474D01*
X124488100Y-91245500D01*
X122033831Y-91245500D01*
X121966792Y-91225815D01*
X121960944Y-91221817D01*
X121952730Y-91215849D01*
X121952729Y-91215848D01*
X121779807Y-91138857D01*
X121779802Y-91138855D01*
X121634000Y-91107865D01*
X121594646Y-91099500D01*
X121405354Y-91099500D01*
X121372897Y-91106398D01*
X121220197Y-91138855D01*
X121220192Y-91138857D01*
X121047270Y-91215848D01*
X121047265Y-91215851D01*
X120894129Y-91327111D01*
X120767466Y-91467785D01*
X120672821Y-91631715D01*
X120672818Y-91631722D01*
X120618039Y-91800317D01*
X120614326Y-91811744D01*
X120594540Y-92000000D01*
X120614326Y-92188256D01*
X120614327Y-92188259D01*
X120672818Y-92368277D01*
X120672821Y-92368284D01*
X120767467Y-92532216D01*
X120857059Y-92631718D01*
X120894129Y-92672888D01*
X121047265Y-92784148D01*
X121047270Y-92784151D01*
X121220192Y-92861142D01*
X121220197Y-92861144D01*
X121405354Y-92900500D01*
X121405355Y-92900500D01*
X121594644Y-92900500D01*
X121594646Y-92900500D01*
X121779803Y-92861144D01*
X121952730Y-92784151D01*
X121960944Y-92778182D01*
X122026750Y-92754702D01*
X122033831Y-92754500D01*
X124121500Y-92754500D01*
X124188539Y-92774185D01*
X124234294Y-92826989D01*
X124245500Y-92878500D01*
X124245500Y-96972606D01*
X124228888Y-97034605D01*
X124172820Y-97131718D01*
X124172818Y-97131722D01*
X124114327Y-97311740D01*
X124114326Y-97311744D01*
X124094540Y-97500000D01*
X124114326Y-97688256D01*
X124114327Y-97688259D01*
X124172818Y-97868277D01*
X124172821Y-97868284D01*
X124267467Y-98032216D01*
X124357063Y-98131722D01*
X124394129Y-98172888D01*
X124547265Y-98284148D01*
X124547270Y-98284151D01*
X124720192Y-98361142D01*
X124720197Y-98361144D01*
X124905354Y-98400500D01*
X124905355Y-98400500D01*
X125094644Y-98400500D01*
X125094646Y-98400500D01*
X125279803Y-98361144D01*
X125452730Y-98284151D01*
X125605871Y-98172888D01*
X125609799Y-98168525D01*
X125669286Y-98131879D01*
X125701947Y-98127500D01*
X129443500Y-98127500D01*
X129510539Y-98147185D01*
X129556294Y-98199989D01*
X129567500Y-98251500D01*
X129567499Y-117999999D01*
X129567500Y-118000000D01*
X129500000Y-118000000D01*
X129499999Y-144545102D01*
X129416505Y-144628597D01*
X129286575Y-144814158D01*
X129231998Y-144857783D01*
X129162500Y-144864977D01*
X129100145Y-144833454D01*
X129083425Y-144814158D01*
X128953494Y-144628597D01*
X128786402Y-144461506D01*
X128786395Y-144461501D01*
X128592834Y-144325967D01*
X128592830Y-144325965D01*
X128521727Y-144292809D01*
X128378663Y-144226097D01*
X128378659Y-144226096D01*
X128378655Y-144226094D01*
X128150413Y-144164938D01*
X128150403Y-144164936D01*
X127915001Y-144144341D01*
X127914999Y-144144341D01*
X127679596Y-144164936D01*
X127679586Y-144164938D01*
X127451344Y-144226094D01*
X127451335Y-144226098D01*
X127237171Y-144325964D01*
X127237169Y-144325965D01*
X127043597Y-144461505D01*
X126876505Y-144628597D01*
X126740965Y-144822169D01*
X126740964Y-144822171D01*
X126641098Y-145036335D01*
X126641094Y-145036344D01*
X126579938Y-145264586D01*
X126579936Y-145264596D01*
X126559341Y-145499999D01*
X126559341Y-145500000D01*
X126579936Y-145735403D01*
X126579938Y-145735413D01*
X126641094Y-145963655D01*
X126641096Y-145963659D01*
X126641097Y-145963663D01*
X126717628Y-146127784D01*
X126740965Y-146177830D01*
X126740967Y-146177834D01*
X126820708Y-146291715D01*
X126876505Y-146371401D01*
X127043599Y-146538495D01*
X127140384Y-146606264D01*
X127237165Y-146674032D01*
X127237167Y-146674033D01*
X127237170Y-146674035D01*
X127451337Y-146773903D01*
X127679592Y-146835063D01*
X127856034Y-146850500D01*
X127914999Y-146855659D01*
X127915000Y-146855659D01*
X127915001Y-146855659D01*
X127973966Y-146850500D01*
X128150408Y-146835063D01*
X128378663Y-146773903D01*
X128592830Y-146674035D01*
X128786401Y-146538495D01*
X128953495Y-146371401D01*
X129083426Y-146185841D01*
X129138002Y-146142217D01*
X129207500Y-146135023D01*
X129269855Y-146166546D01*
X129286575Y-146185842D01*
X129416501Y-146371396D01*
X129416506Y-146371402D01*
X129500000Y-146454896D01*
X129500000Y-150309000D01*
X97337583Y-150309000D01*
X97270544Y-150289315D01*
X97249902Y-150272681D01*
X96727318Y-149750097D01*
X96693833Y-149688774D01*
X96690999Y-149662416D01*
X96690999Y-147028277D01*
X96690999Y-146397870D01*
X98569500Y-146397870D01*
X98569501Y-146397876D01*
X98575908Y-146457483D01*
X98626202Y-146592328D01*
X98626206Y-146592335D01*
X98712452Y-146707544D01*
X98712455Y-146707547D01*
X98827664Y-146793793D01*
X98827671Y-146793797D01*
X98962517Y-146844091D01*
X98962516Y-146844091D01*
X98969444Y-146844835D01*
X99022127Y-146850500D01*
X100817872Y-146850499D01*
X100877483Y-146844091D01*
X101012331Y-146793796D01*
X101127546Y-146707546D01*
X101213796Y-146592331D01*
X101213888Y-146592086D01*
X101233874Y-146538498D01*
X101263002Y-146460401D01*
X101304872Y-146404468D01*
X101370337Y-146380050D01*
X101438610Y-146394901D01*
X101466865Y-146416053D01*
X101588917Y-146538105D01*
X101782421Y-146673600D01*
X101996507Y-146773429D01*
X101996516Y-146773433D01*
X102210000Y-146830634D01*
X102210000Y-145935501D01*
X102317685Y-145984680D01*
X102424237Y-146000000D01*
X102495763Y-146000000D01*
X102602315Y-145984680D01*
X102710000Y-145935501D01*
X102710000Y-146830633D01*
X102923483Y-146773433D01*
X102923492Y-146773429D01*
X103137578Y-146673600D01*
X103331082Y-146538105D01*
X103498105Y-146371082D01*
X103628119Y-146185405D01*
X103682696Y-146141781D01*
X103752195Y-146134588D01*
X103814549Y-146166110D01*
X103831269Y-146185405D01*
X103961505Y-146371401D01*
X104128599Y-146538495D01*
X104225384Y-146606265D01*
X104322165Y-146674032D01*
X104322167Y-146674033D01*
X104322170Y-146674035D01*
X104536337Y-146773903D01*
X104764592Y-146835063D01*
X104941034Y-146850500D01*
X104999999Y-146855659D01*
X105000000Y-146855659D01*
X105000001Y-146855659D01*
X105058966Y-146850500D01*
X105235408Y-146835063D01*
X105463663Y-146773903D01*
X105677830Y-146674035D01*
X105871401Y-146538495D01*
X106038495Y-146371401D01*
X106174035Y-146177830D01*
X106273903Y-145963663D01*
X106335063Y-145735408D01*
X106355659Y-145500000D01*
X106335063Y-145264592D01*
X106273903Y-145036337D01*
X106174035Y-144822171D01*
X106168731Y-144814595D01*
X106038494Y-144628597D01*
X105871402Y-144461506D01*
X105871395Y-144461501D01*
X105677834Y-144325967D01*
X105677830Y-144325965D01*
X105606727Y-144292809D01*
X105463663Y-144226097D01*
X105463659Y-144226096D01*
X105463655Y-144226094D01*
X105235413Y-144164938D01*
X105235403Y-144164936D01*
X105000001Y-144144341D01*
X104999999Y-144144341D01*
X104764596Y-144164936D01*
X104764586Y-144164938D01*
X104536344Y-144226094D01*
X104536335Y-144226098D01*
X104322171Y-144325964D01*
X104322169Y-144325965D01*
X104128597Y-144461505D01*
X103961508Y-144628594D01*
X103831269Y-144814595D01*
X103776692Y-144858219D01*
X103707193Y-144865412D01*
X103644839Y-144833890D01*
X103628119Y-144814594D01*
X103498113Y-144628926D01*
X103498108Y-144628920D01*
X103331082Y-144461894D01*
X103137578Y-144326399D01*
X102923492Y-144226570D01*
X102923486Y-144226567D01*
X102710000Y-144169364D01*
X102710000Y-145064498D01*
X102602315Y-145015320D01*
X102495763Y-145000000D01*
X102424237Y-145000000D01*
X102317685Y-145015320D01*
X102210000Y-145064498D01*
X102210000Y-144169364D01*
X102209999Y-144169364D01*
X101996513Y-144226567D01*
X101996507Y-144226570D01*
X101782422Y-144326399D01*
X101782420Y-144326400D01*
X101588926Y-144461886D01*
X101466865Y-144583947D01*
X101405542Y-144617431D01*
X101335850Y-144612447D01*
X101279917Y-144570575D01*
X101263002Y-144539598D01*
X101262954Y-144539470D01*
X101213887Y-144407913D01*
X101213797Y-144407671D01*
X101213793Y-144407664D01*
X101127547Y-144292455D01*
X101127544Y-144292452D01*
X101012335Y-144206206D01*
X101012328Y-144206202D01*
X100877482Y-144155908D01*
X100877483Y-144155908D01*
X100817883Y-144149501D01*
X100817881Y-144149500D01*
X100817873Y-144149500D01*
X100817864Y-144149500D01*
X99022129Y-144149500D01*
X99022123Y-144149501D01*
X98962516Y-144155908D01*
X98827671Y-144206202D01*
X98827664Y-144206206D01*
X98712455Y-144292452D01*
X98712452Y-144292455D01*
X98626206Y-144407664D01*
X98626202Y-144407671D01*
X98575908Y-144542517D01*
X98569501Y-144602116D01*
X98569500Y-144602135D01*
X98569500Y-146397870D01*
X96690999Y-146397870D01*
X96690999Y-144022729D01*
X96691111Y-144019049D01*
X96694806Y-143957972D01*
X96688052Y-143921123D01*
X96683779Y-143897801D01*
X96683215Y-143894096D01*
X96675848Y-143833418D01*
X96675847Y-143833416D01*
X96672363Y-143824230D01*
X96666332Y-143802600D01*
X96664558Y-143792916D01*
X96639446Y-143737120D01*
X96638031Y-143733703D01*
X96616344Y-143676518D01*
X96610748Y-143668411D01*
X96599725Y-143648866D01*
X96595688Y-143639895D01*
X96557972Y-143591755D01*
X96555774Y-143588768D01*
X96521020Y-143538417D01*
X96501382Y-143521019D01*
X96475236Y-143497856D01*
X96472526Y-143495305D01*
X95504686Y-142527464D01*
X95502135Y-142524753D01*
X95461583Y-142478980D01*
X95411251Y-142444238D01*
X95408234Y-142442018D01*
X95360108Y-142404314D01*
X95360099Y-142404308D01*
X95351134Y-142400274D01*
X95331586Y-142389250D01*
X95323482Y-142383656D01*
X95323478Y-142383653D01*
X95274689Y-142365150D01*
X95266302Y-142361969D01*
X95262851Y-142360540D01*
X95207081Y-142335441D01*
X95207082Y-142335441D01*
X95197395Y-142333666D01*
X95175792Y-142327644D01*
X95166582Y-142324152D01*
X95105876Y-142316780D01*
X95102177Y-142316217D01*
X95089211Y-142313841D01*
X95042030Y-142305195D01*
X95042025Y-142305195D01*
X94980992Y-142308887D01*
X94977247Y-142309000D01*
X89837583Y-142309000D01*
X89770544Y-142289315D01*
X89749902Y-142272681D01*
X89343619Y-141866397D01*
X89310134Y-141805074D01*
X89307300Y-141778716D01*
X89307300Y-131397870D01*
X91149500Y-131397870D01*
X91149501Y-131397876D01*
X91155908Y-131457483D01*
X91206202Y-131592328D01*
X91206206Y-131592335D01*
X91292452Y-131707544D01*
X91292455Y-131707547D01*
X91407664Y-131793793D01*
X91407671Y-131793797D01*
X91542517Y-131844091D01*
X91542516Y-131844091D01*
X91549444Y-131844835D01*
X91602127Y-131850500D01*
X93397872Y-131850499D01*
X93457483Y-131844091D01*
X93592331Y-131793796D01*
X93707546Y-131707546D01*
X93793796Y-131592331D01*
X93844091Y-131457483D01*
X93850500Y-131397873D01*
X93850499Y-129602128D01*
X93844091Y-129542517D01*
X93793796Y-129407669D01*
X93793795Y-129407668D01*
X93793793Y-129407664D01*
X93707547Y-129292455D01*
X93707544Y-129292452D01*
X93592335Y-129206206D01*
X93592328Y-129206202D01*
X93457482Y-129155908D01*
X93457483Y-129155908D01*
X93397883Y-129149501D01*
X93397881Y-129149500D01*
X93397873Y-129149500D01*
X93397864Y-129149500D01*
X91602129Y-129149500D01*
X91602123Y-129149501D01*
X91542516Y-129155908D01*
X91407671Y-129206202D01*
X91407664Y-129206206D01*
X91292455Y-129292452D01*
X91292452Y-129292455D01*
X91206206Y-129407664D01*
X91206202Y-129407671D01*
X91155908Y-129542517D01*
X91149501Y-129602116D01*
X91149501Y-129602123D01*
X91149500Y-129602135D01*
X91149500Y-131397870D01*
X89307300Y-131397870D01*
X89307300Y-126411645D01*
X89326985Y-126344606D01*
X89379789Y-126298851D01*
X89448947Y-126288907D01*
X89463386Y-126291868D01*
X89624592Y-126335063D01*
X89801034Y-126350500D01*
X89859999Y-126355659D01*
X89860000Y-126355659D01*
X89860001Y-126355659D01*
X89918966Y-126350500D01*
X90095408Y-126335063D01*
X90323663Y-126273903D01*
X90537830Y-126174035D01*
X90731401Y-126038495D01*
X90898495Y-125871401D01*
X91028426Y-125685841D01*
X91083002Y-125642217D01*
X91152500Y-125635023D01*
X91214855Y-125666546D01*
X91231575Y-125685842D01*
X91361500Y-125871395D01*
X91361505Y-125871401D01*
X91528599Y-126038495D01*
X91625384Y-126106264D01*
X91722165Y-126174032D01*
X91722167Y-126174033D01*
X91722170Y-126174035D01*
X91936337Y-126273903D01*
X92164592Y-126335063D01*
X92341034Y-126350500D01*
X92399999Y-126355659D01*
X92400000Y-126355659D01*
X92400001Y-126355659D01*
X92458966Y-126350500D01*
X92635408Y-126335063D01*
X92863663Y-126273903D01*
X93077830Y-126174035D01*
X93271401Y-126038495D01*
X93438495Y-125871401D01*
X93568426Y-125685840D01*
X93623001Y-125642217D01*
X93692499Y-125635023D01*
X93754854Y-125666546D01*
X93771574Y-125685841D01*
X93901505Y-125871401D01*
X94068599Y-126038495D01*
X94165384Y-126106264D01*
X94262165Y-126174032D01*
X94262167Y-126174033D01*
X94262170Y-126174035D01*
X94476337Y-126273903D01*
X94704592Y-126335063D01*
X94881034Y-126350500D01*
X94939999Y-126355659D01*
X94940000Y-126355659D01*
X94940001Y-126355659D01*
X94998966Y-126350500D01*
X95175408Y-126335063D01*
X95403663Y-126273903D01*
X95617830Y-126174035D01*
X95811401Y-126038495D01*
X95978495Y-125871401D01*
X96108426Y-125685841D01*
X96163002Y-125642217D01*
X96232500Y-125635023D01*
X96294855Y-125666546D01*
X96311575Y-125685842D01*
X96441500Y-125871395D01*
X96441505Y-125871401D01*
X96608599Y-126038495D01*
X96705384Y-126106264D01*
X96802165Y-126174032D01*
X96802167Y-126174033D01*
X96802170Y-126174035D01*
X97016337Y-126273903D01*
X97244592Y-126335063D01*
X97421034Y-126350500D01*
X97479999Y-126355659D01*
X97480000Y-126355659D01*
X97480001Y-126355659D01*
X97538966Y-126350500D01*
X97715408Y-126335063D01*
X97929208Y-126277776D01*
X97999057Y-126279439D01*
X98056919Y-126318602D01*
X98084423Y-126382830D01*
X98085300Y-126397551D01*
X98085300Y-141253547D01*
X98085187Y-141257292D01*
X98081495Y-141318325D01*
X98081495Y-141318328D01*
X98092517Y-141378474D01*
X98093080Y-141382176D01*
X98100452Y-141442882D01*
X98103944Y-141452092D01*
X98109966Y-141473695D01*
X98111741Y-141483381D01*
X98136840Y-141539151D01*
X98138273Y-141542610D01*
X98159953Y-141599778D01*
X98159956Y-141599782D01*
X98165550Y-141607886D01*
X98176574Y-141627434D01*
X98180608Y-141636399D01*
X98180614Y-141636408D01*
X98218318Y-141684534D01*
X98220538Y-141687551D01*
X98255280Y-141737883D01*
X98301053Y-141778435D01*
X98303764Y-141780986D01*
X99495320Y-142972542D01*
X99497856Y-142975236D01*
X99538416Y-143021019D01*
X99538417Y-143021020D01*
X99588755Y-143055767D01*
X99591755Y-143057974D01*
X99639894Y-143095688D01*
X99648865Y-143099725D01*
X99668420Y-143110754D01*
X99676518Y-143116344D01*
X99733695Y-143138028D01*
X99737149Y-143139459D01*
X99792915Y-143164557D01*
X99802596Y-143166331D01*
X99824218Y-143172359D01*
X99833416Y-143175847D01*
X99833417Y-143175848D01*
X99850220Y-143177888D01*
X99894123Y-143183218D01*
X99897818Y-143183781D01*
X99925655Y-143188882D01*
X99957972Y-143194805D01*
X99957972Y-143194804D01*
X99957973Y-143194805D01*
X100019008Y-143191113D01*
X100022753Y-143191000D01*
X115162416Y-143191000D01*
X115229455Y-143210685D01*
X115250097Y-143227319D01*
X115732680Y-143709902D01*
X115766165Y-143771225D01*
X115768999Y-143797583D01*
X115769000Y-144270636D01*
X115749316Y-144337675D01*
X115716124Y-144372211D01*
X115588599Y-144461505D01*
X115588597Y-144461506D01*
X115421505Y-144628597D01*
X115291575Y-144814158D01*
X115236998Y-144857783D01*
X115167500Y-144864977D01*
X115105145Y-144833454D01*
X115088425Y-144814158D01*
X114958494Y-144628597D01*
X114791402Y-144461506D01*
X114791395Y-144461501D01*
X114597834Y-144325967D01*
X114597830Y-144325965D01*
X114526727Y-144292809D01*
X114383663Y-144226097D01*
X114383659Y-144226096D01*
X114383655Y-144226094D01*
X114155413Y-144164938D01*
X114155403Y-144164936D01*
X113920001Y-144144341D01*
X113919999Y-144144341D01*
X113684596Y-144164936D01*
X113684586Y-144164938D01*
X113456344Y-144226094D01*
X113456335Y-144226098D01*
X113242171Y-144325964D01*
X113242169Y-144325965D01*
X113048597Y-144461505D01*
X112881505Y-144628597D01*
X112751575Y-144814158D01*
X112696998Y-144857783D01*
X112627500Y-144864977D01*
X112565145Y-144833454D01*
X112548425Y-144814158D01*
X112418494Y-144628597D01*
X112251402Y-144461506D01*
X112251395Y-144461501D01*
X112057834Y-144325967D01*
X112057830Y-144325965D01*
X111986727Y-144292809D01*
X111843663Y-144226097D01*
X111843659Y-144226096D01*
X111843655Y-144226094D01*
X111615413Y-144164938D01*
X111615403Y-144164936D01*
X111380001Y-144144341D01*
X111379999Y-144144341D01*
X111144596Y-144164936D01*
X111144586Y-144164938D01*
X110916344Y-144226094D01*
X110916335Y-144226098D01*
X110702171Y-144325964D01*
X110702169Y-144325965D01*
X110508597Y-144461505D01*
X110341505Y-144628597D01*
X110205965Y-144822169D01*
X110205964Y-144822171D01*
X110106098Y-145036335D01*
X110106094Y-145036344D01*
X110044938Y-145264586D01*
X110044936Y-145264596D01*
X110024341Y-145499999D01*
X110024341Y-145500000D01*
X110044936Y-145735403D01*
X110044938Y-145735413D01*
X110106094Y-145963655D01*
X110106096Y-145963659D01*
X110106097Y-145963663D01*
X110182628Y-146127784D01*
X110205965Y-146177830D01*
X110205967Y-146177834D01*
X110285708Y-146291715D01*
X110341505Y-146371401D01*
X110508599Y-146538495D01*
X110605384Y-146606265D01*
X110702165Y-146674032D01*
X110702167Y-146674033D01*
X110702170Y-146674035D01*
X110916337Y-146773903D01*
X111144592Y-146835063D01*
X111321034Y-146850500D01*
X111379999Y-146855659D01*
X111380000Y-146855659D01*
X111380001Y-146855659D01*
X111438966Y-146850500D01*
X111615408Y-146835063D01*
X111843663Y-146773903D01*
X112057830Y-146674035D01*
X112251401Y-146538495D01*
X112418495Y-146371401D01*
X112548426Y-146185841D01*
X112603002Y-146142217D01*
X112672500Y-146135023D01*
X112734855Y-146166546D01*
X112751575Y-146185842D01*
X112881500Y-146371395D01*
X112881505Y-146371401D01*
X113048599Y-146538495D01*
X113145384Y-146606265D01*
X113242165Y-146674032D01*
X113242167Y-146674033D01*
X113242170Y-146674035D01*
X113456337Y-146773903D01*
X113684592Y-146835063D01*
X113861034Y-146850500D01*
X113919999Y-146855659D01*
X113920000Y-146855659D01*
X113920001Y-146855659D01*
X113978966Y-146850500D01*
X114155408Y-146835063D01*
X114383663Y-146773903D01*
X114597830Y-146674035D01*
X114791401Y-146538495D01*
X114958495Y-146371401D01*
X115088426Y-146185840D01*
X115143001Y-146142217D01*
X115212499Y-146135023D01*
X115274854Y-146166546D01*
X115291574Y-146185841D01*
X115421505Y-146371401D01*
X115588599Y-146538495D01*
X115685384Y-146606265D01*
X115782165Y-146674032D01*
X115782167Y-146674033D01*
X115782170Y-146674035D01*
X115996337Y-146773903D01*
X116224592Y-146835063D01*
X116401034Y-146850500D01*
X116459999Y-146855659D01*
X116460000Y-146855659D01*
X116460001Y-146855659D01*
X116518966Y-146850500D01*
X116695408Y-146835063D01*
X116923663Y-146773903D01*
X117137830Y-146674035D01*
X117331401Y-146538495D01*
X117498495Y-146371401D01*
X117628426Y-146185841D01*
X117683002Y-146142217D01*
X117752500Y-146135023D01*
X117814855Y-146166546D01*
X117831575Y-146185842D01*
X117961500Y-146371395D01*
X117961505Y-146371401D01*
X118128599Y-146538495D01*
X118225384Y-146606265D01*
X118322165Y-146674032D01*
X118322167Y-146674033D01*
X118322170Y-146674035D01*
X118536337Y-146773903D01*
X118764592Y-146835063D01*
X118941034Y-146850500D01*
X118999999Y-146855659D01*
X119000000Y-146855659D01*
X119000001Y-146855659D01*
X119058966Y-146850500D01*
X119235408Y-146835063D01*
X119463663Y-146773903D01*
X119677830Y-146674035D01*
X119871401Y-146538495D01*
X119993717Y-146416178D01*
X120055036Y-146382696D01*
X120124728Y-146387680D01*
X120180662Y-146429551D01*
X120197577Y-146460528D01*
X120246646Y-146592088D01*
X120246649Y-146592093D01*
X120332809Y-146707187D01*
X120332812Y-146707190D01*
X120447906Y-146793350D01*
X120447913Y-146793354D01*
X120582620Y-146843596D01*
X120582627Y-146843598D01*
X120642155Y-146849999D01*
X120642172Y-146850000D01*
X121290000Y-146850000D01*
X121289999Y-145935501D01*
X121397685Y-145984680D01*
X121504237Y-146000000D01*
X121575763Y-146000000D01*
X121682315Y-145984680D01*
X121790000Y-145935501D01*
X121790000Y-146850000D01*
X122437828Y-146850000D01*
X122437844Y-146849999D01*
X122497372Y-146843598D01*
X122497379Y-146843596D01*
X122632086Y-146793354D01*
X122632093Y-146793350D01*
X122747187Y-146707190D01*
X122747190Y-146707187D01*
X122833350Y-146592093D01*
X122833354Y-146592086D01*
X122883596Y-146457379D01*
X122883598Y-146457372D01*
X122889999Y-146397844D01*
X122890000Y-146397827D01*
X122890000Y-145750000D01*
X121973686Y-145750000D01*
X121999493Y-145709844D01*
X122040000Y-145571889D01*
X122040000Y-145428111D01*
X121999493Y-145290156D01*
X121973686Y-145250000D01*
X122890000Y-145250000D01*
X122890000Y-144602172D01*
X122889999Y-144602155D01*
X122883598Y-144542627D01*
X122883596Y-144542620D01*
X122833354Y-144407913D01*
X122833350Y-144407906D01*
X122747190Y-144292812D01*
X122747187Y-144292809D01*
X122632093Y-144206649D01*
X122632086Y-144206645D01*
X122497379Y-144156403D01*
X122497372Y-144156401D01*
X122437844Y-144150000D01*
X121790000Y-144150000D01*
X121790000Y-145064498D01*
X121682315Y-145015320D01*
X121575763Y-145000000D01*
X121504237Y-145000000D01*
X121397685Y-145015320D01*
X121289999Y-145064498D01*
X121290000Y-144150000D01*
X120642155Y-144150000D01*
X120582627Y-144156401D01*
X120582620Y-144156403D01*
X120447913Y-144206645D01*
X120447906Y-144206649D01*
X120332812Y-144292809D01*
X120332809Y-144292812D01*
X120246649Y-144407906D01*
X120246645Y-144407913D01*
X120197578Y-144539470D01*
X120155707Y-144595404D01*
X120090242Y-144619821D01*
X120021969Y-144604969D01*
X119993715Y-144583819D01*
X119949366Y-144539470D01*
X119871401Y-144461505D01*
X119743875Y-144372210D01*
X119700250Y-144317633D01*
X119690999Y-144270635D01*
X119690999Y-134250000D01*
X123594540Y-134250000D01*
X123614326Y-134438256D01*
X123614327Y-134438259D01*
X123672818Y-134618277D01*
X123672821Y-134618284D01*
X123767467Y-134782216D01*
X123888826Y-134916998D01*
X123894129Y-134922888D01*
X124047265Y-135034148D01*
X124047270Y-135034151D01*
X124220192Y-135111142D01*
X124220197Y-135111144D01*
X124405354Y-135150500D01*
X124405355Y-135150500D01*
X124594644Y-135150500D01*
X124594646Y-135150500D01*
X124779803Y-135111144D01*
X124952730Y-135034151D01*
X125105871Y-134922888D01*
X125232533Y-134782216D01*
X125327179Y-134618284D01*
X125385674Y-134438256D01*
X125405460Y-134250000D01*
X125385674Y-134061744D01*
X125327179Y-133881716D01*
X125271111Y-133784604D01*
X125254500Y-133722606D01*
X125254500Y-130277392D01*
X125271113Y-130215392D01*
X125327179Y-130118284D01*
X125385674Y-129938256D01*
X125405460Y-129750000D01*
X125385674Y-129561744D01*
X125327179Y-129381716D01*
X125232533Y-129217784D01*
X125105871Y-129077112D01*
X125105870Y-129077111D01*
X124952734Y-128965851D01*
X124952729Y-128965848D01*
X124779807Y-128888857D01*
X124779802Y-128888855D01*
X124634000Y-128857865D01*
X124594646Y-128849500D01*
X124405354Y-128849500D01*
X124372897Y-128856398D01*
X124220197Y-128888855D01*
X124220192Y-128888857D01*
X124047270Y-128965848D01*
X124047265Y-128965851D01*
X123894129Y-129077111D01*
X123767466Y-129217785D01*
X123672821Y-129381715D01*
X123672818Y-129381722D01*
X123620573Y-129542517D01*
X123614326Y-129561744D01*
X123594540Y-129750000D01*
X123614326Y-129938256D01*
X123614327Y-129938259D01*
X123672818Y-130118277D01*
X123672821Y-130118284D01*
X123724357Y-130207547D01*
X123728887Y-130215392D01*
X123745500Y-130277392D01*
X123745500Y-133722606D01*
X123728888Y-133784605D01*
X123672820Y-133881718D01*
X123672818Y-133881722D01*
X123614327Y-134061740D01*
X123614326Y-134061744D01*
X123594540Y-134250000D01*
X119690999Y-134250000D01*
X119690999Y-131457482D01*
X119690999Y-118522729D01*
X119691111Y-118519049D01*
X119694806Y-118457972D01*
X119688052Y-118421123D01*
X119683779Y-118397801D01*
X119683215Y-118394096D01*
X119675848Y-118333418D01*
X119675847Y-118333416D01*
X119672363Y-118324230D01*
X119666332Y-118302600D01*
X119664558Y-118292916D01*
X119639446Y-118237120D01*
X119638031Y-118233703D01*
X119616344Y-118176518D01*
X119610748Y-118168411D01*
X119599725Y-118148866D01*
X119595688Y-118139895D01*
X119557972Y-118091755D01*
X119555774Y-118088768D01*
X119521020Y-118038417D01*
X119475236Y-117997856D01*
X119472526Y-117995305D01*
X118504686Y-117027464D01*
X118502135Y-117024753D01*
X118461583Y-116978980D01*
X118411251Y-116944238D01*
X118408234Y-116942018D01*
X118360108Y-116904314D01*
X118360099Y-116904308D01*
X118351134Y-116900274D01*
X118331586Y-116889250D01*
X118323482Y-116883656D01*
X118323478Y-116883653D01*
X118274689Y-116865150D01*
X118266302Y-116861969D01*
X118262851Y-116860540D01*
X118207081Y-116835441D01*
X118207082Y-116835441D01*
X118197395Y-116833666D01*
X118175792Y-116827644D01*
X118166582Y-116824152D01*
X118105876Y-116816780D01*
X118102177Y-116816217D01*
X118077744Y-116811740D01*
X118042030Y-116805195D01*
X118042025Y-116805195D01*
X117980992Y-116808887D01*
X117977247Y-116809000D01*
X108515000Y-116809000D01*
X108447961Y-116789315D01*
X108402206Y-116736511D01*
X108391000Y-116685000D01*
X108391000Y-90229363D01*
X108410685Y-90162324D01*
X108443877Y-90127788D01*
X108571401Y-90038495D01*
X108738495Y-89871401D01*
X108868426Y-89685841D01*
X108923002Y-89642217D01*
X108992500Y-89635023D01*
X109054855Y-89666546D01*
X109071575Y-89685842D01*
X109201500Y-89871395D01*
X109201505Y-89871401D01*
X109368599Y-90038495D01*
X109455272Y-90099184D01*
X109562165Y-90174032D01*
X109562167Y-90174033D01*
X109562170Y-90174035D01*
X109776337Y-90273903D01*
X110004592Y-90335063D01*
X110181034Y-90350500D01*
X110239999Y-90355659D01*
X110240000Y-90355659D01*
X110240001Y-90355659D01*
X110298966Y-90350500D01*
X110475408Y-90335063D01*
X110703663Y-90273903D01*
X110917830Y-90174035D01*
X111111401Y-90038495D01*
X111278495Y-89871401D01*
X111408426Y-89685840D01*
X111463001Y-89642217D01*
X111532499Y-89635023D01*
X111594854Y-89666546D01*
X111611574Y-89685841D01*
X111741505Y-89871401D01*
X111908599Y-90038495D01*
X111995272Y-90099184D01*
X112102165Y-90174032D01*
X112102167Y-90174033D01*
X112102170Y-90174035D01*
X112316337Y-90273903D01*
X112544592Y-90335063D01*
X112721034Y-90350500D01*
X112779999Y-90355659D01*
X112780000Y-90355659D01*
X112780001Y-90355659D01*
X112838966Y-90350500D01*
X113015408Y-90335063D01*
X113243663Y-90273903D01*
X113457830Y-90174035D01*
X113651401Y-90038495D01*
X113818495Y-89871401D01*
X113948426Y-89685841D01*
X114003002Y-89642217D01*
X114072500Y-89635023D01*
X114134855Y-89666546D01*
X114151575Y-89685842D01*
X114281500Y-89871395D01*
X114281505Y-89871401D01*
X114448599Y-90038495D01*
X114535272Y-90099184D01*
X114642165Y-90174032D01*
X114642167Y-90174033D01*
X114642170Y-90174035D01*
X114856337Y-90273903D01*
X115084592Y-90335063D01*
X115261034Y-90350500D01*
X115319999Y-90355659D01*
X115320000Y-90355659D01*
X115320001Y-90355659D01*
X115378966Y-90350500D01*
X115555408Y-90335063D01*
X115783663Y-90273903D01*
X115997830Y-90174035D01*
X116191401Y-90038495D01*
X116358495Y-89871401D01*
X116488730Y-89685405D01*
X116543307Y-89641781D01*
X116612805Y-89634587D01*
X116675160Y-89666110D01*
X116691879Y-89685405D01*
X116821890Y-89871078D01*
X116988917Y-90038105D01*
X117182421Y-90173600D01*
X117396507Y-90273429D01*
X117396516Y-90273433D01*
X117610000Y-90330634D01*
X117610000Y-89435501D01*
X117717685Y-89484680D01*
X117824237Y-89500000D01*
X117895763Y-89500000D01*
X118002315Y-89484680D01*
X118110000Y-89435501D01*
X118110000Y-90330633D01*
X118323483Y-90273433D01*
X118323492Y-90273429D01*
X118537578Y-90173600D01*
X118731078Y-90038108D01*
X118853133Y-89916053D01*
X118914456Y-89882568D01*
X118984148Y-89887552D01*
X119040082Y-89929423D01*
X119056997Y-89960401D01*
X119106202Y-90092328D01*
X119106206Y-90092335D01*
X119192452Y-90207544D01*
X119192455Y-90207547D01*
X119307664Y-90293793D01*
X119307671Y-90293797D01*
X119442517Y-90344091D01*
X119442516Y-90344091D01*
X119449444Y-90344835D01*
X119502127Y-90350500D01*
X121297872Y-90350499D01*
X121357483Y-90344091D01*
X121492331Y-90293796D01*
X121607546Y-90207546D01*
X121693796Y-90092331D01*
X121744091Y-89957483D01*
X121750500Y-89897873D01*
X121750499Y-88102128D01*
X121744091Y-88042517D01*
X121743002Y-88039598D01*
X121693797Y-87907671D01*
X121693793Y-87907664D01*
X121607547Y-87792455D01*
X121607544Y-87792452D01*
X121492335Y-87706206D01*
X121492328Y-87706202D01*
X121357482Y-87655908D01*
X121357483Y-87655908D01*
X121297883Y-87649501D01*
X121297881Y-87649500D01*
X121297873Y-87649500D01*
X121297864Y-87649500D01*
X119502129Y-87649500D01*
X119502123Y-87649501D01*
X119442516Y-87655908D01*
X119307671Y-87706202D01*
X119307664Y-87706206D01*
X119192455Y-87792452D01*
X119192452Y-87792455D01*
X119106206Y-87907664D01*
X119106202Y-87907671D01*
X119056997Y-88039598D01*
X119015126Y-88095532D01*
X118949661Y-88119949D01*
X118881388Y-88105097D01*
X118853134Y-88083946D01*
X118731082Y-87961894D01*
X118537578Y-87826399D01*
X118323492Y-87726570D01*
X118323486Y-87726567D01*
X118110000Y-87669364D01*
X118110000Y-88564498D01*
X118002315Y-88515320D01*
X117895763Y-88500000D01*
X117824237Y-88500000D01*
X117717685Y-88515320D01*
X117610000Y-88564498D01*
X117610000Y-87669364D01*
X117609999Y-87669364D01*
X117396513Y-87726567D01*
X117396507Y-87726570D01*
X117182422Y-87826399D01*
X117182420Y-87826400D01*
X116988926Y-87961886D01*
X116988920Y-87961891D01*
X116821891Y-88128920D01*
X116821890Y-88128922D01*
X116691880Y-88314595D01*
X116637303Y-88358219D01*
X116567804Y-88365412D01*
X116505450Y-88333890D01*
X116488730Y-88314594D01*
X116358494Y-88128597D01*
X116191402Y-87961506D01*
X116191395Y-87961501D01*
X115997834Y-87825967D01*
X115997830Y-87825965D01*
X115945500Y-87801563D01*
X115783663Y-87726097D01*
X115783659Y-87726096D01*
X115783655Y-87726094D01*
X115555413Y-87664938D01*
X115555403Y-87664936D01*
X115320001Y-87644341D01*
X115319999Y-87644341D01*
X115084596Y-87664936D01*
X115084586Y-87664938D01*
X114856344Y-87726094D01*
X114856335Y-87726098D01*
X114642171Y-87825964D01*
X114642169Y-87825965D01*
X114448597Y-87961505D01*
X114281508Y-88128594D01*
X114151574Y-88314159D01*
X114096997Y-88357784D01*
X114027498Y-88364976D01*
X113965144Y-88333454D01*
X113948424Y-88314158D01*
X113818494Y-88128597D01*
X113651402Y-87961506D01*
X113651395Y-87961501D01*
X113457834Y-87825967D01*
X113457830Y-87825965D01*
X113405500Y-87801563D01*
X113243663Y-87726097D01*
X113243659Y-87726096D01*
X113243655Y-87726094D01*
X113015413Y-87664938D01*
X113015403Y-87664936D01*
X112780001Y-87644341D01*
X112779999Y-87644341D01*
X112544596Y-87664936D01*
X112544586Y-87664938D01*
X112316344Y-87726094D01*
X112316335Y-87726098D01*
X112102171Y-87825964D01*
X112102169Y-87825965D01*
X111908597Y-87961505D01*
X111741505Y-88128597D01*
X111611575Y-88314158D01*
X111556998Y-88357783D01*
X111487500Y-88364977D01*
X111425145Y-88333454D01*
X111408425Y-88314158D01*
X111278494Y-88128597D01*
X111111402Y-87961506D01*
X111111395Y-87961501D01*
X110917834Y-87825967D01*
X110917830Y-87825965D01*
X110865500Y-87801563D01*
X110703663Y-87726097D01*
X110703659Y-87726096D01*
X110703655Y-87726094D01*
X110475413Y-87664938D01*
X110475403Y-87664936D01*
X110240001Y-87644341D01*
X110239999Y-87644341D01*
X110004596Y-87664936D01*
X110004586Y-87664938D01*
X109776344Y-87726094D01*
X109776335Y-87726098D01*
X109562171Y-87825964D01*
X109562169Y-87825965D01*
X109368597Y-87961505D01*
X109201505Y-88128597D01*
X109071575Y-88314158D01*
X109016998Y-88357783D01*
X108947500Y-88364977D01*
X108885145Y-88333454D01*
X108868425Y-88314158D01*
X108738494Y-88128597D01*
X108571402Y-87961506D01*
X108571395Y-87961501D01*
X108377834Y-87825967D01*
X108377830Y-87825965D01*
X108325500Y-87801563D01*
X108163663Y-87726097D01*
X108163659Y-87726096D01*
X108163655Y-87726094D01*
X107935413Y-87664938D01*
X107935403Y-87664936D01*
X107700001Y-87644341D01*
X107699999Y-87644341D01*
X107464596Y-87664936D01*
X107464586Y-87664938D01*
X107236344Y-87726094D01*
X107236335Y-87726098D01*
X107022171Y-87825964D01*
X107022169Y-87825965D01*
X106828597Y-87961505D01*
X106661505Y-88128597D01*
X106531575Y-88314158D01*
X106476998Y-88357783D01*
X106407500Y-88364977D01*
X106345145Y-88333454D01*
X106328425Y-88314158D01*
X106198494Y-88128597D01*
X106031402Y-87961506D01*
X106031395Y-87961501D01*
X105837834Y-87825967D01*
X105837830Y-87825965D01*
X105785500Y-87801563D01*
X105623663Y-87726097D01*
X105623659Y-87726096D01*
X105623655Y-87726094D01*
X105395413Y-87664938D01*
X105395403Y-87664936D01*
X105160001Y-87644341D01*
X105159999Y-87644341D01*
X104924596Y-87664936D01*
X104924586Y-87664938D01*
X104696344Y-87726094D01*
X104696335Y-87726098D01*
X104482171Y-87825964D01*
X104482169Y-87825965D01*
X104288597Y-87961505D01*
X104121505Y-88128597D01*
X103991575Y-88314158D01*
X103936998Y-88357783D01*
X103867500Y-88364977D01*
X103805145Y-88333454D01*
X103788425Y-88314158D01*
X103658494Y-88128597D01*
X103491402Y-87961506D01*
X103491395Y-87961501D01*
X103297834Y-87825967D01*
X103297830Y-87825965D01*
X103245500Y-87801563D01*
X103083663Y-87726097D01*
X103083659Y-87726096D01*
X103083655Y-87726094D01*
X102855413Y-87664938D01*
X102855403Y-87664936D01*
X102620001Y-87644341D01*
X102619999Y-87644341D01*
X102384596Y-87664936D01*
X102384586Y-87664938D01*
X102156344Y-87726094D01*
X102156335Y-87726098D01*
X101942171Y-87825964D01*
X101942169Y-87825965D01*
X101748597Y-87961505D01*
X101581505Y-88128597D01*
X101451575Y-88314158D01*
X101396998Y-88357783D01*
X101327500Y-88364977D01*
X101265145Y-88333454D01*
X101248425Y-88314158D01*
X101118494Y-88128597D01*
X100951402Y-87961506D01*
X100951395Y-87961501D01*
X100757834Y-87825967D01*
X100757830Y-87825965D01*
X100705500Y-87801563D01*
X100543663Y-87726097D01*
X100543659Y-87726096D01*
X100543655Y-87726094D01*
X100315413Y-87664938D01*
X100315403Y-87664936D01*
X100080001Y-87644341D01*
X100079999Y-87644341D01*
X99844596Y-87664936D01*
X99844586Y-87664938D01*
X99616344Y-87726094D01*
X99616335Y-87726098D01*
X99402171Y-87825964D01*
X99402169Y-87825965D01*
X99208597Y-87961505D01*
X99041505Y-88128597D01*
X98911575Y-88314158D01*
X98856998Y-88357783D01*
X98787500Y-88364977D01*
X98725145Y-88333454D01*
X98708425Y-88314158D01*
X98578494Y-88128597D01*
X98411402Y-87961506D01*
X98411395Y-87961501D01*
X98217834Y-87825967D01*
X98217830Y-87825965D01*
X98165500Y-87801563D01*
X98003663Y-87726097D01*
X98003659Y-87726096D01*
X98003655Y-87726094D01*
X97775413Y-87664938D01*
X97775403Y-87664936D01*
X97540001Y-87644341D01*
X97539999Y-87644341D01*
X97304596Y-87664936D01*
X97304586Y-87664938D01*
X97076344Y-87726094D01*
X97076335Y-87726098D01*
X96862171Y-87825964D01*
X96862169Y-87825965D01*
X96668597Y-87961505D01*
X96501505Y-88128597D01*
X96371575Y-88314158D01*
X96316998Y-88357783D01*
X96247500Y-88364977D01*
X96185145Y-88333454D01*
X96168425Y-88314158D01*
X96038494Y-88128597D01*
X95871404Y-87961508D01*
X95871402Y-87961506D01*
X95871401Y-87961505D01*
X95871396Y-87961501D01*
X95871393Y-87961499D01*
X95743876Y-87872209D01*
X95700251Y-87817632D01*
X95691000Y-87770635D01*
X95691000Y-85897870D01*
X119149500Y-85897870D01*
X119149501Y-85897876D01*
X119155908Y-85957483D01*
X119206202Y-86092328D01*
X119206206Y-86092335D01*
X119292452Y-86207544D01*
X119292455Y-86207547D01*
X119407664Y-86293793D01*
X119407671Y-86293797D01*
X119542517Y-86344091D01*
X119542516Y-86344091D01*
X119549444Y-86344835D01*
X119602127Y-86350500D01*
X121397872Y-86350499D01*
X121457483Y-86344091D01*
X121592331Y-86293796D01*
X121707546Y-86207546D01*
X121793796Y-86092331D01*
X121844091Y-85957483D01*
X121850500Y-85897873D01*
X121850499Y-84102128D01*
X121844091Y-84042517D01*
X121793796Y-83907669D01*
X121793795Y-83907668D01*
X121793793Y-83907664D01*
X121707547Y-83792455D01*
X121707544Y-83792452D01*
X121592335Y-83706206D01*
X121592328Y-83706202D01*
X121457482Y-83655908D01*
X121457483Y-83655908D01*
X121397883Y-83649501D01*
X121397881Y-83649500D01*
X121397873Y-83649500D01*
X121397864Y-83649500D01*
X119602129Y-83649500D01*
X119602123Y-83649501D01*
X119542516Y-83655908D01*
X119407671Y-83706202D01*
X119407664Y-83706206D01*
X119292455Y-83792452D01*
X119292452Y-83792455D01*
X119206206Y-83907664D01*
X119206202Y-83907671D01*
X119155908Y-84042517D01*
X119149501Y-84102116D01*
X119149501Y-84102123D01*
X119149500Y-84102135D01*
X119149500Y-85897870D01*
X95691000Y-85897870D01*
X95691000Y-83837583D01*
X95710685Y-83770544D01*
X95727319Y-83749902D01*
X95749902Y-83727319D01*
X95811225Y-83693834D01*
X95837583Y-83691000D01*
X111977247Y-83691000D01*
X111980992Y-83691113D01*
X112042026Y-83694805D01*
X112042026Y-83694804D01*
X112042028Y-83694805D01*
X112102185Y-83683779D01*
X112105870Y-83683219D01*
X112166582Y-83675848D01*
X112175788Y-83672356D01*
X112197403Y-83666330D01*
X112207085Y-83664557D01*
X112262865Y-83639451D01*
X112266281Y-83638037D01*
X112323482Y-83616344D01*
X112331579Y-83610754D01*
X112351139Y-83599722D01*
X112360105Y-83595688D01*
X112408249Y-83557968D01*
X112411255Y-83555757D01*
X112461583Y-83521020D01*
X112502144Y-83475234D01*
X112504678Y-83472542D01*
X113042534Y-82934685D01*
X113045226Y-82932151D01*
X113091020Y-82891583D01*
X113125779Y-82841222D01*
X113127959Y-82838260D01*
X113165688Y-82790105D01*
X113169725Y-82781133D01*
X113180753Y-82761581D01*
X113186344Y-82753482D01*
X113208031Y-82696294D01*
X113209444Y-82692882D01*
X113234558Y-82637085D01*
X113236332Y-82627399D01*
X113242361Y-82605774D01*
X113245848Y-82596582D01*
X113253216Y-82535891D01*
X113253780Y-82532188D01*
X113256232Y-82518801D01*
X113264805Y-82472028D01*
X113261113Y-82410991D01*
X113261000Y-82407246D01*
X113261000Y-80799500D01*
X113261000Y-78729359D01*
X113280684Y-78662324D01*
X113313873Y-78627790D01*
X113441401Y-78538495D01*
X113608495Y-78371401D01*
X113738424Y-78185842D01*
X113793002Y-78142217D01*
X113862500Y-78135023D01*
X113924855Y-78166546D01*
X113941575Y-78185842D01*
X114071500Y-78371395D01*
X114071505Y-78371401D01*
X114238599Y-78538495D01*
X114315135Y-78592086D01*
X114432165Y-78674032D01*
X114432167Y-78674033D01*
X114432170Y-78674035D01*
X114646337Y-78773903D01*
X114874592Y-78835063D01*
X115045319Y-78850000D01*
X115109999Y-78855659D01*
X115110000Y-78855659D01*
X115110001Y-78855659D01*
X115174681Y-78850000D01*
X115345408Y-78835063D01*
X115573663Y-78773903D01*
X115787830Y-78674035D01*
X115981401Y-78538495D01*
X116103717Y-78416178D01*
X116165036Y-78382696D01*
X116234728Y-78387680D01*
X116290662Y-78429551D01*
X116307577Y-78460528D01*
X116356646Y-78592088D01*
X116356649Y-78592093D01*
X116442809Y-78707187D01*
X116442812Y-78707190D01*
X116557906Y-78793350D01*
X116557913Y-78793354D01*
X116692620Y-78843596D01*
X116692627Y-78843598D01*
X116752155Y-78849999D01*
X116752172Y-78850000D01*
X117400000Y-78850000D01*
X117400000Y-77935501D01*
X117507685Y-77984680D01*
X117614237Y-78000000D01*
X117685763Y-78000000D01*
X117792315Y-77984680D01*
X117900000Y-77935501D01*
X117900000Y-78850000D01*
X118547828Y-78850000D01*
X118547844Y-78849999D01*
X118607372Y-78843598D01*
X118607379Y-78843596D01*
X118742086Y-78793354D01*
X118742093Y-78793350D01*
X118857187Y-78707190D01*
X118857190Y-78707187D01*
X118943350Y-78592093D01*
X118943354Y-78592086D01*
X118993596Y-78457379D01*
X118993598Y-78457372D01*
X118999999Y-78397844D01*
X119000000Y-78397827D01*
X119000000Y-77750000D01*
X118083686Y-77750000D01*
X118109493Y-77709844D01*
X118150000Y-77571889D01*
X118150000Y-77428111D01*
X118109493Y-77290156D01*
X118083686Y-77250000D01*
X119000000Y-77250000D01*
X119000000Y-76602172D01*
X118999999Y-76602155D01*
X118993598Y-76542627D01*
X118993596Y-76542620D01*
X118943354Y-76407913D01*
X118943350Y-76407906D01*
X118857190Y-76292812D01*
X118857187Y-76292809D01*
X118742093Y-76206649D01*
X118742086Y-76206645D01*
X118607379Y-76156403D01*
X118607372Y-76156401D01*
X118547844Y-76150000D01*
X117900000Y-76150000D01*
X117900000Y-77064498D01*
X117792315Y-77015320D01*
X117685763Y-77000000D01*
X117614237Y-77000000D01*
X117507685Y-77015320D01*
X117400000Y-77064498D01*
X117400000Y-76150000D01*
X116752155Y-76150000D01*
X116692627Y-76156401D01*
X116692620Y-76156403D01*
X116557913Y-76206645D01*
X116557906Y-76206649D01*
X116442812Y-76292809D01*
X116442809Y-76292812D01*
X116356649Y-76407906D01*
X116356645Y-76407913D01*
X116307578Y-76539470D01*
X116265707Y-76595404D01*
X116200242Y-76619821D01*
X116131969Y-76604969D01*
X116103715Y-76583819D01*
X116059366Y-76539470D01*
X115981401Y-76461505D01*
X115981397Y-76461502D01*
X115981396Y-76461501D01*
X115787834Y-76325967D01*
X115787830Y-76325965D01*
X115716727Y-76292809D01*
X115573663Y-76226097D01*
X115573659Y-76226096D01*
X115573655Y-76226094D01*
X115345413Y-76164938D01*
X115345403Y-76164936D01*
X115110001Y-76144341D01*
X115109999Y-76144341D01*
X114874596Y-76164936D01*
X114874586Y-76164938D01*
X114646344Y-76226094D01*
X114646335Y-76226098D01*
X114432171Y-76325964D01*
X114432169Y-76325965D01*
X114238597Y-76461505D01*
X114071505Y-76628597D01*
X113941575Y-76814158D01*
X113886998Y-76857783D01*
X113817500Y-76864977D01*
X113755145Y-76833454D01*
X113738425Y-76814158D01*
X113608494Y-76628597D01*
X113441402Y-76461506D01*
X113441395Y-76461501D01*
X113247834Y-76325967D01*
X113247830Y-76325965D01*
X113176727Y-76292809D01*
X113033663Y-76226097D01*
X113033659Y-76226096D01*
X113033655Y-76226094D01*
X112805413Y-76164938D01*
X112805403Y-76164936D01*
X112570001Y-76144341D01*
X112569999Y-76144341D01*
X112334596Y-76164936D01*
X112334586Y-76164938D01*
X112106344Y-76226094D01*
X112106335Y-76226098D01*
X111892171Y-76325964D01*
X111892169Y-76325965D01*
X111698597Y-76461505D01*
X111531505Y-76628597D01*
X111401575Y-76814158D01*
X111346998Y-76857783D01*
X111277500Y-76864977D01*
X111215145Y-76833454D01*
X111198425Y-76814158D01*
X111068494Y-76628597D01*
X110901402Y-76461506D01*
X110901395Y-76461501D01*
X110707834Y-76325967D01*
X110707830Y-76325965D01*
X110636727Y-76292809D01*
X110493663Y-76226097D01*
X110493659Y-76226096D01*
X110493655Y-76226094D01*
X110265413Y-76164938D01*
X110265403Y-76164936D01*
X110030001Y-76144341D01*
X110029999Y-76144341D01*
X109794596Y-76164936D01*
X109794586Y-76164938D01*
X109566344Y-76226094D01*
X109566335Y-76226098D01*
X109352171Y-76325964D01*
X109352169Y-76325965D01*
X109158597Y-76461505D01*
X108991505Y-76628597D01*
X108861575Y-76814158D01*
X108806998Y-76857783D01*
X108737500Y-76864977D01*
X108675145Y-76833454D01*
X108658425Y-76814158D01*
X108528494Y-76628597D01*
X108361402Y-76461506D01*
X108361395Y-76461501D01*
X108167834Y-76325967D01*
X108167830Y-76325965D01*
X108096727Y-76292809D01*
X107953663Y-76226097D01*
X107953659Y-76226096D01*
X107953655Y-76226094D01*
X107725413Y-76164938D01*
X107725403Y-76164936D01*
X107490001Y-76144341D01*
X107489999Y-76144341D01*
X107254596Y-76164936D01*
X107254586Y-76164938D01*
X107026344Y-76226094D01*
X107026335Y-76226098D01*
X106812171Y-76325964D01*
X106812169Y-76325965D01*
X106618597Y-76461505D01*
X106451505Y-76628597D01*
X106321575Y-76814158D01*
X106266998Y-76857783D01*
X106197500Y-76864977D01*
X106135145Y-76833454D01*
X106118425Y-76814158D01*
X105988494Y-76628597D01*
X105821402Y-76461506D01*
X105821395Y-76461501D01*
X105627834Y-76325967D01*
X105627830Y-76325965D01*
X105556727Y-76292809D01*
X105413663Y-76226097D01*
X105413659Y-76226096D01*
X105413655Y-76226094D01*
X105185413Y-76164938D01*
X105185403Y-76164936D01*
X104950001Y-76144341D01*
X104949999Y-76144341D01*
X104714596Y-76164936D01*
X104714586Y-76164938D01*
X104486344Y-76226094D01*
X104486335Y-76226098D01*
X104272171Y-76325964D01*
X104272169Y-76325965D01*
X104078597Y-76461505D01*
X103911505Y-76628597D01*
X103781575Y-76814158D01*
X103726998Y-76857783D01*
X103657500Y-76864977D01*
X103595145Y-76833454D01*
X103578425Y-76814158D01*
X103448494Y-76628597D01*
X103281402Y-76461506D01*
X103281395Y-76461501D01*
X103087834Y-76325967D01*
X103087830Y-76325965D01*
X103016727Y-76292809D01*
X102873663Y-76226097D01*
X102873659Y-76226096D01*
X102873655Y-76226094D01*
X102645413Y-76164938D01*
X102645403Y-76164936D01*
X102410001Y-76144341D01*
X102409999Y-76144341D01*
X102174596Y-76164936D01*
X102174586Y-76164938D01*
X101946344Y-76226094D01*
X101946335Y-76226098D01*
X101732171Y-76325964D01*
X101732169Y-76325965D01*
X101538597Y-76461505D01*
X101371505Y-76628597D01*
X101241575Y-76814158D01*
X101186998Y-76857783D01*
X101117500Y-76864977D01*
X101055145Y-76833454D01*
X101038425Y-76814158D01*
X100908494Y-76628597D01*
X100741402Y-76461506D01*
X100741395Y-76461501D01*
X100547834Y-76325967D01*
X100547830Y-76325965D01*
X100476727Y-76292809D01*
X100333663Y-76226097D01*
X100333659Y-76226096D01*
X100333655Y-76226094D01*
X100105413Y-76164938D01*
X100105403Y-76164936D01*
X99870001Y-76144341D01*
X99869999Y-76144341D01*
X99634596Y-76164936D01*
X99634586Y-76164938D01*
X99406344Y-76226094D01*
X99406335Y-76226098D01*
X99192171Y-76325964D01*
X99192169Y-76325965D01*
X98998597Y-76461505D01*
X98831508Y-76628594D01*
X98701574Y-76814159D01*
X98646997Y-76857784D01*
X98577498Y-76864976D01*
X98515144Y-76833454D01*
X98498424Y-76814158D01*
X98368494Y-76628597D01*
X98201402Y-76461506D01*
X98201395Y-76461501D01*
X98007834Y-76325967D01*
X98007830Y-76325965D01*
X97936727Y-76292809D01*
X97793663Y-76226097D01*
X97793659Y-76226096D01*
X97793655Y-76226094D01*
X97565413Y-76164938D01*
X97565403Y-76164936D01*
X97330001Y-76144341D01*
X97329999Y-76144341D01*
X97094596Y-76164936D01*
X97094586Y-76164938D01*
X96866344Y-76226094D01*
X96866335Y-76226098D01*
X96652171Y-76325964D01*
X96652169Y-76325965D01*
X96458597Y-76461505D01*
X96291505Y-76628597D01*
X96155965Y-76822169D01*
X96155964Y-76822171D01*
X96056098Y-77036335D01*
X96056094Y-77036344D01*
X95994938Y-77264586D01*
X95994936Y-77264596D01*
X95974341Y-77499999D01*
X95974341Y-77500000D01*
X95994936Y-77735403D01*
X95994938Y-77735413D01*
X96056094Y-77963655D01*
X96056096Y-77963659D01*
X96056097Y-77963663D01*
X96136004Y-78135023D01*
X96155965Y-78177830D01*
X96155967Y-78177834D01*
X96264281Y-78332521D01*
X96291505Y-78371401D01*
X96458599Y-78538495D01*
X96535135Y-78592086D01*
X96652165Y-78674032D01*
X96652167Y-78674033D01*
X96652170Y-78674035D01*
X96866337Y-78773903D01*
X97094592Y-78835063D01*
X97265319Y-78850000D01*
X97329999Y-78855659D01*
X97330000Y-78855659D01*
X97330001Y-78855659D01*
X97394681Y-78850000D01*
X97565408Y-78835063D01*
X97793663Y-78773903D01*
X98007830Y-78674035D01*
X98201401Y-78538495D01*
X98368495Y-78371401D01*
X98498424Y-78185842D01*
X98553002Y-78142217D01*
X98622500Y-78135023D01*
X98684855Y-78166546D01*
X98701575Y-78185842D01*
X98831500Y-78371395D01*
X98831505Y-78371401D01*
X98998599Y-78538495D01*
X99075135Y-78592086D01*
X99192165Y-78674032D01*
X99192167Y-78674033D01*
X99192170Y-78674035D01*
X99406337Y-78773903D01*
X99634592Y-78835063D01*
X99805319Y-78850000D01*
X99869999Y-78855659D01*
X99870000Y-78855659D01*
X99870001Y-78855659D01*
X99934681Y-78850000D01*
X100105408Y-78835063D01*
X100333663Y-78773903D01*
X100547830Y-78674035D01*
X100741401Y-78538495D01*
X100908495Y-78371401D01*
X101038424Y-78185842D01*
X101093002Y-78142217D01*
X101162500Y-78135023D01*
X101224855Y-78166546D01*
X101241575Y-78185842D01*
X101371500Y-78371395D01*
X101371505Y-78371401D01*
X101538599Y-78538495D01*
X101615135Y-78592086D01*
X101732165Y-78674032D01*
X101732167Y-78674033D01*
X101732170Y-78674035D01*
X101946337Y-78773903D01*
X102174592Y-78835063D01*
X102345319Y-78850000D01*
X102409999Y-78855659D01*
X102410000Y-78855659D01*
X102410001Y-78855659D01*
X102474681Y-78850000D01*
X102645408Y-78835063D01*
X102873663Y-78773903D01*
X103087830Y-78674035D01*
X103281401Y-78538495D01*
X103448495Y-78371401D01*
X103578424Y-78185842D01*
X103633002Y-78142217D01*
X103702500Y-78135023D01*
X103764855Y-78166546D01*
X103781575Y-78185842D01*
X103911500Y-78371395D01*
X103911505Y-78371401D01*
X104078599Y-78538495D01*
X104155135Y-78592086D01*
X104272165Y-78674032D01*
X104272167Y-78674033D01*
X104272170Y-78674035D01*
X104486337Y-78773903D01*
X104714592Y-78835063D01*
X104885319Y-78850000D01*
X104949999Y-78855659D01*
X104950000Y-78855659D01*
X104950001Y-78855659D01*
X105014681Y-78850000D01*
X105185408Y-78835063D01*
X105413663Y-78773903D01*
X105627830Y-78674035D01*
X105821401Y-78538495D01*
X105988495Y-78371401D01*
X106118424Y-78185842D01*
X106173002Y-78142217D01*
X106242500Y-78135023D01*
X106304855Y-78166546D01*
X106321575Y-78185842D01*
X106451501Y-78371396D01*
X106451506Y-78371402D01*
X106618597Y-78538493D01*
X106618603Y-78538498D01*
X106746123Y-78627788D01*
X106789748Y-78682365D01*
X106799000Y-78729363D01*
X106799000Y-79672416D01*
X106779315Y-79739455D01*
X106762681Y-79760097D01*
X106250097Y-80272681D01*
X106188774Y-80306166D01*
X106162416Y-80309000D01*
X91022753Y-80309000D01*
X91019008Y-80308887D01*
X90957975Y-80305195D01*
X90957973Y-80305195D01*
X90957972Y-80305195D01*
X90952673Y-80306166D01*
X90897828Y-80316215D01*
X90894129Y-80316778D01*
X90833422Y-80324150D01*
X90833419Y-80324151D01*
X90824216Y-80327641D01*
X90802608Y-80333665D01*
X90792917Y-80335441D01*
X90737147Y-80360540D01*
X90733689Y-80361972D01*
X90676517Y-80383655D01*
X90668408Y-80389253D01*
X90648873Y-80400271D01*
X90639896Y-80404311D01*
X90639894Y-80404312D01*
X90591763Y-80442019D01*
X90588748Y-80444237D01*
X90538418Y-80478979D01*
X90538411Y-80478985D01*
X90497856Y-80524762D01*
X90495289Y-80527488D01*
X89447480Y-81575296D01*
X89444754Y-81577863D01*
X89398985Y-81618411D01*
X89398977Y-81618420D01*
X89364235Y-81668753D01*
X89362015Y-81671769D01*
X89324313Y-81719894D01*
X89324311Y-81719896D01*
X89320271Y-81728873D01*
X89309253Y-81748408D01*
X89303655Y-81756519D01*
X89281968Y-81813700D01*
X89280536Y-81817158D01*
X89255442Y-81872916D01*
X89253666Y-81882606D01*
X89247645Y-81904203D01*
X89244152Y-81913414D01*
X89244152Y-81913415D01*
X89236780Y-81974124D01*
X89236217Y-81977826D01*
X89225195Y-82037969D01*
X89225195Y-82037972D01*
X89228887Y-82099006D01*
X89229000Y-82102751D01*
X89229000Y-87770636D01*
X89209315Y-87837675D01*
X89176124Y-87872211D01*
X89048599Y-87961505D01*
X89048597Y-87961506D01*
X88881505Y-88128597D01*
X88751575Y-88314158D01*
X88696998Y-88357783D01*
X88627500Y-88364977D01*
X88565145Y-88333454D01*
X88548425Y-88314158D01*
X88418494Y-88128597D01*
X88251402Y-87961506D01*
X88251401Y-87961505D01*
X88074554Y-87837675D01*
X88058376Y-87826347D01*
X88014751Y-87771770D01*
X88005500Y-87724772D01*
X88005500Y-74930452D01*
X88025185Y-74863413D01*
X88041819Y-74842771D01*
X88222772Y-74661819D01*
X88284095Y-74628334D01*
X88310453Y-74625500D01*
X96917257Y-74625500D01*
X96932877Y-74627224D01*
X96932904Y-74626939D01*
X96940666Y-74627673D01*
X96940666Y-74627672D01*
X96940667Y-74627673D01*
X96943999Y-74627568D01*
X97008847Y-74625531D01*
X97010794Y-74625500D01*
X97039347Y-74625500D01*
X97039350Y-74625500D01*
X97046228Y-74624630D01*
X97052041Y-74624172D01*
X97098627Y-74622709D01*
X97117869Y-74617117D01*
X97136912Y-74613174D01*
X97156792Y-74610664D01*
X97200122Y-74593507D01*
X97205646Y-74591617D01*
X97209396Y-74590527D01*
X97250390Y-74578618D01*
X97267629Y-74568422D01*
X97285103Y-74559862D01*
X97303727Y-74552488D01*
X97303727Y-74552487D01*
X97303732Y-74552486D01*
X97341449Y-74525082D01*
X97346305Y-74521892D01*
X97386420Y-74498170D01*
X97400589Y-74483999D01*
X97415379Y-74471368D01*
X97431587Y-74459594D01*
X97461299Y-74423676D01*
X97465212Y-74419376D01*
X98163786Y-73720802D01*
X98176048Y-73710980D01*
X98175865Y-73710759D01*
X98181873Y-73705788D01*
X98181877Y-73705786D01*
X98228649Y-73655977D01*
X98229891Y-73654697D01*
X98250120Y-73634470D01*
X98254373Y-73628986D01*
X98258150Y-73624563D01*
X98290062Y-73590582D01*
X98299714Y-73573023D01*
X98310389Y-73556772D01*
X98322674Y-73540936D01*
X98341186Y-73498152D01*
X98343742Y-73492935D01*
X98366197Y-73452092D01*
X98371180Y-73432680D01*
X98377477Y-73414291D01*
X98385438Y-73395895D01*
X98392729Y-73349853D01*
X98393908Y-73344162D01*
X98405500Y-73299019D01*
X98405500Y-73278982D01*
X98407027Y-73259582D01*
X98410160Y-73239804D01*
X98405775Y-73193415D01*
X98405500Y-73187577D01*
X98405500Y-57275226D01*
X98425185Y-57208187D01*
X98458374Y-57173654D01*
X98651401Y-57038495D01*
X98818495Y-56871401D01*
X98948426Y-56685841D01*
X99003002Y-56642217D01*
X99072500Y-56635023D01*
X99134855Y-56666546D01*
X99151575Y-56685842D01*
X99281500Y-56871395D01*
X99281505Y-56871401D01*
X99448599Y-57038495D01*
X99525135Y-57092086D01*
X99642165Y-57174032D01*
X99642167Y-57174033D01*
X99642170Y-57174035D01*
X99856337Y-57273903D01*
X99856343Y-57273904D01*
X99856344Y-57273905D01*
X99911285Y-57288626D01*
X100084592Y-57335063D01*
X100255319Y-57350000D01*
X100319999Y-57355659D01*
X100320000Y-57355659D01*
X100320001Y-57355659D01*
X100384681Y-57350000D01*
X100555408Y-57335063D01*
X100783663Y-57273903D01*
X100997830Y-57174035D01*
X101191401Y-57038495D01*
X101358495Y-56871401D01*
X101494035Y-56677830D01*
X101593903Y-56463663D01*
X101655063Y-56235408D01*
X101675659Y-56000000D01*
X101655063Y-55764592D01*
X101593903Y-55536337D01*
X101494035Y-55322171D01*
X101488425Y-55314158D01*
X101358494Y-55128597D01*
X101191402Y-54961506D01*
X101191395Y-54961501D01*
X100997834Y-54825967D01*
X100997830Y-54825965D01*
X100926727Y-54792809D01*
X100783663Y-54726097D01*
X100783659Y-54726096D01*
X100783655Y-54726094D01*
X100555413Y-54664938D01*
X100555403Y-54664936D01*
X100320001Y-54644341D01*
X100319999Y-54644341D01*
X100084596Y-54664936D01*
X100084586Y-54664938D01*
X99856344Y-54726094D01*
X99856335Y-54726098D01*
X99642171Y-54825964D01*
X99642169Y-54825965D01*
X99448597Y-54961505D01*
X99281505Y-55128597D01*
X99151575Y-55314158D01*
X99096998Y-55357783D01*
X99027500Y-55364977D01*
X98965145Y-55333454D01*
X98948425Y-55314158D01*
X98818494Y-55128597D01*
X98651402Y-54961506D01*
X98651395Y-54961501D01*
X98457834Y-54825967D01*
X98457830Y-54825965D01*
X98386727Y-54792809D01*
X98243663Y-54726097D01*
X98243659Y-54726096D01*
X98243655Y-54726094D01*
X98015413Y-54664938D01*
X98015403Y-54664936D01*
X97780001Y-54644341D01*
X97779999Y-54644341D01*
X97544596Y-54664936D01*
X97544586Y-54664938D01*
X97316344Y-54726094D01*
X97316335Y-54726098D01*
X97102171Y-54825964D01*
X97102169Y-54825965D01*
X96908597Y-54961505D01*
X96741508Y-55128594D01*
X96611574Y-55314159D01*
X96556997Y-55357784D01*
X96487498Y-55364976D01*
X96425144Y-55333454D01*
X96408424Y-55314158D01*
X96278494Y-55128597D01*
X96111402Y-54961506D01*
X96111395Y-54961501D01*
X95917834Y-54825967D01*
X95917830Y-54825965D01*
X95846727Y-54792809D01*
X95703663Y-54726097D01*
X95703659Y-54726096D01*
X95703655Y-54726094D01*
X95475413Y-54664938D01*
X95475403Y-54664936D01*
X95240001Y-54644341D01*
X95239999Y-54644341D01*
X95004596Y-54664936D01*
X95004586Y-54664938D01*
X94776344Y-54726094D01*
X94776335Y-54726098D01*
X94562171Y-54825964D01*
X94562169Y-54825965D01*
X94368600Y-54961503D01*
X94246284Y-55083819D01*
X94184961Y-55117303D01*
X94115269Y-55112319D01*
X94059336Y-55070447D01*
X94042421Y-55039470D01*
X93993354Y-54907913D01*
X93993350Y-54907906D01*
X93907190Y-54792812D01*
X93907187Y-54792809D01*
X93792093Y-54706649D01*
X93792086Y-54706645D01*
X93657379Y-54656403D01*
X93657372Y-54656401D01*
X93597844Y-54650000D01*
X92950000Y-54650000D01*
X92950000Y-55564498D01*
X92842315Y-55515320D01*
X92735763Y-55500000D01*
X92664237Y-55500000D01*
X92557685Y-55515320D01*
X92450000Y-55564498D01*
X92450000Y-54650000D01*
X91802155Y-54650000D01*
X91742627Y-54656401D01*
X91742620Y-54656403D01*
X91607913Y-54706645D01*
X91607906Y-54706649D01*
X91492812Y-54792809D01*
X91492809Y-54792812D01*
X91406649Y-54907906D01*
X91406645Y-54907913D01*
X91356403Y-55042620D01*
X91356401Y-55042627D01*
X91350000Y-55102155D01*
X91350000Y-55102172D01*
X91349999Y-55749999D01*
X91350000Y-55750000D01*
X92266314Y-55750000D01*
X92240507Y-55790156D01*
X92200000Y-55928111D01*
X92200000Y-56071889D01*
X92240507Y-56209844D01*
X92266314Y-56250000D01*
X91350000Y-56250000D01*
X91350000Y-56897844D01*
X91356401Y-56957372D01*
X91356403Y-56957379D01*
X91406645Y-57092086D01*
X91406649Y-57092093D01*
X91492809Y-57207187D01*
X91492812Y-57207190D01*
X91607906Y-57293350D01*
X91607913Y-57293354D01*
X91742620Y-57343596D01*
X91742627Y-57343598D01*
X91802155Y-57349999D01*
X91802172Y-57350000D01*
X92450000Y-57350000D01*
X92450000Y-56435501D01*
X92557685Y-56484680D01*
X92664237Y-56500000D01*
X92735763Y-56500000D01*
X92842315Y-56484680D01*
X92950000Y-56435501D01*
X92950000Y-57350000D01*
X93597828Y-57350000D01*
X93597844Y-57349999D01*
X93657372Y-57343598D01*
X93657379Y-57343596D01*
X93792086Y-57293354D01*
X93792093Y-57293350D01*
X93907187Y-57207190D01*
X93907190Y-57207187D01*
X93993350Y-57092093D01*
X93993354Y-57092086D01*
X94042422Y-56960529D01*
X94084293Y-56904595D01*
X94149757Y-56880178D01*
X94218030Y-56895030D01*
X94246285Y-56916181D01*
X94368597Y-57038493D01*
X94368603Y-57038498D01*
X94561622Y-57173651D01*
X94605247Y-57228228D01*
X94614499Y-57275226D01*
X94614499Y-71449547D01*
X94594814Y-71516586D01*
X94578180Y-71537228D01*
X94277228Y-71838181D01*
X94215905Y-71871666D01*
X94189547Y-71874500D01*
X85832737Y-71874500D01*
X85817120Y-71872776D01*
X85817093Y-71873062D01*
X85809331Y-71872327D01*
X85741171Y-71874469D01*
X85739224Y-71874500D01*
X85710650Y-71874500D01*
X85709929Y-71874590D01*
X85703757Y-71875369D01*
X85697945Y-71875826D01*
X85651378Y-71877290D01*
X85651367Y-71877292D01*
X85632134Y-71882879D01*
X85613094Y-71886822D01*
X85593217Y-71889334D01*
X85593210Y-71889335D01*
X85593208Y-71889336D01*
X85593206Y-71889336D01*
X85593205Y-71889337D01*
X85549868Y-71906494D01*
X85544342Y-71908386D01*
X85499611Y-71921382D01*
X85499608Y-71921383D01*
X85482363Y-71931581D01*
X85464901Y-71940135D01*
X85446272Y-71947511D01*
X85446267Y-71947513D01*
X85408564Y-71974906D01*
X85403682Y-71978112D01*
X85363580Y-72001828D01*
X85349408Y-72016000D01*
X85334623Y-72028628D01*
X85318412Y-72040407D01*
X85288709Y-72076310D01*
X85284777Y-72080631D01*
X84456208Y-72909199D01*
X84443951Y-72919020D01*
X84444134Y-72919241D01*
X84438122Y-72924214D01*
X84391432Y-72973932D01*
X84390079Y-72975329D01*
X84369889Y-72995519D01*
X84369877Y-72995532D01*
X84365621Y-73001017D01*
X84361837Y-73005447D01*
X84329937Y-73039418D01*
X84329936Y-73039420D01*
X84320284Y-73056976D01*
X84309610Y-73073226D01*
X84297329Y-73089061D01*
X84297324Y-73089068D01*
X84278815Y-73131838D01*
X84276245Y-73137084D01*
X84253803Y-73177906D01*
X84248822Y-73197307D01*
X84242521Y-73215710D01*
X84234562Y-73234102D01*
X84234561Y-73234105D01*
X84227271Y-73280127D01*
X84226087Y-73285846D01*
X84214501Y-73330972D01*
X84214500Y-73330982D01*
X84214500Y-73351016D01*
X84212973Y-73370416D01*
X84209839Y-73390194D01*
X84212788Y-73421385D01*
X84214220Y-73436545D01*
X84214224Y-73436580D01*
X84214499Y-73442417D01*
X84214499Y-87724773D01*
X84194814Y-87791812D01*
X84161623Y-87826348D01*
X83968594Y-87961508D01*
X83801505Y-88128597D01*
X83671575Y-88314158D01*
X83616998Y-88357783D01*
X83547500Y-88364977D01*
X83485145Y-88333454D01*
X83468425Y-88314158D01*
X83338494Y-88128597D01*
X83171402Y-87961506D01*
X83171395Y-87961501D01*
X82977834Y-87825967D01*
X82977830Y-87825965D01*
X82925500Y-87801563D01*
X82763663Y-87726097D01*
X82763659Y-87726096D01*
X82763655Y-87726094D01*
X82535413Y-87664938D01*
X82535403Y-87664936D01*
X82300001Y-87644341D01*
X82299999Y-87644341D01*
X82064596Y-87664936D01*
X82064586Y-87664938D01*
X81836344Y-87726094D01*
X81836335Y-87726098D01*
X81622171Y-87825964D01*
X81622169Y-87825965D01*
X81428597Y-87961505D01*
X81261505Y-88128597D01*
X81125965Y-88322169D01*
X81125964Y-88322171D01*
X81026098Y-88536335D01*
X81026094Y-88536344D01*
X80964938Y-88764586D01*
X80964936Y-88764596D01*
X80944341Y-88999999D01*
X80944341Y-89000000D01*
X80964936Y-89235403D01*
X80964938Y-89235413D01*
X81026094Y-89463655D01*
X81026096Y-89463659D01*
X81026097Y-89463663D01*
X81106004Y-89635023D01*
X81125965Y-89677830D01*
X81125967Y-89677834D01*
X81234281Y-89832521D01*
X81261505Y-89871401D01*
X81428599Y-90038495D01*
X81515272Y-90099184D01*
X81622165Y-90174032D01*
X81622167Y-90174033D01*
X81622170Y-90174035D01*
X81836337Y-90273903D01*
X82064592Y-90335063D01*
X82241034Y-90350500D01*
X82299999Y-90355659D01*
X82300000Y-90355659D01*
X82300001Y-90355659D01*
X82358966Y-90350500D01*
X82535408Y-90335063D01*
X82763663Y-90273903D01*
X82977830Y-90174035D01*
X83171401Y-90038495D01*
X83338495Y-89871401D01*
X83468426Y-89685840D01*
X83523001Y-89642217D01*
X83592499Y-89635023D01*
X83654854Y-89666546D01*
X83671574Y-89685841D01*
X83801505Y-89871401D01*
X83801506Y-89871402D01*
X83968597Y-90038493D01*
X83968603Y-90038498D01*
X84032623Y-90083325D01*
X84076248Y-90137901D01*
X84085500Y-90184900D01*
X84085500Y-92276000D01*
X84084191Y-92293969D01*
X84080684Y-92317908D01*
X84083177Y-92346390D01*
X84085092Y-92368284D01*
X84085264Y-92370241D01*
X84085500Y-92375648D01*
X84085500Y-92383947D01*
X84089220Y-92415780D01*
X84089404Y-92417573D01*
X84096056Y-92493610D01*
X84097516Y-92500677D01*
X84097464Y-92500687D01*
X84099123Y-92508167D01*
X84099174Y-92508155D01*
X84100840Y-92515184D01*
X84126945Y-92586909D01*
X84127521Y-92588568D01*
X84151533Y-92661029D01*
X84154586Y-92667575D01*
X84154536Y-92667598D01*
X84157876Y-92674497D01*
X84157925Y-92674473D01*
X84161167Y-92680930D01*
X84203108Y-92744699D01*
X84204077Y-92746219D01*
X84244131Y-92811156D01*
X84248611Y-92816822D01*
X84248569Y-92816855D01*
X84253401Y-92822786D01*
X84253443Y-92822752D01*
X84258083Y-92828282D01*
X84258085Y-92828285D01*
X84313627Y-92880686D01*
X84314853Y-92881877D01*
X84621232Y-93188256D01*
X84921234Y-93488258D01*
X84933015Y-93501890D01*
X84947461Y-93521294D01*
X84987715Y-93555071D01*
X84991687Y-93558711D01*
X84994627Y-93561651D01*
X84997555Y-93564580D01*
X85022718Y-93584476D01*
X85024116Y-93585615D01*
X85082572Y-93634667D01*
X85088609Y-93638637D01*
X85088579Y-93638682D01*
X85095038Y-93642796D01*
X85095067Y-93642750D01*
X85101207Y-93646537D01*
X85101209Y-93646539D01*
X85170400Y-93678803D01*
X85171969Y-93679563D01*
X85239938Y-93713698D01*
X85240189Y-93713824D01*
X85240191Y-93713824D01*
X85246979Y-93716295D01*
X85246960Y-93716347D01*
X85254185Y-93718858D01*
X85254203Y-93718807D01*
X85261055Y-93721077D01*
X85261056Y-93721077D01*
X85261060Y-93721079D01*
X85335856Y-93736523D01*
X85337538Y-93736896D01*
X85411812Y-93754500D01*
X85411815Y-93754500D01*
X85418986Y-93755339D01*
X85418979Y-93755392D01*
X85426594Y-93756170D01*
X85426599Y-93756117D01*
X85433789Y-93756746D01*
X85433793Y-93756745D01*
X85433794Y-93756746D01*
X85461970Y-93755926D01*
X85510097Y-93754526D01*
X85511900Y-93754500D01*
X93811704Y-93754500D01*
X93878743Y-93774185D01*
X93884589Y-93778182D01*
X93982265Y-93849148D01*
X93982270Y-93849151D01*
X94155192Y-93926142D01*
X94155197Y-93926144D01*
X94340354Y-93965500D01*
X94340355Y-93965500D01*
X94529644Y-93965500D01*
X94529646Y-93965500D01*
X94714803Y-93926144D01*
X94887730Y-93849151D01*
X95040871Y-93737888D01*
X95040875Y-93737883D01*
X95041846Y-93737178D01*
X95107652Y-93713698D01*
X95175706Y-93729523D01*
X95187612Y-93737174D01*
X95238553Y-93774185D01*
X95252270Y-93784151D01*
X95425192Y-93861142D01*
X95425197Y-93861144D01*
X95610354Y-93900500D01*
X95610355Y-93900500D01*
X95799644Y-93900500D01*
X95799646Y-93900500D01*
X95984803Y-93861144D01*
X96157730Y-93784151D01*
X96310871Y-93672888D01*
X96437533Y-93532216D01*
X96532179Y-93368284D01*
X96590674Y-93188256D01*
X96610460Y-93000000D01*
X96590674Y-92811744D01*
X96532179Y-92631716D01*
X96476111Y-92534604D01*
X96459500Y-92472606D01*
X96459500Y-92268999D01*
X96460809Y-92251029D01*
X96462909Y-92236692D01*
X96464315Y-92227094D01*
X96463331Y-92215851D01*
X96459736Y-92174756D01*
X96459500Y-92169350D01*
X96459500Y-92161066D01*
X96459500Y-92161059D01*
X96455777Y-92129202D01*
X96455598Y-92127459D01*
X96448943Y-92051388D01*
X96448941Y-92051384D01*
X96447483Y-92044319D01*
X96447536Y-92044307D01*
X96445878Y-92036827D01*
X96445824Y-92036840D01*
X96444160Y-92029822D01*
X96444160Y-92029816D01*
X96418048Y-91958077D01*
X96417480Y-91956443D01*
X96393464Y-91883965D01*
X96393462Y-91883961D01*
X96390409Y-91877412D01*
X96390458Y-91877389D01*
X96387125Y-91870504D01*
X96387076Y-91870529D01*
X96383834Y-91864073D01*
X96341874Y-91800276D01*
X96340931Y-91798796D01*
X96300871Y-91733847D01*
X96300868Y-91733844D01*
X96300867Y-91733842D01*
X96296390Y-91728180D01*
X96296432Y-91728146D01*
X96291597Y-91722211D01*
X96291556Y-91722246D01*
X96286912Y-91716712D01*
X96231405Y-91664344D01*
X96230111Y-91663087D01*
X95578766Y-91011742D01*
X95566984Y-90998109D01*
X95563604Y-90993569D01*
X95552539Y-90978706D01*
X95552537Y-90978704D01*
X95552538Y-90978704D01*
X95524932Y-90955541D01*
X95512285Y-90944928D01*
X95508310Y-90941286D01*
X95505371Y-90938347D01*
X95502443Y-90935418D01*
X95477280Y-90915522D01*
X95475882Y-90914383D01*
X95417427Y-90865333D01*
X95411394Y-90861365D01*
X95411422Y-90861321D01*
X95404961Y-90857204D01*
X95404934Y-90857250D01*
X95398790Y-90853460D01*
X95329625Y-90821208D01*
X95328002Y-90820422D01*
X95259815Y-90786177D01*
X95253031Y-90783708D01*
X95253049Y-90783658D01*
X95245807Y-90781141D01*
X95245791Y-90781191D01*
X95238939Y-90778920D01*
X95178614Y-90766464D01*
X95164192Y-90763486D01*
X95162445Y-90763099D01*
X95088181Y-90745498D01*
X95081014Y-90744661D01*
X95081020Y-90744607D01*
X95073405Y-90743829D01*
X95073401Y-90743883D01*
X95066210Y-90743253D01*
X94989903Y-90745474D01*
X94988100Y-90745500D01*
X88363886Y-90745500D01*
X88296847Y-90725815D01*
X88276205Y-90709181D01*
X88170819Y-90603795D01*
X88137334Y-90542472D01*
X88134500Y-90516114D01*
X88134500Y-90184900D01*
X88154185Y-90117861D01*
X88187377Y-90083325D01*
X88199599Y-90074767D01*
X88251401Y-90038495D01*
X88418495Y-89871401D01*
X88548426Y-89685840D01*
X88603001Y-89642217D01*
X88672499Y-89635023D01*
X88734854Y-89666546D01*
X88751574Y-89685841D01*
X88881505Y-89871401D01*
X89048599Y-90038495D01*
X89135272Y-90099184D01*
X89242165Y-90174032D01*
X89242167Y-90174033D01*
X89242170Y-90174035D01*
X89456337Y-90273903D01*
X89684592Y-90335063D01*
X89861034Y-90350500D01*
X89919999Y-90355659D01*
X89920000Y-90355659D01*
X89920001Y-90355659D01*
X89978966Y-90350500D01*
X90155408Y-90335063D01*
X90383663Y-90273903D01*
X90597830Y-90174035D01*
X90791401Y-90038495D01*
X90958495Y-89871401D01*
X91088426Y-89685840D01*
X91143001Y-89642217D01*
X91212499Y-89635023D01*
X91274854Y-89666546D01*
X91291574Y-89685841D01*
X91421505Y-89871401D01*
X91588599Y-90038495D01*
X91675272Y-90099184D01*
X91782165Y-90174032D01*
X91782167Y-90174033D01*
X91782170Y-90174035D01*
X91996337Y-90273903D01*
X92224592Y-90335063D01*
X92401034Y-90350500D01*
X92459999Y-90355659D01*
X92460000Y-90355659D01*
X92460001Y-90355659D01*
X92518966Y-90350500D01*
X92695408Y-90335063D01*
X92923663Y-90273903D01*
X93137830Y-90174035D01*
X93331401Y-90038495D01*
X93498495Y-89871401D01*
X93628426Y-89685840D01*
X93683001Y-89642217D01*
X93752499Y-89635023D01*
X93814854Y-89666546D01*
X93831574Y-89685841D01*
X93961505Y-89871401D01*
X94128599Y-90038495D01*
X94215272Y-90099184D01*
X94322165Y-90174032D01*
X94322167Y-90174033D01*
X94322170Y-90174035D01*
X94536337Y-90273903D01*
X94764592Y-90335063D01*
X94941034Y-90350500D01*
X94999999Y-90355659D01*
X95000000Y-90355659D01*
X95000001Y-90355659D01*
X95058966Y-90350500D01*
X95235408Y-90335063D01*
X95463663Y-90273903D01*
X95677830Y-90174035D01*
X95871401Y-90038495D01*
X96038495Y-89871401D01*
X96168426Y-89685840D01*
X96223001Y-89642217D01*
X96292499Y-89635023D01*
X96354854Y-89666546D01*
X96371574Y-89685841D01*
X96501505Y-89871401D01*
X96668599Y-90038495D01*
X96755272Y-90099184D01*
X96862165Y-90174032D01*
X96862167Y-90174033D01*
X96862170Y-90174035D01*
X97076337Y-90273903D01*
X97304592Y-90335063D01*
X97481034Y-90350500D01*
X97539999Y-90355659D01*
X97540000Y-90355659D01*
X97540001Y-90355659D01*
X97598966Y-90350500D01*
X97775408Y-90335063D01*
X98003663Y-90273903D01*
X98217830Y-90174035D01*
X98411401Y-90038495D01*
X98578495Y-89871401D01*
X98708426Y-89685841D01*
X98763002Y-89642217D01*
X98832500Y-89635023D01*
X98894855Y-89666546D01*
X98911575Y-89685842D01*
X99041500Y-89871395D01*
X99041505Y-89871401D01*
X99208599Y-90038495D01*
X99295272Y-90099184D01*
X99402165Y-90174032D01*
X99402167Y-90174033D01*
X99402170Y-90174035D01*
X99616337Y-90273903D01*
X99844592Y-90335063D01*
X100021034Y-90350500D01*
X100079999Y-90355659D01*
X100080000Y-90355659D01*
X100080001Y-90355659D01*
X100098939Y-90354001D01*
X100315408Y-90335063D01*
X100342815Y-90327719D01*
X100412663Y-90329380D01*
X100462591Y-90359812D01*
X100582681Y-90479902D01*
X100616166Y-90541225D01*
X100619000Y-90567583D01*
X100619000Y-98564057D01*
X100599315Y-98631096D01*
X100587153Y-98647026D01*
X100577466Y-98657785D01*
X100482821Y-98821715D01*
X100482818Y-98821722D01*
X100433389Y-98973850D01*
X100424326Y-99001744D01*
X100404540Y-99190000D01*
X100424326Y-99378256D01*
X100424327Y-99378259D01*
X100482818Y-99558277D01*
X100482821Y-99558284D01*
X100577467Y-99722216D01*
X100690999Y-99848306D01*
X100704129Y-99862888D01*
X100857265Y-99974148D01*
X100857270Y-99974151D01*
X101030192Y-100051142D01*
X101030197Y-100051144D01*
X101215354Y-100090500D01*
X101215355Y-100090500D01*
X101404644Y-100090500D01*
X101404646Y-100090500D01*
X101589803Y-100051144D01*
X101754566Y-99977785D01*
X101823813Y-99968500D01*
X101887090Y-99998128D01*
X101924304Y-100057263D01*
X101929000Y-100091065D01*
X101928999Y-107042416D01*
X101909314Y-107109455D01*
X101892680Y-107130097D01*
X101750095Y-107272682D01*
X101688775Y-107306166D01*
X101662416Y-107309000D01*
X90022753Y-107309000D01*
X90019008Y-107308887D01*
X89957974Y-107305195D01*
X89957969Y-107305195D01*
X89897818Y-107316218D01*
X89894116Y-107316781D01*
X89833415Y-107324152D01*
X89824215Y-107327641D01*
X89802608Y-107333665D01*
X89792914Y-107335441D01*
X89792912Y-107335442D01*
X89737145Y-107360541D01*
X89733687Y-107361973D01*
X89676519Y-107383655D01*
X89676515Y-107383657D01*
X89668410Y-107389252D01*
X89648874Y-107400270D01*
X89639896Y-107404311D01*
X89639893Y-107404313D01*
X89591764Y-107442018D01*
X89588748Y-107444237D01*
X89538418Y-107478979D01*
X89538411Y-107478985D01*
X89497856Y-107524762D01*
X89495289Y-107527488D01*
X88882480Y-108140296D01*
X88879754Y-108142863D01*
X88833985Y-108183411D01*
X88833977Y-108183420D01*
X88799235Y-108233753D01*
X88797015Y-108236769D01*
X88759313Y-108284894D01*
X88759311Y-108284896D01*
X88755271Y-108293873D01*
X88744253Y-108313408D01*
X88738655Y-108321519D01*
X88716968Y-108378700D01*
X88715536Y-108382158D01*
X88690442Y-108437916D01*
X88688666Y-108447606D01*
X88682645Y-108469203D01*
X88679152Y-108478414D01*
X88679152Y-108478415D01*
X88671780Y-108539124D01*
X88671217Y-108542826D01*
X88660195Y-108602969D01*
X88660195Y-108602972D01*
X88663887Y-108664006D01*
X88664000Y-108667751D01*
X88664000Y-109874057D01*
X88644315Y-109941096D01*
X88632153Y-109957026D01*
X88622466Y-109967785D01*
X88527821Y-110131715D01*
X88527818Y-110131722D01*
X88486549Y-110258736D01*
X88469326Y-110311744D01*
X88449540Y-110500000D01*
X88469326Y-110688256D01*
X88469327Y-110688259D01*
X88527818Y-110868277D01*
X88527821Y-110868284D01*
X88622467Y-111032216D01*
X88706859Y-111125942D01*
X88749129Y-111172888D01*
X88902265Y-111284148D01*
X88902270Y-111284151D01*
X89075192Y-111361142D01*
X89075197Y-111361144D01*
X89260354Y-111400500D01*
X89260355Y-111400500D01*
X89449644Y-111400500D01*
X89449646Y-111400500D01*
X89634803Y-111361144D01*
X89807730Y-111284151D01*
X89960871Y-111172888D01*
X90087533Y-111032216D01*
X90182179Y-110868284D01*
X90240674Y-110688256D01*
X90260460Y-110500000D01*
X90240674Y-110311744D01*
X90182179Y-110131716D01*
X90087533Y-109967784D01*
X90081566Y-109961157D01*
X90077847Y-109957026D01*
X90047620Y-109894034D01*
X90046000Y-109874057D01*
X90046000Y-108982582D01*
X90065685Y-108915543D01*
X90082310Y-108894910D01*
X90249904Y-108727316D01*
X90311225Y-108693834D01*
X90337583Y-108691000D01*
X101977247Y-108691000D01*
X101980992Y-108691113D01*
X102042026Y-108694805D01*
X102042026Y-108694804D01*
X102042028Y-108694805D01*
X102102185Y-108683779D01*
X102105870Y-108683219D01*
X102166582Y-108675848D01*
X102175788Y-108672356D01*
X102197403Y-108666330D01*
X102207085Y-108664557D01*
X102262865Y-108639451D01*
X102266281Y-108638037D01*
X102323482Y-108616344D01*
X102331579Y-108610754D01*
X102351139Y-108599722D01*
X102360105Y-108595688D01*
X102408249Y-108557968D01*
X102411255Y-108555757D01*
X102461583Y-108521020D01*
X102502144Y-108475234D01*
X102504678Y-108472542D01*
X103092542Y-107884678D01*
X103095234Y-107882144D01*
X103141020Y-107841583D01*
X103175759Y-107791254D01*
X103177962Y-107788258D01*
X103215688Y-107740106D01*
X103219729Y-107731126D01*
X103230750Y-107711584D01*
X103236344Y-107703482D01*
X103258031Y-107646296D01*
X103259451Y-107642865D01*
X103284557Y-107587085D01*
X103286330Y-107577403D01*
X103292356Y-107555788D01*
X103295848Y-107546582D01*
X103303219Y-107485872D01*
X103303781Y-107482182D01*
X103314804Y-107422034D01*
X103314805Y-107422027D01*
X103311113Y-107360991D01*
X103311000Y-107357247D01*
X103311000Y-98944500D01*
X103330685Y-98877461D01*
X103383489Y-98831706D01*
X103435000Y-98820500D01*
X103514644Y-98820500D01*
X103514646Y-98820500D01*
X103699803Y-98781144D01*
X103872730Y-98704151D01*
X103872729Y-98704151D01*
X103878188Y-98701721D01*
X103928624Y-98691000D01*
X104477247Y-98691000D01*
X104480992Y-98691113D01*
X104542026Y-98694805D01*
X104542026Y-98694804D01*
X104542028Y-98694805D01*
X104602185Y-98683779D01*
X104605870Y-98683219D01*
X104666582Y-98675848D01*
X104675788Y-98672356D01*
X104697403Y-98666330D01*
X104707085Y-98664557D01*
X104762865Y-98639451D01*
X104766281Y-98638037D01*
X104823482Y-98616344D01*
X104831579Y-98610754D01*
X104851139Y-98599722D01*
X104860105Y-98595688D01*
X104908249Y-98557968D01*
X104911255Y-98555757D01*
X104961583Y-98521020D01*
X105002144Y-98475234D01*
X105004678Y-98472542D01*
X105597321Y-97879899D01*
X105658642Y-97846416D01*
X105728334Y-97851400D01*
X105784267Y-97893272D01*
X105808684Y-97958736D01*
X105809000Y-97967582D01*
X105809000Y-109162416D01*
X105789315Y-109229455D01*
X105772681Y-109250097D01*
X105250097Y-109772681D01*
X105188774Y-109806166D01*
X105162416Y-109809000D01*
X95121232Y-109809000D01*
X95054193Y-109789315D01*
X95048347Y-109785318D01*
X94952734Y-109715851D01*
X94952729Y-109715848D01*
X94779807Y-109638857D01*
X94779802Y-109638855D01*
X94634001Y-109607865D01*
X94594646Y-109599500D01*
X94405354Y-109599500D01*
X94372897Y-109606398D01*
X94220197Y-109638855D01*
X94220192Y-109638857D01*
X94047270Y-109715848D01*
X94047265Y-109715851D01*
X93894132Y-109827109D01*
X93894129Y-109827111D01*
X93894129Y-109827112D01*
X93842148Y-109884841D01*
X93782663Y-109921489D01*
X93712806Y-109920158D01*
X93657851Y-109884841D01*
X93605871Y-109827112D01*
X93580942Y-109809000D01*
X93452734Y-109715851D01*
X93452729Y-109715848D01*
X93279807Y-109638857D01*
X93279802Y-109638855D01*
X93134001Y-109607865D01*
X93094646Y-109599500D01*
X92905354Y-109599500D01*
X92872897Y-109606398D01*
X92720197Y-109638855D01*
X92720192Y-109638857D01*
X92547270Y-109715848D01*
X92547265Y-109715851D01*
X92394129Y-109827111D01*
X92267466Y-109967785D01*
X92172821Y-110131715D01*
X92172818Y-110131722D01*
X92131549Y-110258736D01*
X92114326Y-110311744D01*
X92094540Y-110500000D01*
X92114326Y-110688256D01*
X92114327Y-110688259D01*
X92172818Y-110868277D01*
X92172821Y-110868284D01*
X92228887Y-110965392D01*
X92245500Y-111027392D01*
X92245500Y-112895756D01*
X92225815Y-112962795D01*
X92173011Y-113008550D01*
X92103853Y-113018494D01*
X92095720Y-113017046D01*
X91989647Y-112994500D01*
X91989646Y-112994500D01*
X91800354Y-112994500D01*
X91767897Y-113001398D01*
X91615197Y-113033855D01*
X91615192Y-113033857D01*
X91442271Y-113110848D01*
X91346648Y-113180322D01*
X91280841Y-113203801D01*
X91212787Y-113187975D01*
X91200886Y-113180327D01*
X91077730Y-113090849D01*
X91077729Y-113090848D01*
X90904807Y-113013857D01*
X90904802Y-113013855D01*
X90759001Y-112982865D01*
X90719646Y-112974500D01*
X90530354Y-112974500D01*
X90497897Y-112981398D01*
X90345197Y-113013855D01*
X90345192Y-113013857D01*
X90172271Y-113090848D01*
X90076648Y-113160322D01*
X90010841Y-113183801D01*
X89942787Y-113167975D01*
X89930886Y-113160327D01*
X89807730Y-113070849D01*
X89807729Y-113070848D01*
X89634807Y-112993857D01*
X89634802Y-112993855D01*
X89488671Y-112962795D01*
X89449646Y-112954500D01*
X89260354Y-112954500D01*
X89227897Y-112961398D01*
X89075197Y-112993855D01*
X89075192Y-112993857D01*
X88902270Y-113070848D01*
X88902265Y-113070851D01*
X88749129Y-113182111D01*
X88622466Y-113322785D01*
X88527821Y-113486715D01*
X88527818Y-113486722D01*
X88480707Y-113631716D01*
X88469326Y-113666744D01*
X88467065Y-113688256D01*
X88462558Y-113731140D01*
X88435973Y-113795755D01*
X88426918Y-113805859D01*
X88143780Y-114088996D01*
X88141054Y-114091563D01*
X88095285Y-114132111D01*
X88095277Y-114132120D01*
X88060535Y-114182453D01*
X88058315Y-114185469D01*
X88020613Y-114233594D01*
X88020611Y-114233596D01*
X88016571Y-114242573D01*
X88005553Y-114262108D01*
X87999955Y-114270219D01*
X87978268Y-114327400D01*
X87976836Y-114330858D01*
X87951742Y-114386616D01*
X87949966Y-114396306D01*
X87943945Y-114417903D01*
X87940452Y-114427114D01*
X87940452Y-114427115D01*
X87933080Y-114487824D01*
X87932517Y-114491526D01*
X87921495Y-114551669D01*
X87921495Y-114551672D01*
X87925187Y-114612706D01*
X87925300Y-114616451D01*
X87925300Y-123602448D01*
X87905615Y-123669487D01*
X87852811Y-123715242D01*
X87783653Y-123725186D01*
X87769207Y-123722223D01*
X87555413Y-123664938D01*
X87555403Y-123664936D01*
X87320001Y-123644341D01*
X87319999Y-123644341D01*
X87084596Y-123664936D01*
X87084586Y-123664938D01*
X86856344Y-123726094D01*
X86856335Y-123726098D01*
X86642171Y-123825964D01*
X86642169Y-123825965D01*
X86448597Y-123961505D01*
X86281505Y-124128597D01*
X86151575Y-124314158D01*
X86096998Y-124357783D01*
X86027500Y-124364977D01*
X85965145Y-124333454D01*
X85948425Y-124314158D01*
X85818494Y-124128597D01*
X85651404Y-123961508D01*
X85651402Y-123961506D01*
X85651401Y-123961505D01*
X85651396Y-123961501D01*
X85651393Y-123961499D01*
X85523876Y-123872209D01*
X85480251Y-123817632D01*
X85471000Y-123770635D01*
X85471000Y-121941137D01*
X85490685Y-121874098D01*
X85543489Y-121828343D01*
X85612647Y-121818399D01*
X85645436Y-121827858D01*
X85675548Y-121841264D01*
X85720197Y-121861144D01*
X85905354Y-121900500D01*
X85905355Y-121900500D01*
X86094644Y-121900500D01*
X86094646Y-121900500D01*
X86279803Y-121861144D01*
X86452730Y-121784151D01*
X86605871Y-121672888D01*
X86732533Y-121532216D01*
X86827179Y-121368284D01*
X86885674Y-121188256D01*
X86905460Y-121000000D01*
X86885674Y-120811744D01*
X86827179Y-120631716D01*
X86732533Y-120467784D01*
X86726566Y-120461157D01*
X86722847Y-120457026D01*
X86692620Y-120394034D01*
X86691000Y-120374057D01*
X86691000Y-111125942D01*
X86710685Y-111058903D01*
X86722853Y-111042967D01*
X86732530Y-111032219D01*
X86732533Y-111032216D01*
X86827179Y-110868284D01*
X86885674Y-110688256D01*
X86905460Y-110500000D01*
X86885674Y-110311744D01*
X86827179Y-110131716D01*
X86732533Y-109967784D01*
X86605871Y-109827112D01*
X86580942Y-109809000D01*
X86452734Y-109715851D01*
X86452729Y-109715848D01*
X86279807Y-109638857D01*
X86279802Y-109638855D01*
X86134001Y-109607865D01*
X86094646Y-109599500D01*
X85905354Y-109599500D01*
X85872897Y-109606398D01*
X85720197Y-109638855D01*
X85645435Y-109672142D01*
X85576185Y-109681426D01*
X85512909Y-109651798D01*
X85475696Y-109592663D01*
X85471000Y-109558862D01*
X85471000Y-98500000D01*
X96094540Y-98500000D01*
X96114326Y-98688256D01*
X96114327Y-98688259D01*
X96172818Y-98868277D01*
X96172821Y-98868284D01*
X96267467Y-99032216D01*
X96362742Y-99138029D01*
X96394129Y-99172888D01*
X96547265Y-99284148D01*
X96547270Y-99284151D01*
X96720192Y-99361142D01*
X96720197Y-99361144D01*
X96905354Y-99400500D01*
X96905355Y-99400500D01*
X97094644Y-99400500D01*
X97094646Y-99400500D01*
X97279803Y-99361144D01*
X97452730Y-99284151D01*
X97468762Y-99272502D01*
X97548347Y-99214682D01*
X97614153Y-99191202D01*
X97621232Y-99191000D01*
X97977247Y-99191000D01*
X97980992Y-99191113D01*
X98042026Y-99194805D01*
X98042026Y-99194804D01*
X98042028Y-99194805D01*
X98102185Y-99183779D01*
X98105870Y-99183219D01*
X98166582Y-99175848D01*
X98175788Y-99172356D01*
X98197403Y-99166330D01*
X98207085Y-99164557D01*
X98262865Y-99139451D01*
X98266281Y-99138037D01*
X98323482Y-99116344D01*
X98331579Y-99110754D01*
X98351139Y-99099722D01*
X98360105Y-99095688D01*
X98408249Y-99057968D01*
X98411255Y-99055757D01*
X98461583Y-99021020D01*
X98502158Y-98975217D01*
X98504680Y-98972539D01*
X98972534Y-98504685D01*
X98975226Y-98502151D01*
X99021020Y-98461583D01*
X99055768Y-98411238D01*
X99057959Y-98408260D01*
X99095688Y-98360105D01*
X99099722Y-98351139D01*
X99110754Y-98331580D01*
X99116342Y-98323485D01*
X99116342Y-98323484D01*
X99116344Y-98323482D01*
X99138037Y-98266281D01*
X99139451Y-98262865D01*
X99164557Y-98207085D01*
X99166330Y-98197403D01*
X99172356Y-98175788D01*
X99175848Y-98166582D01*
X99183219Y-98105870D01*
X99183781Y-98102179D01*
X99194805Y-98042028D01*
X99194805Y-98042026D01*
X99191113Y-97980990D01*
X99191000Y-97977246D01*
X99191000Y-93625942D01*
X99210685Y-93558903D01*
X99222853Y-93542967D01*
X99232530Y-93532219D01*
X99232533Y-93532216D01*
X99327179Y-93368284D01*
X99385674Y-93188256D01*
X99405460Y-93000000D01*
X99385674Y-92811744D01*
X99327179Y-92631716D01*
X99232533Y-92467784D01*
X99105871Y-92327112D01*
X99102711Y-92324816D01*
X98952734Y-92215851D01*
X98952729Y-92215848D01*
X98779807Y-92138857D01*
X98779802Y-92138855D01*
X98634000Y-92107865D01*
X98594646Y-92099500D01*
X98405354Y-92099500D01*
X98372897Y-92106398D01*
X98220197Y-92138855D01*
X98220192Y-92138857D01*
X98047270Y-92215848D01*
X98047265Y-92215851D01*
X97894129Y-92327111D01*
X97767466Y-92467785D01*
X97672821Y-92631715D01*
X97672818Y-92631722D01*
X97614517Y-92811156D01*
X97614326Y-92811744D01*
X97594540Y-93000000D01*
X97614326Y-93188256D01*
X97614327Y-93188259D01*
X97672818Y-93368277D01*
X97672821Y-93368284D01*
X97767466Y-93532215D01*
X97767469Y-93532220D01*
X97777149Y-93542970D01*
X97807379Y-93605962D01*
X97808999Y-93625942D01*
X97808999Y-97662416D01*
X97789314Y-97729455D01*
X97772682Y-97750095D01*
X97750099Y-97772679D01*
X97688777Y-97806166D01*
X97662416Y-97809000D01*
X97621232Y-97809000D01*
X97554193Y-97789315D01*
X97548347Y-97785318D01*
X97452734Y-97715851D01*
X97452729Y-97715848D01*
X97279807Y-97638857D01*
X97279802Y-97638855D01*
X97118414Y-97604552D01*
X97094646Y-97599500D01*
X96905354Y-97599500D01*
X96881586Y-97604552D01*
X96720197Y-97638855D01*
X96720192Y-97638857D01*
X96547270Y-97715848D01*
X96547265Y-97715851D01*
X96394129Y-97827111D01*
X96267466Y-97967785D01*
X96172821Y-98131715D01*
X96172818Y-98131722D01*
X96114327Y-98311740D01*
X96114326Y-98311744D01*
X96094540Y-98500000D01*
X85471000Y-98500000D01*
X85471000Y-97002764D01*
X85471113Y-96999019D01*
X85471761Y-96988307D01*
X85474806Y-96937972D01*
X85467022Y-96895500D01*
X85463779Y-96877801D01*
X85463215Y-96874096D01*
X85455848Y-96813418D01*
X85455847Y-96813416D01*
X85452363Y-96804230D01*
X85446332Y-96782600D01*
X85444558Y-96772916D01*
X85419446Y-96717120D01*
X85418031Y-96713703D01*
X85396344Y-96656518D01*
X85390748Y-96648411D01*
X85379725Y-96628866D01*
X85375688Y-96619895D01*
X85337972Y-96571755D01*
X85335774Y-96568768D01*
X85301020Y-96518417D01*
X85279177Y-96499066D01*
X85255237Y-96477856D01*
X85252525Y-96475304D01*
X85228081Y-96450860D01*
X85194596Y-96389537D01*
X85192441Y-96376138D01*
X85185674Y-96311748D01*
X85185674Y-96311745D01*
X85185672Y-96311740D01*
X85127179Y-96131716D01*
X85032533Y-95967784D01*
X84905871Y-95827112D01*
X84887648Y-95813872D01*
X84752734Y-95715851D01*
X84752729Y-95715848D01*
X84579807Y-95638857D01*
X84579802Y-95638855D01*
X84434000Y-95607865D01*
X84394646Y-95599500D01*
X84205354Y-95599500D01*
X84172897Y-95606398D01*
X84020197Y-95638855D01*
X84020192Y-95638857D01*
X83847271Y-95715848D01*
X83722885Y-95806219D01*
X83657078Y-95829698D01*
X83589024Y-95813872D01*
X83577115Y-95806219D01*
X83504886Y-95753742D01*
X83452730Y-95715849D01*
X83452728Y-95715848D01*
X83452729Y-95715848D01*
X83279807Y-95638857D01*
X83279802Y-95638855D01*
X83134000Y-95607865D01*
X83094646Y-95599500D01*
X82905354Y-95599500D01*
X82872897Y-95606398D01*
X82720197Y-95638855D01*
X82720192Y-95638857D01*
X82547270Y-95715848D01*
X82547265Y-95715851D01*
X82394129Y-95827111D01*
X82267466Y-95967785D01*
X82172821Y-96131715D01*
X82172818Y-96131722D01*
X82114327Y-96311740D01*
X82114326Y-96311744D01*
X82094540Y-96500000D01*
X82114326Y-96688256D01*
X82114327Y-96688259D01*
X82172818Y-96868277D01*
X82172821Y-96868284D01*
X82267467Y-97032216D01*
X82357059Y-97131718D01*
X82394129Y-97172888D01*
X82547265Y-97284148D01*
X82547270Y-97284151D01*
X82720192Y-97361142D01*
X82720193Y-97361142D01*
X82720197Y-97361144D01*
X82892187Y-97397701D01*
X82953669Y-97430893D01*
X82954088Y-97431310D01*
X83172681Y-97649903D01*
X83206166Y-97711226D01*
X83209000Y-97737584D01*
X83209000Y-123002415D01*
X83189315Y-123069454D01*
X83172681Y-123090096D01*
X82622590Y-123640186D01*
X82561267Y-123673671D01*
X82502820Y-123672281D01*
X82475415Y-123664938D01*
X82475402Y-123664936D01*
X82240001Y-123644341D01*
X82239999Y-123644341D01*
X82004596Y-123664936D01*
X82004586Y-123664938D01*
X81776344Y-123726094D01*
X81776335Y-123726098D01*
X81562171Y-123825964D01*
X81562169Y-123825965D01*
X81368597Y-123961505D01*
X81201505Y-124128597D01*
X81065965Y-124322169D01*
X81065964Y-124322171D01*
X80966098Y-124536335D01*
X80966094Y-124536344D01*
X80904938Y-124764586D01*
X80904936Y-124764596D01*
X80884341Y-124999999D01*
X80884341Y-125000000D01*
X80904936Y-125235403D01*
X80904938Y-125235413D01*
X80966094Y-125463655D01*
X80966096Y-125463659D01*
X80966097Y-125463663D01*
X80970000Y-125472032D01*
X81065965Y-125677830D01*
X81065967Y-125677834D01*
X81174281Y-125832521D01*
X81201505Y-125871401D01*
X81368599Y-126038495D01*
X81465384Y-126106264D01*
X81562165Y-126174032D01*
X81562167Y-126174033D01*
X81562170Y-126174035D01*
X81776337Y-126273903D01*
X82004592Y-126335063D01*
X82181034Y-126350500D01*
X82239999Y-126355659D01*
X82240000Y-126355659D01*
X82240001Y-126355659D01*
X82298966Y-126350500D01*
X82475408Y-126335063D01*
X82502816Y-126327719D01*
X82572662Y-126329380D01*
X82622590Y-126359812D01*
X84272682Y-128009904D01*
X84306166Y-128071225D01*
X84309000Y-128097583D01*
X84309000Y-132662415D01*
X84289315Y-132729454D01*
X84272682Y-132750096D01*
X84150095Y-132872682D01*
X84088775Y-132906166D01*
X84062416Y-132909000D01*
X83729363Y-132909000D01*
X83662324Y-132889315D01*
X83627788Y-132856123D01*
X83538498Y-132728603D01*
X83538493Y-132728597D01*
X83371402Y-132561506D01*
X83371396Y-132561501D01*
X83185842Y-132431575D01*
X83142217Y-132376998D01*
X83135023Y-132307500D01*
X83166546Y-132245145D01*
X83185842Y-132228425D01*
X83208026Y-132212891D01*
X83371401Y-132098495D01*
X83538495Y-131931401D01*
X83674035Y-131737830D01*
X83773903Y-131523663D01*
X83835063Y-131295408D01*
X83855659Y-131060000D01*
X83835063Y-130824592D01*
X83773903Y-130596337D01*
X83674035Y-130382171D01*
X83651859Y-130350499D01*
X83538494Y-130188597D01*
X83371402Y-130021506D01*
X83371395Y-130021501D01*
X83177834Y-129885967D01*
X83177830Y-129885965D01*
X83177829Y-129885964D01*
X82963663Y-129786097D01*
X82963659Y-129786096D01*
X82963655Y-129786094D01*
X82735413Y-129724938D01*
X82735403Y-129724936D01*
X82500001Y-129704341D01*
X82499999Y-129704341D01*
X82264596Y-129724936D01*
X82264586Y-129724938D01*
X82036344Y-129786094D01*
X82036335Y-129786098D01*
X81822171Y-129885964D01*
X81822169Y-129885965D01*
X81628597Y-130021505D01*
X81461505Y-130188597D01*
X81325965Y-130382169D01*
X81325964Y-130382171D01*
X81226098Y-130596335D01*
X81226094Y-130596344D01*
X81164938Y-130824586D01*
X81164936Y-130824596D01*
X81144341Y-131059999D01*
X81144341Y-131060000D01*
X81164936Y-131295403D01*
X81164938Y-131295413D01*
X81226094Y-131523655D01*
X81226096Y-131523659D01*
X81226097Y-131523663D01*
X81311842Y-131707544D01*
X81325965Y-131737830D01*
X81325967Y-131737834D01*
X81461501Y-131931395D01*
X81461506Y-131931402D01*
X81628597Y-132098493D01*
X81628603Y-132098498D01*
X81814158Y-132228425D01*
X81857783Y-132283002D01*
X81864977Y-132352500D01*
X81833454Y-132414855D01*
X81814158Y-132431575D01*
X81628597Y-132561505D01*
X81461505Y-132728597D01*
X81325965Y-132922169D01*
X81325964Y-132922171D01*
X81226098Y-133136335D01*
X81226094Y-133136344D01*
X81164938Y-133364586D01*
X81164936Y-133364596D01*
X81144341Y-133599999D01*
X81144341Y-133600000D01*
X81164936Y-133835403D01*
X81164938Y-133835413D01*
X81226094Y-134063655D01*
X81226096Y-134063659D01*
X81226097Y-134063663D01*
X81307715Y-134238693D01*
X81325965Y-134277830D01*
X81325967Y-134277834D01*
X81434281Y-134432521D01*
X81461501Y-134471396D01*
X81461506Y-134471402D01*
X81628597Y-134638493D01*
X81628603Y-134638498D01*
X81814158Y-134768425D01*
X81857783Y-134823002D01*
X81864977Y-134892500D01*
X81833454Y-134954855D01*
X81814158Y-134971575D01*
X81628597Y-135101505D01*
X81461505Y-135268597D01*
X81325965Y-135462169D01*
X81325964Y-135462171D01*
X81226098Y-135676335D01*
X81226094Y-135676344D01*
X81164938Y-135904586D01*
X81164936Y-135904596D01*
X81144341Y-136139999D01*
X81144341Y-136140000D01*
X81164936Y-136375403D01*
X81164938Y-136375413D01*
X81226094Y-136603655D01*
X81226096Y-136603659D01*
X81226097Y-136603663D01*
X81307715Y-136778693D01*
X81325965Y-136817830D01*
X81325967Y-136817834D01*
X81434281Y-136972521D01*
X81461501Y-137011396D01*
X81461506Y-137011402D01*
X81583818Y-137133714D01*
X81617303Y-137195037D01*
X81612319Y-137264729D01*
X81570447Y-137320662D01*
X81539471Y-137337577D01*
X81407912Y-137386646D01*
X81407906Y-137386649D01*
X81292812Y-137472809D01*
X81292809Y-137472812D01*
X81206649Y-137587906D01*
X81206645Y-137587913D01*
X81156403Y-137722620D01*
X81156401Y-137722627D01*
X81150000Y-137782155D01*
X81150000Y-138430000D01*
X82066314Y-138430000D01*
X82040507Y-138470156D01*
X82000000Y-138608111D01*
X82000000Y-138751889D01*
X82040507Y-138889844D01*
X82066314Y-138930000D01*
X81150000Y-138930000D01*
X81150000Y-139577844D01*
X81156401Y-139637372D01*
X81156403Y-139637379D01*
X81206645Y-139772086D01*
X81206649Y-139772093D01*
X81292809Y-139887187D01*
X81292812Y-139887190D01*
X81407906Y-139973350D01*
X81407913Y-139973354D01*
X81542620Y-140023596D01*
X81542627Y-140023598D01*
X81602155Y-140029999D01*
X81602172Y-140030000D01*
X82250000Y-140030000D01*
X82250000Y-139115501D01*
X82357685Y-139164680D01*
X82464237Y-139180000D01*
X82535763Y-139180000D01*
X82642315Y-139164680D01*
X82750000Y-139115501D01*
X82750000Y-140030000D01*
X83397828Y-140030000D01*
X83397844Y-140029999D01*
X83457372Y-140023598D01*
X83457379Y-140023596D01*
X83592086Y-139973354D01*
X83592093Y-139973350D01*
X83707187Y-139887190D01*
X83707190Y-139887187D01*
X83793350Y-139772093D01*
X83793354Y-139772086D01*
X83843596Y-139637379D01*
X83843598Y-139637372D01*
X83849999Y-139577844D01*
X83850000Y-139577827D01*
X83850000Y-138930000D01*
X82933686Y-138930000D01*
X82959493Y-138889844D01*
X83000000Y-138751889D01*
X83000000Y-138608111D01*
X82959493Y-138470156D01*
X82933686Y-138430000D01*
X83850000Y-138430000D01*
X83850000Y-137782172D01*
X83849999Y-137782155D01*
X83843598Y-137722627D01*
X83843596Y-137722620D01*
X83793354Y-137587913D01*
X83793350Y-137587906D01*
X83707190Y-137472812D01*
X83707187Y-137472809D01*
X83592093Y-137386649D01*
X83592088Y-137386646D01*
X83460528Y-137337577D01*
X83404595Y-137295705D01*
X83380178Y-137230241D01*
X83395030Y-137161968D01*
X83416175Y-137133720D01*
X83538495Y-137011401D01*
X83627788Y-136883876D01*
X83682365Y-136840252D01*
X83729363Y-136831000D01*
X85337247Y-136831000D01*
X85340992Y-136831113D01*
X85402026Y-136834805D01*
X85402026Y-136834804D01*
X85402028Y-136834805D01*
X85462185Y-136823779D01*
X85465870Y-136823219D01*
X85526582Y-136815848D01*
X85535788Y-136812356D01*
X85557403Y-136806330D01*
X85567085Y-136804557D01*
X85622865Y-136779451D01*
X85626281Y-136778037D01*
X85683482Y-136756344D01*
X85691579Y-136750754D01*
X85711139Y-136739722D01*
X85720105Y-136735688D01*
X85768249Y-136697968D01*
X85771255Y-136695757D01*
X85821583Y-136661020D01*
X85862144Y-136615234D01*
X85864678Y-136612542D01*
X86472534Y-136004685D01*
X86475209Y-136002166D01*
X86521020Y-135961583D01*
X86521020Y-135961582D01*
X86522775Y-135960028D01*
X86586009Y-135930308D01*
X86655272Y-135939493D01*
X86708574Y-135984666D01*
X86728993Y-136051486D01*
X86729000Y-136052845D01*
X86729000Y-144025500D01*
X86709315Y-144092539D01*
X86656511Y-144138294D01*
X86605001Y-144149500D01*
X86522130Y-144149500D01*
X86522123Y-144149501D01*
X86462516Y-144155908D01*
X86327671Y-144206202D01*
X86327664Y-144206206D01*
X86212455Y-144292452D01*
X86212452Y-144292455D01*
X86126206Y-144407664D01*
X86126202Y-144407671D01*
X86075908Y-144542517D01*
X86069501Y-144602116D01*
X86069500Y-144602135D01*
X86069500Y-146397870D01*
X86069501Y-146397876D01*
X86075908Y-146457483D01*
X86126202Y-146592328D01*
X86126206Y-146592335D01*
X86212452Y-146707544D01*
X86212455Y-146707547D01*
X86327664Y-146793793D01*
X86327671Y-146793797D01*
X86462517Y-146844091D01*
X86462516Y-146844091D01*
X86469444Y-146844835D01*
X86522127Y-146850500D01*
X88317872Y-146850499D01*
X88377483Y-146844091D01*
X88512331Y-146793796D01*
X88627546Y-146707546D01*
X88713796Y-146592331D01*
X88713888Y-146592086D01*
X88733874Y-146538498D01*
X88763002Y-146460401D01*
X88804872Y-146404468D01*
X88870337Y-146380050D01*
X88938610Y-146394901D01*
X88966865Y-146416053D01*
X89088917Y-146538105D01*
X89282421Y-146673600D01*
X89496507Y-146773429D01*
X89496516Y-146773433D01*
X89710000Y-146830634D01*
X89710000Y-145935501D01*
X89817685Y-145984680D01*
X89924237Y-146000000D01*
X89995763Y-146000000D01*
X90102315Y-145984680D01*
X90210000Y-145935501D01*
X90210000Y-146830633D01*
X90423483Y-146773433D01*
X90423492Y-146773429D01*
X90637578Y-146673600D01*
X90831082Y-146538105D01*
X90998105Y-146371082D01*
X91128119Y-146185405D01*
X91182696Y-146141781D01*
X91252195Y-146134588D01*
X91314549Y-146166110D01*
X91331269Y-146185405D01*
X91461505Y-146371401D01*
X91628599Y-146538495D01*
X91725384Y-146606265D01*
X91822165Y-146674032D01*
X91822167Y-146674033D01*
X91822170Y-146674035D01*
X92036337Y-146773903D01*
X92264592Y-146835063D01*
X92441034Y-146850500D01*
X92499999Y-146855659D01*
X92500000Y-146855659D01*
X92500001Y-146855659D01*
X92558966Y-146850500D01*
X92735408Y-146835063D01*
X92963663Y-146773903D01*
X93177830Y-146674035D01*
X93371401Y-146538495D01*
X93538495Y-146371401D01*
X93674035Y-146177830D01*
X93773903Y-145963663D01*
X93835063Y-145735408D01*
X93855659Y-145500000D01*
X93835063Y-145264592D01*
X93773903Y-145036337D01*
X93674035Y-144822171D01*
X93668731Y-144814595D01*
X93538494Y-144628597D01*
X93371402Y-144461506D01*
X93371395Y-144461501D01*
X93177834Y-144325967D01*
X93177830Y-144325965D01*
X93106727Y-144292809D01*
X92963663Y-144226097D01*
X92963659Y-144226096D01*
X92963655Y-144226094D01*
X92735413Y-144164938D01*
X92735403Y-144164936D01*
X92500001Y-144144341D01*
X92499999Y-144144341D01*
X92264596Y-144164936D01*
X92264586Y-144164938D01*
X92036344Y-144226094D01*
X92036335Y-144226098D01*
X91822171Y-144325964D01*
X91822169Y-144325965D01*
X91628597Y-144461505D01*
X91461508Y-144628594D01*
X91331269Y-144814595D01*
X91276692Y-144858219D01*
X91207193Y-144865412D01*
X91144839Y-144833890D01*
X91128119Y-144814594D01*
X90998113Y-144628926D01*
X90998108Y-144628920D01*
X90831082Y-144461894D01*
X90637578Y-144326399D01*
X90423492Y-144226570D01*
X90423486Y-144226567D01*
X90210000Y-144169364D01*
X90210000Y-145064498D01*
X90102315Y-145015320D01*
X89995763Y-145000000D01*
X89924237Y-145000000D01*
X89817685Y-145015320D01*
X89710000Y-145064498D01*
X89710000Y-144169364D01*
X89709999Y-144169364D01*
X89496513Y-144226567D01*
X89496507Y-144226570D01*
X89282422Y-144326399D01*
X89282420Y-144326400D01*
X89088926Y-144461886D01*
X88966865Y-144583947D01*
X88905542Y-144617431D01*
X88835850Y-144612447D01*
X88779917Y-144570575D01*
X88763002Y-144539598D01*
X88762954Y-144539470D01*
X88713887Y-144407913D01*
X88713797Y-144407671D01*
X88713793Y-144407664D01*
X88627547Y-144292455D01*
X88627544Y-144292452D01*
X88512335Y-144206206D01*
X88512328Y-144206202D01*
X88377482Y-144155908D01*
X88377483Y-144155908D01*
X88317883Y-144149501D01*
X88317881Y-144149500D01*
X88317873Y-144149500D01*
X88317865Y-144149500D01*
X88235000Y-144149500D01*
X88167961Y-144129815D01*
X88122206Y-144077011D01*
X88111000Y-144025500D01*
X88111000Y-142887583D01*
X88130685Y-142820544D01*
X88183489Y-142774789D01*
X88252647Y-142764845D01*
X88316203Y-142793870D01*
X88322669Y-142799891D01*
X88995304Y-143472525D01*
X88997856Y-143475237D01*
X89015621Y-143495289D01*
X89038417Y-143521020D01*
X89088768Y-143555774D01*
X89091755Y-143557972D01*
X89139895Y-143595688D01*
X89148866Y-143599725D01*
X89168411Y-143610748D01*
X89176518Y-143616344D01*
X89233703Y-143638031D01*
X89237120Y-143639446D01*
X89292916Y-143664558D01*
X89302600Y-143666332D01*
X89324229Y-143672362D01*
X89333418Y-143675848D01*
X89394098Y-143683215D01*
X89397801Y-143683779D01*
X89418306Y-143687536D01*
X89457972Y-143694806D01*
X89512771Y-143691490D01*
X89519019Y-143691113D01*
X89522764Y-143691000D01*
X94662416Y-143691000D01*
X94729455Y-143710685D01*
X94750097Y-143727319D01*
X95272681Y-144249902D01*
X95306166Y-144311225D01*
X95309000Y-144337583D01*
X95309000Y-149977247D01*
X95308887Y-149980992D01*
X95305195Y-150042025D01*
X95305195Y-150042028D01*
X95316217Y-150102174D01*
X95316780Y-150105876D01*
X95324152Y-150166582D01*
X95327644Y-150175792D01*
X95333666Y-150197395D01*
X95335441Y-150207081D01*
X95360540Y-150262851D01*
X95361973Y-150266310D01*
X95383653Y-150323478D01*
X95383656Y-150323482D01*
X95389250Y-150331586D01*
X95400274Y-150351134D01*
X95404308Y-150360099D01*
X95404314Y-150360108D01*
X95442018Y-150408234D01*
X95444238Y-150411251D01*
X95478980Y-150461583D01*
X95524753Y-150502135D01*
X95527464Y-150504686D01*
X96495305Y-151472526D01*
X96497856Y-151475236D01*
X96538417Y-151521020D01*
X96588768Y-151555774D01*
X96591755Y-151557972D01*
X96639895Y-151595688D01*
X96648866Y-151599725D01*
X96668411Y-151610748D01*
X96676518Y-151616344D01*
X96733703Y-151638031D01*
X96737120Y-151639446D01*
X96792916Y-151664558D01*
X96802600Y-151666332D01*
X96824229Y-151672362D01*
X96833418Y-151675848D01*
X96894098Y-151683215D01*
X96897801Y-151683779D01*
X96918306Y-151687536D01*
X96957972Y-151694806D01*
X97012771Y-151691490D01*
X97019019Y-151691113D01*
X97022764Y-151691000D01*
X129500000Y-151691000D01*
X129500000Y-153999500D01*
X80691500Y-153999500D01*
X80624461Y-153979815D01*
X80578706Y-153927011D01*
X80567500Y-153875500D01*
X80567500Y-146660000D01*
X81254540Y-146660000D01*
X81274326Y-146848256D01*
X81274327Y-146848259D01*
X81332818Y-147028277D01*
X81332821Y-147028284D01*
X81427467Y-147192216D01*
X81554129Y-147332887D01*
X81554129Y-147332888D01*
X81707265Y-147444148D01*
X81707270Y-147444151D01*
X81880192Y-147521142D01*
X81880197Y-147521144D01*
X82065354Y-147560500D01*
X82065355Y-147560500D01*
X82254644Y-147560500D01*
X82254646Y-147560500D01*
X82439803Y-147521144D01*
X82612730Y-147444151D01*
X82765871Y-147332888D01*
X82892533Y-147192216D01*
X82987179Y-147028284D01*
X83045674Y-146848256D01*
X83065460Y-146660000D01*
X83045674Y-146471744D01*
X82987179Y-146291716D01*
X82892533Y-146127784D01*
X82765871Y-145987112D01*
X82762524Y-145984680D01*
X82612734Y-145875851D01*
X82612729Y-145875848D01*
X82439807Y-145798857D01*
X82439802Y-145798855D01*
X82294001Y-145767865D01*
X82254646Y-145759500D01*
X82065354Y-145759500D01*
X82032897Y-145766398D01*
X81880197Y-145798855D01*
X81880192Y-145798857D01*
X81707270Y-145875848D01*
X81707265Y-145875851D01*
X81554129Y-145987111D01*
X81427466Y-146127785D01*
X81332821Y-146291715D01*
X81332818Y-146291722D01*
X81278011Y-146460402D01*
X81274326Y-146471744D01*
X81254540Y-146660000D01*
X80567500Y-146660000D01*
X80567500Y-53664000D01*
X80587185Y-53596961D01*
X80639989Y-53551206D01*
X80691500Y-53540000D01*
X129443500Y-53540000D01*
X129510539Y-53559685D01*
G37*
%TD.AperFunction*%
%TD*%
%TA.AperFunction,Conductor*%
%TO.N,3.3V*%
G36*
X140443039Y-118019685D02*
G01*
X140488794Y-118072489D01*
X140500000Y-118124000D01*
X140500000Y-153875500D01*
X140480315Y-153942539D01*
X140427511Y-153988294D01*
X140376000Y-153999500D01*
X129500000Y-153999500D01*
X129500000Y-151691000D01*
X134477247Y-151691000D01*
X134480992Y-151691113D01*
X134542026Y-151694805D01*
X134542026Y-151694804D01*
X134542028Y-151694805D01*
X134602185Y-151683779D01*
X134605870Y-151683219D01*
X134666582Y-151675848D01*
X134675788Y-151672356D01*
X134697403Y-151666330D01*
X134707085Y-151664557D01*
X134762865Y-151639451D01*
X134766281Y-151638037D01*
X134823482Y-151616344D01*
X134831579Y-151610754D01*
X134851139Y-151599722D01*
X134860105Y-151595688D01*
X134908249Y-151557968D01*
X134911255Y-151555757D01*
X134961583Y-151521020D01*
X135002144Y-151475234D01*
X135004678Y-151472542D01*
X136007542Y-150469678D01*
X136010234Y-150467144D01*
X136056020Y-150426583D01*
X136090761Y-150376248D01*
X136092968Y-150373249D01*
X136130688Y-150325105D01*
X136134722Y-150316139D01*
X136145754Y-150296580D01*
X136151342Y-150288485D01*
X136151342Y-150288484D01*
X136151344Y-150288482D01*
X136173037Y-150231281D01*
X136174451Y-150227865D01*
X136199557Y-150172085D01*
X136201330Y-150162403D01*
X136207356Y-150140788D01*
X136210848Y-150131582D01*
X136218219Y-150070870D01*
X136218781Y-150067179D01*
X136229804Y-150007032D01*
X136229805Y-150007026D01*
X136226113Y-149945992D01*
X136226000Y-149942247D01*
X136226000Y-146729363D01*
X136245685Y-146662324D01*
X136278877Y-146627788D01*
X136329865Y-146592086D01*
X136406401Y-146538495D01*
X136528717Y-146416178D01*
X136590036Y-146382696D01*
X136659728Y-146387680D01*
X136715662Y-146429551D01*
X136732577Y-146460528D01*
X136781646Y-146592088D01*
X136781649Y-146592093D01*
X136867809Y-146707187D01*
X136867812Y-146707190D01*
X136982906Y-146793350D01*
X136982913Y-146793354D01*
X137117620Y-146843596D01*
X137117627Y-146843598D01*
X137177155Y-146849999D01*
X137177172Y-146850000D01*
X137825000Y-146850000D01*
X137825000Y-145935501D01*
X137932685Y-145984680D01*
X138039237Y-146000000D01*
X138110763Y-146000000D01*
X138217315Y-145984680D01*
X138325000Y-145935501D01*
X138325000Y-146850000D01*
X138972828Y-146850000D01*
X138972844Y-146849999D01*
X139032372Y-146843598D01*
X139032379Y-146843596D01*
X139167086Y-146793354D01*
X139167093Y-146793350D01*
X139282187Y-146707190D01*
X139282190Y-146707187D01*
X139368350Y-146592093D01*
X139368354Y-146592086D01*
X139418596Y-146457379D01*
X139418598Y-146457372D01*
X139424999Y-146397844D01*
X139425000Y-146397827D01*
X139425000Y-145750000D01*
X138508686Y-145750000D01*
X138534493Y-145709844D01*
X138575000Y-145571889D01*
X138575000Y-145428111D01*
X138534493Y-145290156D01*
X138508686Y-145250000D01*
X139425000Y-145250000D01*
X139425000Y-144602172D01*
X139424999Y-144602155D01*
X139418598Y-144542627D01*
X139418596Y-144542620D01*
X139368354Y-144407913D01*
X139368350Y-144407906D01*
X139282190Y-144292812D01*
X139282187Y-144292809D01*
X139167093Y-144206649D01*
X139167086Y-144206645D01*
X139032379Y-144156403D01*
X139032372Y-144156401D01*
X138972844Y-144150000D01*
X138325000Y-144150000D01*
X138325000Y-145064498D01*
X138217315Y-145015320D01*
X138110763Y-145000000D01*
X138039237Y-145000000D01*
X137932685Y-145015320D01*
X137825000Y-145064498D01*
X137825000Y-144150000D01*
X137177155Y-144150000D01*
X137117627Y-144156401D01*
X137117620Y-144156403D01*
X136982913Y-144206645D01*
X136982906Y-144206649D01*
X136867812Y-144292809D01*
X136867809Y-144292812D01*
X136781649Y-144407906D01*
X136781645Y-144407913D01*
X136732578Y-144539470D01*
X136690707Y-144595404D01*
X136625242Y-144619821D01*
X136556969Y-144604969D01*
X136528715Y-144583819D01*
X136484366Y-144539470D01*
X136406401Y-144461505D01*
X136406397Y-144461502D01*
X136406396Y-144461501D01*
X136212834Y-144325967D01*
X136212830Y-144325965D01*
X136141727Y-144292809D01*
X135998663Y-144226097D01*
X135998659Y-144226096D01*
X135998655Y-144226094D01*
X135770413Y-144164938D01*
X135770403Y-144164936D01*
X135535001Y-144144341D01*
X135534999Y-144144341D01*
X135299596Y-144164936D01*
X135299586Y-144164938D01*
X135071344Y-144226094D01*
X135071335Y-144226098D01*
X134857171Y-144325964D01*
X134857169Y-144325965D01*
X134663597Y-144461505D01*
X134496505Y-144628597D01*
X134366575Y-144814158D01*
X134311998Y-144857783D01*
X134242500Y-144864977D01*
X134180145Y-144833454D01*
X134163425Y-144814158D01*
X134033494Y-144628597D01*
X133866402Y-144461506D01*
X133866395Y-144461501D01*
X133672834Y-144325967D01*
X133672830Y-144325965D01*
X133601727Y-144292809D01*
X133458663Y-144226097D01*
X133458659Y-144226096D01*
X133458655Y-144226094D01*
X133230413Y-144164938D01*
X133230403Y-144164936D01*
X132995001Y-144144341D01*
X132994999Y-144144341D01*
X132759596Y-144164936D01*
X132759586Y-144164938D01*
X132531344Y-144226094D01*
X132531335Y-144226098D01*
X132317171Y-144325964D01*
X132317169Y-144325965D01*
X132123597Y-144461505D01*
X131956505Y-144628597D01*
X131826575Y-144814158D01*
X131771998Y-144857783D01*
X131702500Y-144864977D01*
X131640145Y-144833454D01*
X131623425Y-144814158D01*
X131493494Y-144628597D01*
X131326402Y-144461506D01*
X131326395Y-144461501D01*
X131132834Y-144325967D01*
X131132830Y-144325965D01*
X131061727Y-144292809D01*
X130918663Y-144226097D01*
X130918659Y-144226096D01*
X130918655Y-144226094D01*
X130690413Y-144164938D01*
X130690403Y-144164936D01*
X130455001Y-144144341D01*
X130454999Y-144144341D01*
X130219596Y-144164936D01*
X130219586Y-144164938D01*
X129991344Y-144226094D01*
X129991335Y-144226098D01*
X129777171Y-144325964D01*
X129777169Y-144325965D01*
X129583597Y-144461505D01*
X129499999Y-144545102D01*
X129500000Y-118000000D01*
X129567500Y-118000000D01*
X140376000Y-118000000D01*
X140443039Y-118019685D01*
G37*
%TD.AperFunction*%
%TA.AperFunction,Conductor*%
G36*
X134349855Y-146166546D02*
G01*
X134366575Y-146185842D01*
X134496501Y-146371396D01*
X134496506Y-146371402D01*
X134663597Y-146538493D01*
X134663603Y-146538498D01*
X134791123Y-146627788D01*
X134834748Y-146682365D01*
X134844000Y-146729363D01*
X134844000Y-149627416D01*
X134824315Y-149694455D01*
X134807681Y-149715097D01*
X134250097Y-150272681D01*
X134188774Y-150306166D01*
X134162416Y-150309000D01*
X129500000Y-150309000D01*
X129499999Y-146454896D01*
X129583597Y-146538493D01*
X129583599Y-146538495D01*
X129660135Y-146592086D01*
X129777165Y-146674032D01*
X129777167Y-146674033D01*
X129777170Y-146674035D01*
X129991337Y-146773903D01*
X130219592Y-146835063D01*
X130390319Y-146850000D01*
X130454999Y-146855659D01*
X130455000Y-146855659D01*
X130455001Y-146855659D01*
X130519681Y-146850000D01*
X130690408Y-146835063D01*
X130918663Y-146773903D01*
X131132830Y-146674035D01*
X131326401Y-146538495D01*
X131493495Y-146371401D01*
X131623426Y-146185840D01*
X131678001Y-146142217D01*
X131747499Y-146135023D01*
X131809854Y-146166546D01*
X131826574Y-146185841D01*
X131956505Y-146371401D01*
X132123599Y-146538495D01*
X132200135Y-146592086D01*
X132317165Y-146674032D01*
X132317167Y-146674033D01*
X132317170Y-146674035D01*
X132531337Y-146773903D01*
X132759592Y-146835063D01*
X132930319Y-146850000D01*
X132994999Y-146855659D01*
X132995000Y-146855659D01*
X132995001Y-146855659D01*
X133059681Y-146850000D01*
X133230408Y-146835063D01*
X133458663Y-146773903D01*
X133672830Y-146674035D01*
X133866401Y-146538495D01*
X134033495Y-146371401D01*
X134163426Y-146185841D01*
X134218002Y-146142217D01*
X134287500Y-146135023D01*
X134349855Y-146166546D01*
G37*
%TD.AperFunction*%
%TD*%
%TA.AperFunction,Conductor*%
%TO.N,GND*%
G36*
X164750000Y-54064498D02*
G01*
X164642315Y-54015320D01*
X164535763Y-54000000D01*
X164464237Y-54000000D01*
X164357685Y-54015320D01*
X164250000Y-54064498D01*
X164250000Y-52395501D01*
X164357685Y-52444680D01*
X164464237Y-52460000D01*
X164535763Y-52460000D01*
X164642315Y-52444680D01*
X164750000Y-52395501D01*
X164750000Y-54064498D01*
G37*
%TD.AperFunction*%
%TA.AperFunction,Conductor*%
G36*
X168499500Y-115876000D02*
G01*
X168479815Y-115943039D01*
X168427011Y-115988794D01*
X168375500Y-116000000D01*
X131124000Y-116000000D01*
X131056961Y-115980315D01*
X131011206Y-115927511D01*
X131000000Y-115876000D01*
X131000000Y-110000000D01*
X131594540Y-110000000D01*
X131614326Y-110188256D01*
X131614327Y-110188259D01*
X131672818Y-110368277D01*
X131672821Y-110368284D01*
X131767467Y-110532216D01*
X131862742Y-110638029D01*
X131894129Y-110672888D01*
X132047265Y-110784148D01*
X132047270Y-110784151D01*
X132220192Y-110861142D01*
X132220197Y-110861144D01*
X132405354Y-110900500D01*
X132405355Y-110900500D01*
X132594644Y-110900500D01*
X132594646Y-110900500D01*
X132779803Y-110861144D01*
X132952730Y-110784151D01*
X132968762Y-110772502D01*
X133048347Y-110714682D01*
X133114153Y-110691202D01*
X133121232Y-110691000D01*
X147477247Y-110691000D01*
X147480992Y-110691113D01*
X147542026Y-110694805D01*
X147542026Y-110694804D01*
X147542028Y-110694805D01*
X147602185Y-110683779D01*
X147605870Y-110683219D01*
X147666582Y-110675848D01*
X147675788Y-110672356D01*
X147697403Y-110666330D01*
X147707085Y-110664557D01*
X147762865Y-110639451D01*
X147766281Y-110638037D01*
X147823482Y-110616344D01*
X147831579Y-110610754D01*
X147851139Y-110599722D01*
X147860105Y-110595688D01*
X147908249Y-110557968D01*
X147911255Y-110555757D01*
X147961583Y-110521020D01*
X148002159Y-110475216D01*
X148004679Y-110472540D01*
X148518165Y-109959056D01*
X148595688Y-109860105D01*
X148664557Y-109707085D01*
X148694805Y-109542028D01*
X148684673Y-109374529D01*
X148664254Y-109309000D01*
X148633115Y-109209070D01*
X148627500Y-109172180D01*
X148627500Y-101070001D01*
X155844390Y-101070001D01*
X155864804Y-101355433D01*
X155925628Y-101635037D01*
X156025635Y-101903166D01*
X156162770Y-102154309D01*
X156162775Y-102154317D01*
X156334254Y-102383387D01*
X156334270Y-102383405D01*
X156536594Y-102585729D01*
X156536612Y-102585745D01*
X156765682Y-102757224D01*
X156765690Y-102757229D01*
X157016833Y-102894364D01*
X157016832Y-102894364D01*
X157016836Y-102894365D01*
X157016839Y-102894367D01*
X157284954Y-102994369D01*
X157284960Y-102994370D01*
X157284962Y-102994371D01*
X157564566Y-103055195D01*
X157564568Y-103055195D01*
X157564572Y-103055196D01*
X157818220Y-103073337D01*
X157849999Y-103075610D01*
X157850000Y-103075610D01*
X157850001Y-103075610D01*
X157878595Y-103073564D01*
X158135428Y-103055196D01*
X158415046Y-102994369D01*
X158683161Y-102894367D01*
X158934315Y-102757226D01*
X159163395Y-102585739D01*
X159365739Y-102383395D01*
X159537226Y-102154315D01*
X159674367Y-101903161D01*
X159774369Y-101635046D01*
X159835196Y-101355428D01*
X159855610Y-101070000D01*
X159835196Y-100784572D01*
X159835104Y-100784151D01*
X159774371Y-100504962D01*
X159774370Y-100504960D01*
X159774369Y-100504954D01*
X159674367Y-100236839D01*
X159537226Y-99985685D01*
X159407013Y-99811740D01*
X159365745Y-99756612D01*
X159365729Y-99756594D01*
X159163405Y-99554270D01*
X159163387Y-99554254D01*
X158934317Y-99382775D01*
X158934309Y-99382770D01*
X158683166Y-99245635D01*
X158683167Y-99245635D01*
X158460048Y-99162416D01*
X158415046Y-99145631D01*
X158415043Y-99145630D01*
X158415037Y-99145628D01*
X158135433Y-99084804D01*
X157850001Y-99064390D01*
X157849999Y-99064390D01*
X157564566Y-99084804D01*
X157284962Y-99145628D01*
X157016833Y-99245635D01*
X156765690Y-99382770D01*
X156765682Y-99382775D01*
X156536612Y-99554254D01*
X156536594Y-99554270D01*
X156334270Y-99756594D01*
X156334254Y-99756612D01*
X156162775Y-99985682D01*
X156162770Y-99985690D01*
X156025635Y-100236833D01*
X155925628Y-100504962D01*
X155864804Y-100784566D01*
X155844390Y-101069998D01*
X155844390Y-101070001D01*
X148627500Y-101070001D01*
X148627500Y-95500001D01*
X153834532Y-95500001D01*
X153854364Y-95726686D01*
X153854366Y-95726697D01*
X153913258Y-95946488D01*
X153913261Y-95946497D01*
X154009431Y-96152732D01*
X154009432Y-96152734D01*
X154139954Y-96339141D01*
X154300856Y-96500043D01*
X154302017Y-96501017D01*
X154302389Y-96501576D01*
X154304689Y-96503876D01*
X154304227Y-96504337D01*
X154340726Y-96559184D01*
X154341842Y-96629045D01*
X154305011Y-96688419D01*
X154265656Y-96712197D01*
X154147669Y-96756203D01*
X154147664Y-96756206D01*
X154032455Y-96842452D01*
X154032452Y-96842455D01*
X153946206Y-96957664D01*
X153946202Y-96957671D01*
X153895908Y-97092517D01*
X153889501Y-97152116D01*
X153889501Y-97152123D01*
X153889500Y-97152135D01*
X153889500Y-98847870D01*
X153889501Y-98847876D01*
X153895908Y-98907483D01*
X153946202Y-99042328D01*
X153946206Y-99042335D01*
X154032452Y-99157544D01*
X154032455Y-99157547D01*
X154147664Y-99243793D01*
X154147671Y-99243797D01*
X154282517Y-99294091D01*
X154282516Y-99294091D01*
X154289444Y-99294835D01*
X154342127Y-99300500D01*
X155937872Y-99300499D01*
X155997483Y-99294091D01*
X156132331Y-99243796D01*
X156247546Y-99157546D01*
X156333796Y-99042331D01*
X156384091Y-98907483D01*
X156390500Y-98847873D01*
X156390499Y-97152128D01*
X156384091Y-97092517D01*
X156333796Y-96957669D01*
X156333795Y-96957668D01*
X156333793Y-96957664D01*
X156247547Y-96842455D01*
X156247544Y-96842452D01*
X156132335Y-96756206D01*
X156132328Y-96756202D01*
X156014344Y-96712197D01*
X155958410Y-96670326D01*
X155933993Y-96604861D01*
X155948845Y-96536588D01*
X155975493Y-96504058D01*
X155975311Y-96503876D01*
X155977142Y-96502044D01*
X155977990Y-96501010D01*
X155979127Y-96500055D01*
X155979139Y-96500047D01*
X156140047Y-96339139D01*
X156270568Y-96152734D01*
X156366739Y-95946496D01*
X156425635Y-95726692D01*
X156445468Y-95500000D01*
X156425635Y-95273308D01*
X156366739Y-95053504D01*
X156270568Y-94847266D01*
X156140047Y-94660861D01*
X156066865Y-94587679D01*
X156033382Y-94526359D01*
X156038366Y-94456667D01*
X156066865Y-94412320D01*
X156140047Y-94339139D01*
X156270568Y-94152734D01*
X156366739Y-93946496D01*
X156425635Y-93726692D01*
X156445468Y-93500000D01*
X156425635Y-93273308D01*
X156366739Y-93053504D01*
X156270568Y-92847266D01*
X156140047Y-92660861D01*
X156140045Y-92660858D01*
X155979141Y-92499954D01*
X155792734Y-92369432D01*
X155792730Y-92369430D01*
X155777022Y-92362105D01*
X155724583Y-92315931D01*
X155705433Y-92248737D01*
X155725650Y-92181857D01*
X155777028Y-92137340D01*
X155792481Y-92130134D01*
X155865472Y-92079025D01*
X155250451Y-91464004D01*
X155275199Y-91460446D01*
X155399445Y-91403705D01*
X155502673Y-91314258D01*
X155576519Y-91199351D01*
X155602935Y-91109382D01*
X156219025Y-91725472D01*
X156270136Y-91652478D01*
X156366264Y-91446331D01*
X156366269Y-91446317D01*
X156425139Y-91226610D01*
X156425141Y-91226599D01*
X156444966Y-91000002D01*
X156444966Y-90999997D01*
X156425141Y-90773400D01*
X156425139Y-90773389D01*
X156366269Y-90553682D01*
X156366265Y-90553673D01*
X156270133Y-90347516D01*
X156270131Y-90347512D01*
X156219026Y-90274526D01*
X156219025Y-90274526D01*
X155602935Y-90890616D01*
X155576519Y-90800649D01*
X155502673Y-90685742D01*
X155399445Y-90596295D01*
X155275199Y-90539554D01*
X155250451Y-90535995D01*
X155865472Y-89920974D01*
X155865471Y-89920973D01*
X155792483Y-89869866D01*
X155792481Y-89869865D01*
X155586326Y-89773734D01*
X155586317Y-89773730D01*
X155366610Y-89714860D01*
X155366599Y-89714858D01*
X155140002Y-89695034D01*
X155139998Y-89695034D01*
X154913400Y-89714858D01*
X154913389Y-89714860D01*
X154693682Y-89773730D01*
X154693673Y-89773734D01*
X154487513Y-89869868D01*
X154414527Y-89920972D01*
X154414526Y-89920973D01*
X155029549Y-90535995D01*
X155004801Y-90539554D01*
X154880555Y-90596295D01*
X154777327Y-90685742D01*
X154703481Y-90800649D01*
X154677064Y-90890616D01*
X154060973Y-90274526D01*
X154009868Y-90347513D01*
X153913734Y-90553673D01*
X153913730Y-90553682D01*
X153854860Y-90773389D01*
X153854858Y-90773400D01*
X153835034Y-90999997D01*
X153835034Y-91000002D01*
X153854858Y-91226599D01*
X153854860Y-91226610D01*
X153913730Y-91446317D01*
X153913734Y-91446326D01*
X154009865Y-91652481D01*
X154009866Y-91652483D01*
X154060973Y-91725471D01*
X154060973Y-91725472D01*
X154677063Y-91109381D01*
X154703481Y-91199351D01*
X154777327Y-91314258D01*
X154880555Y-91403705D01*
X155004801Y-91460446D01*
X155029548Y-91464004D01*
X154414526Y-92079025D01*
X154414526Y-92079026D01*
X154487512Y-92130131D01*
X154487515Y-92130132D01*
X154502974Y-92137341D01*
X154555414Y-92183513D01*
X154574567Y-92250706D01*
X154554352Y-92317587D01*
X154502978Y-92362105D01*
X154487269Y-92369430D01*
X154487265Y-92369432D01*
X154300858Y-92499954D01*
X154139954Y-92660858D01*
X154009432Y-92847265D01*
X154009431Y-92847267D01*
X153913261Y-93053502D01*
X153913258Y-93053511D01*
X153854366Y-93273302D01*
X153854364Y-93273313D01*
X153834532Y-93499998D01*
X153834532Y-93500001D01*
X153854364Y-93726686D01*
X153854366Y-93726697D01*
X153913258Y-93946488D01*
X153913261Y-93946497D01*
X154009431Y-94152732D01*
X154009432Y-94152734D01*
X154139949Y-94339134D01*
X154139954Y-94339140D01*
X154213132Y-94412318D01*
X154246617Y-94473641D01*
X154241633Y-94543333D01*
X154213133Y-94587680D01*
X154139951Y-94660862D01*
X154009432Y-94847265D01*
X154009431Y-94847267D01*
X153913261Y-95053502D01*
X153913258Y-95053511D01*
X153854366Y-95273302D01*
X153854364Y-95273313D01*
X153834532Y-95499998D01*
X153834532Y-95500001D01*
X148627500Y-95500001D01*
X148627500Y-87930001D01*
X155844390Y-87930001D01*
X155864804Y-88215433D01*
X155925628Y-88495037D01*
X156025635Y-88763166D01*
X156162770Y-89014309D01*
X156162775Y-89014317D01*
X156334254Y-89243387D01*
X156334270Y-89243405D01*
X156536594Y-89445729D01*
X156536612Y-89445745D01*
X156765682Y-89617224D01*
X156765690Y-89617229D01*
X157016833Y-89754364D01*
X157016832Y-89754364D01*
X157016836Y-89754365D01*
X157016839Y-89754367D01*
X157284954Y-89854369D01*
X157284960Y-89854370D01*
X157284962Y-89854371D01*
X157564566Y-89915195D01*
X157564568Y-89915195D01*
X157564572Y-89915196D01*
X157818220Y-89933337D01*
X157849999Y-89935610D01*
X157850000Y-89935610D01*
X157850001Y-89935610D01*
X157878595Y-89933564D01*
X158135428Y-89915196D01*
X158415046Y-89854369D01*
X158683161Y-89754367D01*
X158934315Y-89617226D01*
X159163395Y-89445739D01*
X159365739Y-89243395D01*
X159537226Y-89014315D01*
X159674367Y-88763161D01*
X159774369Y-88495046D01*
X159835196Y-88215428D01*
X159855610Y-87930000D01*
X159835196Y-87644572D01*
X159774369Y-87364954D01*
X159674367Y-87096839D01*
X159537226Y-86845685D01*
X159372729Y-86625942D01*
X159365745Y-86616612D01*
X159365729Y-86616594D01*
X159163405Y-86414270D01*
X159163387Y-86414254D01*
X158934317Y-86242775D01*
X158934309Y-86242770D01*
X158683166Y-86105635D01*
X158683167Y-86105635D01*
X158575915Y-86065632D01*
X158415046Y-86005631D01*
X158415043Y-86005630D01*
X158415037Y-86005628D01*
X158135433Y-85944804D01*
X157850001Y-85924390D01*
X157849999Y-85924390D01*
X157564566Y-85944804D01*
X157284962Y-86005628D01*
X157016833Y-86105635D01*
X156765690Y-86242770D01*
X156765682Y-86242775D01*
X156536612Y-86414254D01*
X156536594Y-86414270D01*
X156334270Y-86616594D01*
X156334254Y-86616612D01*
X156162775Y-86845682D01*
X156162770Y-86845690D01*
X156025635Y-87096833D01*
X155925628Y-87364962D01*
X155864804Y-87644566D01*
X155844390Y-87929998D01*
X155844390Y-87930001D01*
X148627500Y-87930001D01*
X148627500Y-81765000D01*
X163144341Y-81765000D01*
X163164936Y-82000403D01*
X163164938Y-82000413D01*
X163226094Y-82228655D01*
X163226096Y-82228659D01*
X163226097Y-82228663D01*
X163325964Y-82442829D01*
X163325965Y-82442830D01*
X163325967Y-82442834D01*
X163434281Y-82597521D01*
X163461505Y-82636401D01*
X163628599Y-82803495D01*
X163725384Y-82871265D01*
X163822165Y-82939032D01*
X163822167Y-82939033D01*
X163822170Y-82939035D01*
X164036337Y-83038903D01*
X164264592Y-83100063D01*
X164452918Y-83116539D01*
X164499999Y-83120659D01*
X164500000Y-83120659D01*
X164500001Y-83120659D01*
X164539234Y-83117226D01*
X164735408Y-83100063D01*
X164963663Y-83038903D01*
X165177830Y-82939035D01*
X165371401Y-82803495D01*
X165538495Y-82636401D01*
X165674035Y-82442830D01*
X165773903Y-82228663D01*
X165835063Y-82000408D01*
X165855659Y-81765000D01*
X165835063Y-81529592D01*
X165773903Y-81301337D01*
X165674035Y-81087171D01*
X165538495Y-80893599D01*
X165416567Y-80771671D01*
X165383084Y-80710351D01*
X165388068Y-80640659D01*
X165429939Y-80584725D01*
X165460915Y-80567810D01*
X165592331Y-80518796D01*
X165707546Y-80432546D01*
X165793796Y-80317331D01*
X165844091Y-80182483D01*
X165850500Y-80122873D01*
X165850499Y-78327128D01*
X165844091Y-78267517D01*
X165793796Y-78132669D01*
X165793795Y-78132668D01*
X165793793Y-78132664D01*
X165707547Y-78017455D01*
X165707544Y-78017452D01*
X165592335Y-77931206D01*
X165592328Y-77931202D01*
X165457482Y-77880908D01*
X165457483Y-77880908D01*
X165397883Y-77874501D01*
X165397881Y-77874500D01*
X165397873Y-77874500D01*
X165397864Y-77874500D01*
X163602129Y-77874500D01*
X163602123Y-77874501D01*
X163542516Y-77880908D01*
X163407671Y-77931202D01*
X163407664Y-77931206D01*
X163292455Y-78017452D01*
X163292452Y-78017455D01*
X163206206Y-78132664D01*
X163206202Y-78132671D01*
X163155908Y-78267517D01*
X163149501Y-78327116D01*
X163149501Y-78327123D01*
X163149500Y-78327135D01*
X163149500Y-80122870D01*
X163149501Y-80122876D01*
X163155908Y-80182483D01*
X163206202Y-80317328D01*
X163206206Y-80317335D01*
X163292452Y-80432544D01*
X163292455Y-80432547D01*
X163407664Y-80518793D01*
X163407671Y-80518797D01*
X163539081Y-80567810D01*
X163595015Y-80609681D01*
X163619432Y-80675145D01*
X163604580Y-80743418D01*
X163583430Y-80771673D01*
X163461503Y-80893600D01*
X163325965Y-81087169D01*
X163325964Y-81087171D01*
X163226098Y-81301335D01*
X163226094Y-81301344D01*
X163164938Y-81529586D01*
X163164936Y-81529596D01*
X163144341Y-81764999D01*
X163144341Y-81765000D01*
X148627500Y-81765000D01*
X148627500Y-67082964D01*
X148629228Y-67067313D01*
X148628946Y-67067287D01*
X148629680Y-67059524D01*
X148627531Y-66991108D01*
X148627500Y-66989161D01*
X148627500Y-66960530D01*
X148627500Y-66960524D01*
X148626626Y-66953607D01*
X148626169Y-66947792D01*
X148624701Y-66901058D01*
X148619082Y-66881718D01*
X148615139Y-66862685D01*
X148612616Y-66842707D01*
X148595403Y-66799234D01*
X148593514Y-66793713D01*
X148580467Y-66748807D01*
X148570225Y-66731489D01*
X148561662Y-66714011D01*
X148554253Y-66695297D01*
X148554253Y-66695296D01*
X148526771Y-66657472D01*
X148523567Y-66652596D01*
X148499763Y-66612344D01*
X148499761Y-66612342D01*
X148499759Y-66612339D01*
X148485531Y-66598112D01*
X148472896Y-66583320D01*
X148461063Y-66567033D01*
X148461060Y-66567031D01*
X148461060Y-66567030D01*
X148461059Y-66567029D01*
X148425035Y-66537228D01*
X148420713Y-66533294D01*
X148002376Y-66114957D01*
X147992531Y-66102668D01*
X147992313Y-66102849D01*
X147987340Y-66096837D01*
X147937443Y-66049981D01*
X147936043Y-66048624D01*
X147915797Y-66028377D01*
X147910296Y-66024111D01*
X147905848Y-66020312D01*
X147871768Y-65988308D01*
X147871763Y-65988304D01*
X147854122Y-65978606D01*
X147837857Y-65967922D01*
X147837680Y-65967785D01*
X147821962Y-65955592D01*
X147806804Y-65949032D01*
X147779054Y-65937023D01*
X147773807Y-65934453D01*
X147732837Y-65911929D01*
X147732828Y-65911926D01*
X147713334Y-65906920D01*
X147694933Y-65900620D01*
X147676459Y-65892626D01*
X147676452Y-65892624D01*
X147630287Y-65885313D01*
X147624563Y-65884128D01*
X147579279Y-65872500D01*
X147579272Y-65872500D01*
X147559142Y-65872500D01*
X147539743Y-65870973D01*
X147519868Y-65867825D01*
X147519867Y-65867825D01*
X147473321Y-65872225D01*
X147467483Y-65872500D01*
X147264447Y-65872500D01*
X147197408Y-65852815D01*
X147172300Y-65831476D01*
X147168371Y-65827112D01*
X147168369Y-65827111D01*
X147168367Y-65827108D01*
X147168364Y-65827106D01*
X147015234Y-65715851D01*
X147015229Y-65715848D01*
X146842307Y-65638857D01*
X146842302Y-65638855D01*
X146696500Y-65607865D01*
X146657146Y-65599500D01*
X146467854Y-65599500D01*
X146435397Y-65606398D01*
X146282697Y-65638855D01*
X146282692Y-65638857D01*
X146109770Y-65715848D01*
X146109765Y-65715851D01*
X145956629Y-65827111D01*
X145829966Y-65967785D01*
X145735321Y-66131715D01*
X145735318Y-66131722D01*
X145676827Y-66311740D01*
X145676826Y-66311744D01*
X145657040Y-66500000D01*
X145676826Y-66688256D01*
X145676827Y-66688259D01*
X145735318Y-66868277D01*
X145735321Y-66868284D01*
X145829967Y-67032216D01*
X145947169Y-67162382D01*
X145956629Y-67172888D01*
X146109765Y-67284148D01*
X146109770Y-67284151D01*
X146282692Y-67361142D01*
X146282697Y-67361144D01*
X146467854Y-67400500D01*
X146467855Y-67400500D01*
X146657144Y-67400500D01*
X146657146Y-67400500D01*
X146842303Y-67361144D01*
X147015230Y-67284151D01*
X147098572Y-67223600D01*
X147150514Y-67185862D01*
X147216320Y-67162382D01*
X147284374Y-67178207D01*
X147311080Y-67198499D01*
X147336181Y-67223600D01*
X147369666Y-67284923D01*
X147372500Y-67311281D01*
X147372500Y-85005432D01*
X147352815Y-85072471D01*
X147300011Y-85118226D01*
X147230853Y-85128170D01*
X147222720Y-85126722D01*
X147094647Y-85099500D01*
X147094646Y-85099500D01*
X146905354Y-85099500D01*
X146872897Y-85106398D01*
X146720197Y-85138855D01*
X146720192Y-85138857D01*
X146547270Y-85215848D01*
X146547265Y-85215851D01*
X146394129Y-85327111D01*
X146267466Y-85467785D01*
X146172821Y-85631715D01*
X146172818Y-85631722D01*
X146114327Y-85811740D01*
X146114326Y-85811744D01*
X146094540Y-86000000D01*
X146114326Y-86188256D01*
X146114327Y-86188259D01*
X146172818Y-86368277D01*
X146172821Y-86368284D01*
X146267466Y-86532215D01*
X146267469Y-86532219D01*
X146277147Y-86542967D01*
X146307379Y-86605957D01*
X146309000Y-86625942D01*
X146309000Y-99162416D01*
X146289315Y-99229455D01*
X146272681Y-99250097D01*
X146250097Y-99272681D01*
X146188774Y-99306166D01*
X146162416Y-99309000D01*
X143621232Y-99309000D01*
X143554193Y-99289315D01*
X143548347Y-99285318D01*
X143452734Y-99215851D01*
X143452729Y-99215848D01*
X143279807Y-99138857D01*
X143279802Y-99138855D01*
X143134001Y-99107865D01*
X143094646Y-99099500D01*
X142905354Y-99099500D01*
X142872897Y-99106398D01*
X142720197Y-99138855D01*
X142720192Y-99138857D01*
X142547270Y-99215848D01*
X142547265Y-99215851D01*
X142394129Y-99327111D01*
X142267466Y-99467785D01*
X142172821Y-99631715D01*
X142172818Y-99631722D01*
X142114327Y-99811740D01*
X142114326Y-99811744D01*
X142094540Y-100000000D01*
X142114326Y-100188256D01*
X142114327Y-100188259D01*
X142172818Y-100368277D01*
X142172821Y-100368284D01*
X142267467Y-100532216D01*
X142362742Y-100638029D01*
X142394129Y-100672888D01*
X142547265Y-100784148D01*
X142547270Y-100784151D01*
X142720192Y-100861142D01*
X142720197Y-100861144D01*
X142905354Y-100900500D01*
X142905355Y-100900500D01*
X143094644Y-100900500D01*
X143094646Y-100900500D01*
X143279803Y-100861144D01*
X143452730Y-100784151D01*
X143468762Y-100772502D01*
X143548347Y-100714682D01*
X143614153Y-100691202D01*
X143621232Y-100691000D01*
X146477247Y-100691000D01*
X146480992Y-100691113D01*
X146542026Y-100694805D01*
X146542026Y-100694804D01*
X146542028Y-100694805D01*
X146602185Y-100683779D01*
X146605870Y-100683219D01*
X146666582Y-100675848D01*
X146675788Y-100672356D01*
X146697403Y-100666330D01*
X146707085Y-100664557D01*
X146762865Y-100639451D01*
X146766281Y-100638037D01*
X146823482Y-100616344D01*
X146831579Y-100610754D01*
X146851139Y-100599722D01*
X146860105Y-100595688D01*
X146908249Y-100557968D01*
X146911255Y-100555757D01*
X146961583Y-100521020D01*
X147002159Y-100475216D01*
X147004679Y-100472540D01*
X147160822Y-100316398D01*
X147222142Y-100282916D01*
X147291834Y-100287900D01*
X147347767Y-100329772D01*
X147372184Y-100395236D01*
X147372500Y-100404082D01*
X147372500Y-109098915D01*
X147352815Y-109165954D01*
X147336182Y-109186595D01*
X147250095Y-109272682D01*
X147188775Y-109306166D01*
X147162416Y-109309000D01*
X133121232Y-109309000D01*
X133054193Y-109289315D01*
X133048347Y-109285318D01*
X132952734Y-109215851D01*
X132952729Y-109215848D01*
X132779807Y-109138857D01*
X132779802Y-109138855D01*
X132634001Y-109107865D01*
X132594646Y-109099500D01*
X132405354Y-109099500D01*
X132372897Y-109106398D01*
X132220197Y-109138855D01*
X132220192Y-109138857D01*
X132047270Y-109215848D01*
X132047265Y-109215851D01*
X131894129Y-109327111D01*
X131767466Y-109467785D01*
X131672821Y-109631715D01*
X131672818Y-109631722D01*
X131614327Y-109811740D01*
X131614326Y-109811744D01*
X131594540Y-110000000D01*
X131000000Y-110000000D01*
X131000000Y-74690000D01*
X131019685Y-74622961D01*
X131072489Y-74577206D01*
X131124000Y-74566000D01*
X143823768Y-74566000D01*
X143890807Y-74585685D01*
X143896653Y-74589682D01*
X143992265Y-74659148D01*
X143992270Y-74659151D01*
X144165192Y-74736142D01*
X144165197Y-74736144D01*
X144350354Y-74775500D01*
X144350355Y-74775500D01*
X144539644Y-74775500D01*
X144539646Y-74775500D01*
X144724803Y-74736144D01*
X144897730Y-74659151D01*
X145050871Y-74547888D01*
X145177533Y-74407216D01*
X145272179Y-74243284D01*
X145330674Y-74063256D01*
X145350460Y-73875000D01*
X145330674Y-73686744D01*
X145272179Y-73506716D01*
X145177533Y-73342784D01*
X145050871Y-73202112D01*
X144998848Y-73164315D01*
X144897734Y-73090851D01*
X144897729Y-73090848D01*
X144724807Y-73013857D01*
X144724802Y-73013855D01*
X144579001Y-72982865D01*
X144539646Y-72974500D01*
X144350354Y-72974500D01*
X144317897Y-72981398D01*
X144165197Y-73013855D01*
X144165192Y-73013857D01*
X143992270Y-73090848D01*
X143992265Y-73090851D01*
X143896653Y-73160318D01*
X143830847Y-73183798D01*
X143823768Y-73184000D01*
X131124000Y-73184000D01*
X131056961Y-73164315D01*
X131011206Y-73111511D01*
X131000000Y-73060000D01*
X131000000Y-62437500D01*
X147657040Y-62437500D01*
X147676826Y-62625756D01*
X147676827Y-62625759D01*
X147735318Y-62805777D01*
X147735321Y-62805784D01*
X147829967Y-62969716D01*
X147956629Y-63110387D01*
X147956629Y-63110388D01*
X148109765Y-63221648D01*
X148109770Y-63221651D01*
X148282692Y-63298642D01*
X148282697Y-63298644D01*
X148467854Y-63338000D01*
X148467855Y-63338000D01*
X148657144Y-63338000D01*
X148657146Y-63338000D01*
X148842303Y-63298644D01*
X149015230Y-63221651D01*
X149168371Y-63110388D01*
X149295033Y-62969716D01*
X149389679Y-62805784D01*
X149448174Y-62625756D01*
X149467960Y-62437500D01*
X149448174Y-62249244D01*
X149389679Y-62069216D01*
X149295033Y-61905284D01*
X149168371Y-61764612D01*
X149164023Y-61759783D01*
X149164949Y-61758948D01*
X149131878Y-61705260D01*
X149127500Y-61672603D01*
X149127500Y-50311280D01*
X149147185Y-50244241D01*
X149163810Y-50223608D01*
X149303602Y-50083816D01*
X149364923Y-50050334D01*
X149391281Y-50047500D01*
X163226173Y-50047500D01*
X163293212Y-50067185D01*
X163327748Y-50100376D01*
X163461505Y-50291401D01*
X163628597Y-50458493D01*
X163628603Y-50458498D01*
X163814594Y-50588730D01*
X163858219Y-50643307D01*
X163865413Y-50712805D01*
X163833890Y-50775160D01*
X163814595Y-50791880D01*
X163628922Y-50921890D01*
X163628920Y-50921891D01*
X163461891Y-51088920D01*
X163461886Y-51088926D01*
X163326400Y-51282420D01*
X163326399Y-51282422D01*
X163226570Y-51496507D01*
X163226567Y-51496513D01*
X163169364Y-51709999D01*
X163169364Y-51710000D01*
X164066314Y-51710000D01*
X164040507Y-51750156D01*
X164000000Y-51888111D01*
X164000000Y-52031889D01*
X164040507Y-52169844D01*
X164066314Y-52210000D01*
X163169364Y-52210000D01*
X163226567Y-52423486D01*
X163226570Y-52423492D01*
X163326399Y-52637578D01*
X163461894Y-52831082D01*
X163628917Y-52998105D01*
X163815031Y-53128425D01*
X163858656Y-53183003D01*
X163865848Y-53252501D01*
X163834326Y-53314856D01*
X163815031Y-53331575D01*
X163628922Y-53461890D01*
X163628920Y-53461891D01*
X163461891Y-53628920D01*
X163461886Y-53628926D01*
X163326400Y-53822420D01*
X163326399Y-53822422D01*
X163226570Y-54036507D01*
X163226567Y-54036513D01*
X163169364Y-54249999D01*
X163169364Y-54250000D01*
X164066314Y-54250000D01*
X164040507Y-54290156D01*
X164000000Y-54428111D01*
X164000000Y-54571889D01*
X164040507Y-54709844D01*
X164066314Y-54750000D01*
X163169364Y-54750000D01*
X163226567Y-54963486D01*
X163226570Y-54963492D01*
X163326399Y-55177578D01*
X163461894Y-55371082D01*
X163583946Y-55493134D01*
X163617431Y-55554457D01*
X163612447Y-55624149D01*
X163570575Y-55680082D01*
X163539598Y-55696997D01*
X163407671Y-55746202D01*
X163407664Y-55746206D01*
X163292455Y-55832452D01*
X163292452Y-55832455D01*
X163206206Y-55947664D01*
X163206202Y-55947671D01*
X163155908Y-56082517D01*
X163149501Y-56142116D01*
X163149501Y-56142123D01*
X163149500Y-56142135D01*
X163149500Y-57937870D01*
X163149501Y-57937876D01*
X163155908Y-57997483D01*
X163206202Y-58132328D01*
X163206206Y-58132335D01*
X163292452Y-58247544D01*
X163292455Y-58247547D01*
X163407664Y-58333793D01*
X163407671Y-58333797D01*
X163542517Y-58384091D01*
X163542516Y-58384091D01*
X163549444Y-58384835D01*
X163602127Y-58390500D01*
X165397872Y-58390499D01*
X165457483Y-58384091D01*
X165592331Y-58333796D01*
X165707546Y-58247546D01*
X165793796Y-58132331D01*
X165844091Y-57997483D01*
X165850500Y-57937873D01*
X165850499Y-56142128D01*
X165844091Y-56082517D01*
X165793796Y-55947669D01*
X165793795Y-55947668D01*
X165793793Y-55947664D01*
X165707547Y-55832455D01*
X165707544Y-55832452D01*
X165592335Y-55746206D01*
X165592328Y-55746202D01*
X165460401Y-55696997D01*
X165404467Y-55655126D01*
X165380050Y-55589662D01*
X165394902Y-55521389D01*
X165416053Y-55493133D01*
X165538108Y-55371078D01*
X165673600Y-55177578D01*
X165773429Y-54963492D01*
X165773432Y-54963486D01*
X165830636Y-54750000D01*
X164933686Y-54750000D01*
X164959493Y-54709844D01*
X165000000Y-54571889D01*
X165000000Y-54428111D01*
X164959493Y-54290156D01*
X164933686Y-54250000D01*
X165830636Y-54250000D01*
X165830635Y-54249999D01*
X165773432Y-54036513D01*
X165773429Y-54036507D01*
X165673600Y-53822422D01*
X165673599Y-53822420D01*
X165538113Y-53628926D01*
X165538108Y-53628920D01*
X165371082Y-53461894D01*
X165184968Y-53331575D01*
X165141344Y-53276998D01*
X165134151Y-53207499D01*
X165165673Y-53145145D01*
X165184968Y-53128425D01*
X165371082Y-52998105D01*
X165538105Y-52831082D01*
X165673600Y-52637578D01*
X165773429Y-52423492D01*
X165773432Y-52423486D01*
X165830636Y-52210000D01*
X164933686Y-52210000D01*
X164959493Y-52169844D01*
X165000000Y-52031889D01*
X165000000Y-51888111D01*
X164959493Y-51750156D01*
X164933686Y-51710000D01*
X165830636Y-51710000D01*
X165830635Y-51709999D01*
X165773432Y-51496513D01*
X165773429Y-51496507D01*
X165673600Y-51282422D01*
X165673599Y-51282420D01*
X165538113Y-51088926D01*
X165538108Y-51088920D01*
X165371078Y-50921890D01*
X165185405Y-50791879D01*
X165141780Y-50737302D01*
X165134588Y-50667804D01*
X165166110Y-50605449D01*
X165185406Y-50588730D01*
X165371401Y-50458495D01*
X165538495Y-50291401D01*
X165674035Y-50097830D01*
X165773903Y-49883663D01*
X165835063Y-49655408D01*
X165855659Y-49420000D01*
X165835063Y-49184592D01*
X165774600Y-48958937D01*
X165773905Y-48956344D01*
X165773904Y-48956343D01*
X165773903Y-48956337D01*
X165674035Y-48742171D01*
X165538495Y-48548599D01*
X165538494Y-48548597D01*
X165371402Y-48381506D01*
X165371395Y-48381501D01*
X165177834Y-48245967D01*
X165177830Y-48245965D01*
X165177828Y-48245964D01*
X164963663Y-48146097D01*
X164963659Y-48146096D01*
X164963655Y-48146094D01*
X164735413Y-48084938D01*
X164735403Y-48084936D01*
X164500001Y-48064341D01*
X164499999Y-48064341D01*
X164264596Y-48084936D01*
X164264586Y-48084938D01*
X164036344Y-48146094D01*
X164036335Y-48146098D01*
X163822171Y-48245964D01*
X163822169Y-48245965D01*
X163628597Y-48381505D01*
X163461505Y-48548597D01*
X163327749Y-48739623D01*
X163273172Y-48783248D01*
X163226174Y-48792500D01*
X149162967Y-48792500D01*
X149147318Y-48790772D01*
X149147292Y-48791054D01*
X149139524Y-48790319D01*
X149071108Y-48792469D01*
X149069161Y-48792500D01*
X149040522Y-48792500D01*
X149033618Y-48793371D01*
X149027800Y-48793829D01*
X148981057Y-48795298D01*
X148961713Y-48800918D01*
X148942669Y-48804862D01*
X148939709Y-48805235D01*
X148922707Y-48807384D01*
X148922703Y-48807385D01*
X148922700Y-48807386D01*
X148879235Y-48824594D01*
X148873710Y-48826485D01*
X148828809Y-48839531D01*
X148828806Y-48839533D01*
X148811480Y-48849779D01*
X148794010Y-48858337D01*
X148775298Y-48865745D01*
X148737463Y-48893233D01*
X148732580Y-48896440D01*
X148692346Y-48920234D01*
X148678106Y-48934474D01*
X148663320Y-48947102D01*
X148647033Y-48958936D01*
X148647032Y-48958936D01*
X148617227Y-48994963D01*
X148613295Y-48999285D01*
X148114953Y-49497626D01*
X148102669Y-49507469D01*
X148102849Y-49507687D01*
X148096838Y-49512660D01*
X148049981Y-49562556D01*
X148048628Y-49563951D01*
X148028379Y-49584200D01*
X148028375Y-49584205D01*
X148024106Y-49589709D01*
X148020315Y-49594147D01*
X147988308Y-49628230D01*
X147988305Y-49628234D01*
X147978606Y-49645877D01*
X147967928Y-49662133D01*
X147955594Y-49678034D01*
X147955589Y-49678042D01*
X147937025Y-49720943D01*
X147934454Y-49726191D01*
X147911927Y-49767167D01*
X147906920Y-49786668D01*
X147900621Y-49805064D01*
X147893893Y-49820612D01*
X147892625Y-49823544D01*
X147892624Y-49823546D01*
X147885312Y-49869716D01*
X147884127Y-49875438D01*
X147872500Y-49920723D01*
X147872500Y-49940858D01*
X147870973Y-49960257D01*
X147867825Y-49980131D01*
X147872225Y-50026677D01*
X147872500Y-50032515D01*
X147872500Y-61810446D01*
X147852815Y-61877485D01*
X147840651Y-61893417D01*
X147829970Y-61905278D01*
X147829965Y-61905285D01*
X147735321Y-62069215D01*
X147735318Y-62069222D01*
X147676827Y-62249240D01*
X147676826Y-62249244D01*
X147657040Y-62437500D01*
X131000000Y-62437500D01*
X131000000Y-60714434D01*
X131019685Y-60647395D01*
X131072489Y-60601640D01*
X131141647Y-60591696D01*
X131205203Y-60620721D01*
X131223262Y-60640118D01*
X131292454Y-60732546D01*
X131338643Y-60767123D01*
X131407664Y-60818793D01*
X131407671Y-60818797D01*
X131542517Y-60869091D01*
X131542516Y-60869091D01*
X131549444Y-60869835D01*
X131602127Y-60875500D01*
X133397872Y-60875499D01*
X133457483Y-60869091D01*
X133592331Y-60818796D01*
X133707546Y-60732546D01*
X133793796Y-60617331D01*
X133844091Y-60482483D01*
X133850500Y-60422873D01*
X133850499Y-58627128D01*
X133844091Y-58567517D01*
X133793796Y-58432669D01*
X133793795Y-58432668D01*
X133793793Y-58432664D01*
X133707547Y-58317455D01*
X133707544Y-58317452D01*
X133592335Y-58231206D01*
X133592328Y-58231202D01*
X133460917Y-58182189D01*
X133404983Y-58140318D01*
X133380566Y-58074853D01*
X133395418Y-58006580D01*
X133416563Y-57978332D01*
X133538495Y-57856401D01*
X133674035Y-57662830D01*
X133773903Y-57448663D01*
X133835063Y-57220408D01*
X133855659Y-56985000D01*
X133835063Y-56749592D01*
X133773903Y-56521337D01*
X133674035Y-56307171D01*
X133670104Y-56301556D01*
X133538494Y-56113597D01*
X133371402Y-55946506D01*
X133371401Y-55946505D01*
X133208521Y-55832455D01*
X133185841Y-55816574D01*
X133142216Y-55761997D01*
X133135024Y-55692498D01*
X133166546Y-55630144D01*
X133185836Y-55613428D01*
X133371401Y-55483495D01*
X133538495Y-55316401D01*
X133674035Y-55122830D01*
X133773903Y-54908663D01*
X133835063Y-54680408D01*
X133855659Y-54445000D01*
X133835063Y-54209592D01*
X133773903Y-53981337D01*
X133674035Y-53767171D01*
X133577236Y-53628926D01*
X133538494Y-53573597D01*
X133371402Y-53406506D01*
X133371395Y-53406501D01*
X133177834Y-53270967D01*
X133177830Y-53270965D01*
X133138234Y-53252501D01*
X132963663Y-53171097D01*
X132963659Y-53171096D01*
X132963655Y-53171094D01*
X132735413Y-53109938D01*
X132735403Y-53109936D01*
X132500001Y-53089341D01*
X132499999Y-53089341D01*
X132264596Y-53109936D01*
X132264586Y-53109938D01*
X132036344Y-53171094D01*
X132036335Y-53171098D01*
X131822171Y-53270964D01*
X131822169Y-53270965D01*
X131628597Y-53406505D01*
X131461505Y-53573597D01*
X131325965Y-53767169D01*
X131325964Y-53767171D01*
X131236382Y-53959281D01*
X131190210Y-54011720D01*
X131123016Y-54030872D01*
X131056135Y-54010656D01*
X131010800Y-53957491D01*
X131000000Y-53906876D01*
X131000000Y-47000000D01*
X168499500Y-47000000D01*
X168499500Y-115876000D01*
G37*
%TD.AperFunction*%
%TD*%
M02*
